<?xml version="1.0" encoding="UTF-8"?>
<svg width="21px" height="13px" viewBox="0 0 21 13" version="1.1" xmlns="http://www.w3.org/2000/svg" xmlns:xlink="http://www.w3.org/1999/xlink">
    <!-- Generator: Sketch 56.2 (81672) - https://sketch.com -->
    <title>back-arrow</title>
    <desc>Created with Sketch.</desc>
    <g id="Design" stroke="none" stroke-width="1" fill="none" fill-rule="evenodd">
        <g id="Template-#6A---News-&amp;-Events-Interior-Page" transform="translate(-20.000000, -1562.000000)" fill="#999999">
            <g id="back-arrow" transform="translate(20.000000, 1558.000000)">
                <g transform="translate(10.500000, 10.500000) scale(-1, 1) rotate(-360.000000) translate(-10.500000, -10.500000) translate(0.000000, 4.000000)" id="Fill-1">
                    <path d="M13.9958381,0.232891209 C13.6384918,-0.0776304031 13.0138815,-0.0776304031 12.6565352,0.232891209 C12.4781603,0.388411215 12.3797261,0.595252824 12.3797261,0.815054432 C12.3797261,1.03537444 12.4781603,1.24221605 12.6565352,1.39721766 L17.4577423,5.56878262 C16.8510291,5.56981942 16.7024828,5.57085622 16.5533399,5.57189302 C16.2854794,5.57344822 16.0140393,5.57500342 13.0735387,5.57707702 C4.82953538,5.62960822 0.637138311,5.67574583 0.496347448,5.71548983 C0.229680009,5.79221303 1.13686838e-13,5.84508983 1.13686838e-13,6.66260666 C1.13686838e-13,7.05693628 0.374050301,7.25410109 1.1221509,7.25410109 C1.24862405,7.25358269 9.93080025,7.22196029 12.8271546,7.21833149 C14.8871159,7.21625789 16.0659411,7.21418429 16.7299251,7.21211069 C17.066988,7.21107389 17.300844,7.21003709 17.4643045,7.20277949 C17.4810085,7.20433469 17.4989057,7.20537149 17.5185925,7.20588989 L17.5185925,7.20122429 C17.5293308,7.20122429 17.5412623,7.20122429 17.5543868,7.20122429 L12.6571318,11.4572885 C12.4775638,11.6122901 12.3791295,11.8191317 12.3791295,12.0389333 C12.3791295,12.2592533 12.4775638,12.4660949 12.6559386,12.6205781 C12.8277512,12.7703957 13.0711524,12.8564501 13.3240987,12.8569685 C13.5794312,12.8569685 13.823429,12.7709141 13.9958381,12.6210965 L20.4537241,7.00993468 C20.6332921,6.85441467 20.7317264,6.64705466 20.7317264,6.42725306 C20.7317264,6.20693305 20.6332921,6.00009144 20.4543207,5.84508983 L13.9958381,0.232891209 Z"></path>
                </g>
            </g>
        </g>
    </g>
</svg>