<svg xmlns="http://www.w3.org/2000/svg" viewBox="0 0 115 131">
  <g fill="none" fill-rule="evenodd">
    <path d="M22.954 0l30.573 30.573L25.27 58.828c-8.178 8.178-7.98 21.635.442 30.058 8.423 8.422 21.88 8.62 30.057.442l28.256-28.256 30.49 30.49L113.19 1.41 22.954 0z" fill="#B7A9D3"/>
    <path d="M43.352 123.854H9.428A7.428 7.428 0 012 116.426V42.141a7.428 7.428 0 017.428-7.427h33.924a7.428 7.428 0 017.428 7.427v74.285a7.428 7.428 0 01-7.428 7.428" fill="#FFF"/>
    <path d="M43.352 123.854H9.428A7.428 7.428 0 012 116.426V42.141a7.428 7.428 0 017.428-7.427h33.924a7.428 7.428 0 017.428 7.427v74.285a7.428 7.428 0 01-7.428 7.428z" stroke="#173C6F" stroke-width="3.6" stroke-linecap="round" stroke-linejoin="round"/>
    <path d="M18.264 44.781h16.252" stroke="#173C6F" stroke-width="2.854" stroke-linecap="round" stroke-linejoin="round"/>
    <path d="M53.374 129.262c-9.264 0-16.8-7.537-16.8-16.8 0-9.263 7.536-16.8 16.8-16.8 9.263 0 16.8 7.537 16.8 16.8 0 9.263-7.537 16.8-16.8 16.8" fill="#FFF"/>
    <path d="M53.374 94.115c-10.134 0-18.348 8.214-18.348 18.347 0 10.134 8.214 18.347 18.348 18.347 10.132 0 18.346-8.213 18.346-18.347 0-10.133-8.214-18.347-18.346-18.347m0 3.094c8.41 0 15.252 6.843 15.252 15.253s-6.841 15.253-15.252 15.253c-8.412 0-15.254-6.843-15.254-15.253S44.962 97.21 53.374 97.21" fill="#173C6F"/>
    <path d="M61.833 116.234a12.73 12.73 0 01-.842-.556c-.973-.675-2.073-1.438-2.933-1.438h-.005c-.765.003-1.405.827-1.919 1.488-.095.124-.186.24-.256.32-.478.558-.945.356-2.105-.527-.138-.104-.273-.207-.404-.302-1.162-.84-3.743-3.153-3.843-4.559-.017-.244.048-.423.21-.578.112-.11.292-.248.483-.395.595-.46 1.27-.98 1.4-1.638.152-.751-.467-1.997-2.135-4.3l-.1-.138c-.36-.5-.88-.741-1.46-.677-1.49.165-3.036 2.285-3.3 2.906-1.32 3.093 1.027 6.972 1.778 8.087 1.156 1.72 3.48 4.338 6.222 6.065 1.834 1.155 3.565 1.736 5.136 1.736 1.174 0 2.26-.326 3.23-.978.845-.638 1.503-1.685 1.66-2.35.187-.77.363-1.498-.817-2.166" fill="#002161"/>
    <path d="M26.39 113.863a3.707 3.707 0 01-3.702-3.702 3.707 3.707 0 013.702-3.703 3.706 3.706 0 013.702 3.703 3.706 3.706 0 01-3.702 3.702" fill="#FFF"/>
    <path d="M26.39 104.978a5.182 5.182 0 100 10.365 5.182 5.182 0 000-10.365m0 2.96c1.225 0 2.223.997 2.223 2.223a2.226 2.226 0 01-2.224 2.223 2.225 2.225 0 01-2.222-2.223c0-1.226.997-2.223 2.222-2.223" fill="#173C6F"/>
  </g>
</svg>