<?xml version="1.0" encoding="UTF-8"?>
<svg width="115px" height="131px" viewBox="0 0 115 131" version="1.1" xmlns="http://www.w3.org/2000/svg" xmlns:xlink="http://www.w3.org/1999/xlink">
    <!-- Generator: Sketch 56.2 (81672) - https://sketch.com -->
    <title>get-help-graphic02</title>
    <desc>Created with Sketch.</desc>
    <g id="Design" stroke="none" stroke-width="1" fill="none" fill-rule="evenodd">
        <g id="Template-#4A---Get-Help" transform="translate(-44.000000, -1294.000000)">
            <g id="get-help-graphic02" transform="translate(46.000000, 1294.000000)">
                <g id="Group-27">
                    <path d="M20.95371,-7.2475359e-13 L51.52671,30.573 L23.27121,58.8285 C15.09291,67.0059 15.29181,80.4627 23.71311,88.8858 C32.13621,97.308 45.59301,97.506 53.77041,89.3277 L82.02591,61.0722 L112.51611,91.5624 L111.18861,1.4103 L20.95371,-7.2475359e-13 Z" id="Fill-91" fill="#B7A9D3"></path>
                    <path d="M41.3523,123.85413 L7.4277,123.85413 C3.3255,123.85413 -8.52651283e-14,120.52863 -8.52651283e-14,116.42643 L-8.52651283e-14,42.14133 C-8.52651283e-14,38.03913 3.3255,34.71363 7.4277,34.71363 L41.3523,34.71363 C45.4545,34.71363 48.78,38.03913 48.78,42.14133 L48.78,116.42643 C48.78,120.52863 45.4545,123.85413 41.3523,123.85413" id="Fill-92" fill="#FFFFFF"></path>
                    <path d="M41.3523,123.85413 L7.4277,123.85413 C3.3255,123.85413 -8.52651283e-14,120.52863 -8.52651283e-14,116.42643 L-8.52651283e-14,42.14133 C-8.52651283e-14,38.03913 3.3255,34.71363 7.4277,34.71363 L41.3523,34.71363 C45.4545,34.71363 48.78,38.03913 48.78,42.14133 L48.78,116.42643 C48.78,120.52863 45.4545,123.85413 41.3523,123.85413 Z" id="Stroke-93" stroke="#173C6F" stroke-width="3.6" stroke-linecap="round" stroke-linejoin="round"></path>
                    <path d="M16.2639,44.78112 L32.5161,44.78112" id="Stroke-94" stroke="#173C6F" stroke-width="2.8539" stroke-linecap="round" stroke-linejoin="round"></path>
                    <path d="M51.37353,129.26205 C42.10983,129.26205 34.57323,121.72545 34.57323,112.46175 C34.57323,103.19895 42.10983,95.66235 51.37353,95.66235 C60.63723,95.66235 68.17383,103.19895 68.17383,112.46175 C68.17383,121.72545 60.63723,129.26205 51.37353,129.26205" id="Fill-95" fill="#FFFFFF"></path>
                    <path d="M51.37353,94.11507 C41.24043,94.11507 33.02613,102.32937 33.02613,112.46247 C33.02613,122.59557 41.24043,130.80897 51.37353,130.80897 C61.50573,130.80897 69.72003,122.59557 69.72003,112.46247 C69.72003,102.32937 61.50573,94.11507 51.37353,94.11507 M51.37353,97.20927 C59.78493,97.20927 66.62583,104.05197 66.62583,112.46247 C66.62583,120.87207 59.78493,127.71477 51.37353,127.71477 C42.96213,127.71477 36.12033,120.87207 36.12033,112.46247 C36.12033,104.05197 42.96213,97.20927 51.37353,97.20927" id="Fill-96" fill="#173C6F"></path>
                    <path d="M59.83308,116.23401 C59.61888,116.11341 59.31378,115.90191 58.99068,115.67781 C58.01778,115.00281 56.91798,114.23961 56.05848,114.23961 L56.05308,114.23961 C55.28808,114.24321 54.64818,115.06671 54.13428,115.72821 C54.03888,115.85151 53.94798,115.96851 53.87778,116.04861 C53.39988,116.60571 52.93278,116.40411 51.77268,115.52121 C51.63498,115.41681 51.49998,115.31421 51.36858,115.21881 C50.20668,114.37911 47.62638,112.06611 47.52648,110.66031 C47.50938,110.41551 47.57418,110.23731 47.73618,110.08161 C47.84778,109.97271 48.02778,109.83411 48.21858,109.68741 C48.81438,109.22751 49.48938,108.70641 49.61988,108.04941 C49.77108,107.29791 49.15188,106.05231 47.48418,103.74831 L47.38428,103.61061 C47.02428,103.11021 46.50408,102.86991 45.92448,102.93381 C44.43408,103.09941 42.88788,105.21891 42.62328,105.83991 C41.30478,108.93321 43.65108,112.81221 44.40168,113.92731 C45.55818,115.64631 47.88198,118.26531 50.62428,119.99241 C52.45758,121.14711 54.18918,121.72761 55.75968,121.72761 C56.93418,121.72761 58.01958,121.40181 58.98978,120.75021 C59.83488,120.11211 60.49278,119.06541 60.65028,118.40031 C60.83748,117.62991 61.01298,116.90181 59.83308,116.23401" id="Fill-97" fill="#002161"></path>
                    <path d="M24.39027,113.86314 C22.34817,113.86314 20.68767,112.20174 20.68767,110.16054 C20.68767,108.11934 22.34817,106.45794 24.39027,106.45794 C26.43237,106.45794 28.09197,108.11934 28.09197,110.16054 C28.09197,112.20174 26.43237,113.86314 24.39027,113.86314" id="Fill-98" fill="#FFFFFF"></path>
                    <path d="M24.38937,104.97834 C21.52737,104.97834 19.20717,107.29854 19.20717,110.16054 C19.20717,113.02254 21.52737,115.34274 24.38937,115.34274 C27.25227,115.34274 29.57247,113.02254 29.57247,110.16054 C29.57247,107.29854 27.25227,104.97834 24.38937,104.97834 M24.38937,107.93754 C25.61517,107.93754 26.61327,108.93474 26.61327,110.16054 C26.61327,111.38634 25.61517,112.38354 24.38937,112.38354 C23.16447,112.38354 22.16727,111.38634 22.16727,110.16054 C22.16727,108.93474 23.16447,107.93754 24.38937,107.93754" id="Fill-99" fill="#173C6F"></path>
                </g>
            </g>
        </g>
    </g>
</svg>