<?xml version="1.0" encoding="UTF-8"?>
<svg width="81px" height="49px" viewBox="0 0 81 49" version="1.1" xmlns="http://www.w3.org/2000/svg" xmlns:xlink="http://www.w3.org/1999/xlink">
    <!-- Generator: Sketch 59 (86127) - https://sketch.com -->
    <title>home-graphic-02</title>
    <desc>Created with Sketch.</desc>
    <g id="Design" stroke="none" stroke-width="1" fill="none" fill-rule="evenodd">
        <g id="Homepage" transform="translate(-762.000000, -626.000000)">
            <g id="home-graphic-02" transform="translate(764.000000, 626.000000)">
                <path d="M36.0273,2 L48.9383,14.911 L35.0803,28.769 C31.0693,32.779 31.1663,39.379 35.2973,43.51 C39.4273,47.641 46.0273,47.738 50.0383,43.727 L63.8963,29.869 L78.8503,44.823 L78.1993,0.608 L33.9633,-4.8316906e-13 L36.0273,2 Z" id="Fill-11" fill="#B7A9D3"></path>
                <path d="M-2.84217094e-14,47.7493 L-2.84217094e-14,39.3263 C-2.84217094e-14,37.6213 1.383,36.2393 3.088,36.2393 L13.876,36.2393 C15.581,36.2393 16.964,37.6213 16.964,39.3263 L16.964,42.1473" id="Stroke-13" stroke="#173C6F" stroke-width="2.25"></path>
                <path d="M44.4677,44.0654 L42.2177,44.0654 L42.2177,39.3264 C42.2177,37.0034 44.1077,35.1144 46.4297,35.1144 L58.6567,35.1144 L56.4017,37.3644 L46.4297,37.3644 C45.3477,37.3644 44.4677,38.2444 44.4677,39.3264 L44.4677,44.0654 Z" id="Fill-15" fill="#173C6F"></path>
                <path d="M8.4814,19.1335 C11.8024,19.1335 14.4944,21.8255 14.4944,25.1455 C14.4944,28.4665 11.8024,31.1585 8.4814,31.1585 C5.1614,31.1585 2.4694,28.4665 2.4694,25.1455 C2.4694,21.8255 5.1614,19.1335 8.4814,19.1335" id="Fill-17" fill="#7E6BAC"></path>
                <path d="M8.4814,19.1335 C11.8024,19.1335 14.4944,21.8255 14.4944,25.1455 C14.4944,28.4665 11.8024,31.1585 8.4814,31.1585 C5.1614,31.1585 2.4694,28.4665 2.4694,25.1455 C2.4694,21.8255 5.1614,19.1335 8.4814,19.1335 Z" id="Stroke-19" stroke="#173C6F" stroke-width="2.25"></path>
                <path d="M14.6884,17.8289 C14.6884,15.1869 16.8374,13.0379 19.4794,13.0379 C22.1204,13.0379 24.2694,15.1869 24.2694,17.8289 L26.7124,17.8289 C26.7124,13.8399 23.4674,10.5949 19.4794,10.5949 C15.4904,10.5949 12.2454,13.8399 12.2454,17.8289 L14.6884,17.8289 Z" id="Fill-21" fill="#173C6F"></path>
                <path d="M48.1572,15.6799 C47.2402,12.7369 44.4902,10.5949 41.2492,10.5949 C37.2612,10.5949 34.0142,13.8399 34.0142,17.8289 L36.4592,17.8289 C36.4592,15.1869 38.6072,13.0379 41.2492,13.0379 C43.8902,13.0379 46.0392,15.1869 46.0402,17.8289" id="Fill-23" fill="#173C6F"></path>
                <path d="M21.6797,41.8469 L21.6797,45.3909 C21.6797,46.6939 20.6237,47.7489 19.3217,47.7489 C18.0197,47.7489 16.9637,46.6939 16.9637,45.3909 L16.9637,41.8469" id="Stroke-25" stroke="#173C6F" stroke-width="2.25"></path>
                <path d="M30.1611,19.1335 C33.4811,19.1335 36.1741,21.8255 36.1741,25.1455 C36.1741,28.4665 33.4811,31.1585 30.1611,31.1585 C26.8411,31.1585 24.1481,28.4665 24.1481,25.1455 C24.1481,21.8255 26.8411,19.1335 30.1611,19.1335" id="Fill-27" fill="#7E6BAC"></path>
                <path d="M30.1611,19.1335 C33.4811,19.1335 36.1741,21.8255 36.1741,25.1455 C36.1741,28.4665 33.4811,31.1585 30.1611,31.1585 C26.8411,31.1585 24.1481,28.4665 24.1481,25.1455 C24.1481,21.8255 26.8411,19.1335 30.1611,19.1335 Z" id="Stroke-29" stroke="#173C6F" stroke-width="2.25"></path>
                <path d="M51.8242,19.1335 C55.1442,19.1335 57.8372,21.8255 57.8372,25.1455 C57.8372,28.4665 55.1442,31.1585 51.8242,31.1585 C48.5042,31.1585 45.8122,28.4665 45.8122,25.1455 C45.8122,21.8255 48.5042,19.1335 51.8242,19.1335" id="Fill-31" fill="#B7A9D3"></path>
                <path d="M51.8242,19.1335 C55.1442,19.1335 57.8372,21.8255 57.8372,25.1455 C57.8372,28.4665 55.1442,31.1585 51.8242,31.1585 C48.5042,31.1585 45.8122,28.4665 45.8122,25.1455 C45.8122,21.8255 48.5042,19.1335 51.8242,19.1335 Z" id="Stroke-33" stroke="#173C6F" stroke-width="2.25"></path>
                <path d="M21.6797,42.147 L21.6797,39.326 C21.6797,37.621 23.0617,36.239 24.7667,36.239 L35.5557,36.239 C37.2607,36.239 38.6427,37.621 38.6427,39.326 L38.6427,42.147" id="Stroke-35" stroke="#173C6F" stroke-width="2.25"></path>
                <path d="M43.3584,39.406 L43.3584,45.391 C43.3584,46.694 42.3024,47.749 41.0014,47.749 C39.6984,47.749 38.6424,46.694 38.6424,45.391 L38.6424,41.847" id="Stroke-37" stroke="#173C6F" stroke-width="2.25"></path>
            </g>
        </g>
    </g>
</svg>