<?xml version="1.0" encoding="UTF-8"?>
<svg width="30px" height="30px" viewBox="0 0 30 30" version="1.1" xmlns="http://www.w3.org/2000/svg" xmlns:xlink="http://www.w3.org/1999/xlink">
    <!-- Generator: Sketch 59 (86127) - https://sketch.com -->
    <title>icon-facebook</title>
    <desc>Created with Sketch.</desc>
    <g id="Symbols" stroke="none" stroke-width="1" fill="none" fill-rule="evenodd">
        <g id="Mobile---Footer" transform="translate(-276.000000, -396.000000)" fill="#FFFFFF">
            <g id="Group-14">
                <path d="M291.001156,396 C299.284031,396 306,402.715969 306,411 C306,419.284031 299.284031,426 291.001156,426 C282.715969,426 276,419.284031 276,411 C276,402.715969 282.715969,396 291.001156,396 Z M295.980873,402 L293.31879,402 C290.11889,402 288.993749,403.671804 288.993749,406.48353 L288.993749,408.551828 L287,408.551828 L287,411.999396 L288.993749,411.999396 L288.993749,422 L292.984623,422 L292.984623,411.999396 L295.646706,411.999396 L296,408.551828 L292.984623,408.551828 L292.989124,406.826836 C292.989124,405.928679 293.071259,405.446358 294.31679,405.446358 L295.980873,405.446358 L295.980873,402 Z" id="icon-facebook"></path>
            </g>
        </g>
    </g>
</svg>