<?xml version="1.0" encoding="UTF-8"?>
<svg width="161px" height="134px" viewBox="0 0 161 134" version="1.1" xmlns="http://www.w3.org/2000/svg" xmlns:xlink="http://www.w3.org/1999/xlink">
    <!-- Generator: Sketch 56.2 (81672) - https://sketch.com -->
    <title>mark</title>
    <desc>Created with Sketch.</desc>
    <defs>
        <polygon id="path-1" points="0 0.0531169614 93.8362196 0.0531169614 93.8362196 133.549995 0 133.549995"></polygon>
    </defs>
    <g id="Design" stroke="none" stroke-width="1" fill="none" fill-rule="evenodd">
        <g id="mark">
            <g>
                <g id="Group-3-Copy-2">
                    <mask id="mask-2" fill="white">
                        <use xlink:href="#path-1"></use>
                    </mask>
                    <g id="Clip-2"></g>
                    <path d="M66.7483806,89.0550137 C54.458701,89.0550137 44.4938114,79.0912941 44.4938114,66.8016145 C44.4938114,54.510765 54.458701,44.5470453 66.7483806,44.5470453 L93.8362196,44.5470453 L93.8362196,0.0531169614 L66.7483806,0.0531169614 C29.8840219,0.0531169614 -0.000116999996,29.9372559 -0.000116999996,66.8016145 C-0.000116999996,103.665973 29.8840219,133.550112 66.7483806,133.550112 L93.8362196,133.550112 L93.8362196,89.0550137 L66.7483806,89.0550137 Z" id="Fill-1" fill="#FFFFFF" mask="url(#mask-2)"></path>
                </g>
                <polygon id="Fill-4-Copy" fill="#8069B2" points="161 67 161 67 94 0 161 0"></polygon>
                <polygon id="Fill-6-Copy" fill="#FF8A6E" points="94 134 94 134 161 67 161 134"></polygon>
            </g>
        </g>
    </g>
</svg>