<?xml version="1.0" encoding="UTF-8"?>
<svg width="100px" height="83px" viewBox="0 0 100 83" version="1.1" xmlns="http://www.w3.org/2000/svg" xmlns:xlink="http://www.w3.org/1999/xlink">
    <!-- Generator: Sketch 56.2 (81672) - https://sketch.com -->
    <title>arrow-right</title>
    <desc>Created with Sketch.</desc>
    <defs>
        <polygon id="path-1" points="0 0 58 0 58 83 0 83"></polygon>
    </defs>
    <g id="Design" stroke="none" stroke-width="1" fill="none" fill-rule="evenodd" opacity="0.241885231">
        <g id="Template-#2---News-&amp;-Events" transform="translate(-139.000000, -3270.000000)">
            <g id="arrow-right" transform="translate(139.000000, 3270.000000)">
                <g id="Group-3">
                    <mask id="mask-2" fill="white">
                        <use xlink:href="#path-1"></use>
                    </mask>
                    <g id="Clip-2"></g>
                    <path d="M41.2570759,55.3357581 C33.6608563,55.3357581 27.5015835,49.1409465 27.5015835,41.5 C27.5015835,33.858326 33.6608563,27.6635145 41.2570759,27.6635145 L58,27.6635145 L58,0 L41.2570759,0 C18.4713099,0 0,18.5800701 0,41.5 C0,64.4199299 18.4713099,83 41.2570759,83 L58,83 L58,55.3357581 L41.2570759,55.3357581 Z" id="Fill-1" fill="#FFFFFF" mask="url(#mask-2)"></path>
                </g>
                <polygon id="Fill-4" fill="#FFFFFF" points="100 41 100 41 58 0 100 0"></polygon>
                <polygon id="Fill-6" fill="#FFFFFF" points="58 83 58 83 100 42 100 83"></polygon>
            </g>
        </g>
    </g>
</svg>