<?xml version="1.0" encoding="UTF-8"?>
<svg width="164px" height="124px" viewBox="0 0 164 124" version="1.1" xmlns="http://www.w3.org/2000/svg" xmlns:xlink="http://www.w3.org/1999/xlink">
    <!-- Generator: Sketch 56.2 (81672) - https://sketch.com -->
    <title>get-help-graphic04</title>
    <desc>Created with Sketch.</desc>
    <g id="Design" stroke="none" stroke-width="1" fill="none" fill-rule="evenodd">
        <g id="Template-#4A---Get-Help" transform="translate(-18.000000, -456.000000)">
            <g id="get-help-graphic04" transform="translate(20.000000, 456.000000)">
                <g id="Group-23">
                    <path d="M69.73524,-7.31859018e-13 L100.30824,30.573 L72.05184,58.8285 C63.87444,67.0059 64.07244,80.4627 72.49464,88.8858 C80.91684,97.308 94.37364,97.506 102.55194,89.3277 L130.80744,61.0722 L161.29764,91.5624 L159.97014,1.4103 L69.73524,-7.31859018e-13 Z" id="Fill-3" fill="#FCC16B"></path>
                    <path d="M51.8688,51.04377 L0.7902,43.16517 C0.351,43.08327 -1.95399252e-13,43.41177 -1.95399252e-13,43.82217 L-1.95399252e-13,104.96457 C-1.95399252e-13,105.29217 0.1746,105.62067 0.5256,105.62067 L51.8688,113.41737 L51.8688,51.04377 Z" id="Stroke-5" stroke="#173C6F" stroke-width="3.6" stroke-linecap="round" stroke-linejoin="round"></path>
                    <path d="M51.8688,51.04377 L102.8601,43.16517 C103.3857,43.08327 103.7367,43.41177 103.7367,43.82217 L103.7367,104.96457 C103.7367,105.29217 103.4748,105.62067 103.1229,105.62067 L51.8688,113.41737 L51.8688,51.04377 Z" id="Fill-7" fill="#FFFFFF"></path>
                    <path d="M51.8688,51.04377 L102.8601,43.16517 C103.3857,43.08327 103.7367,43.41177 103.7367,43.82217 L103.7367,104.96457 C103.7367,105.29217 103.4748,105.62067 103.1229,105.62067 L51.8688,113.41737 L51.8688,51.04377 Z" id="Stroke-9" stroke="#173C6F" stroke-width="3.6" stroke-linecap="round" stroke-linejoin="round"></path>
                    <path d="M98.34363,40.24818 C84.12363,36.38178 61.98993,41.78988 51.86673,51.38388 L51.86673,110.62098 C65.40093,101.48328 85.55103,99.00918 97.98993,101.50218 L98.34363,42.68448 L98.34363,40.24818 Z" id="Fill-11" fill="#FFFFFF"></path>
                    <path d="M98.34363,40.24818 C84.12363,36.38178 61.98993,41.78988 51.86673,51.38388 L51.86673,110.62098 C65.40093,101.48328 85.55103,99.00918 97.98993,101.50218 L98.34363,42.68448 L98.34363,40.24818 Z" id="Stroke-13" stroke="#173C6F" stroke-width="2.7594" stroke-linecap="round" stroke-linejoin="round"></path>
                    <path d="M5.39046,40.24818 C19.61136,36.38178 41.74416,41.78988 51.86736,51.38388 L51.86736,110.62098 C37.98846,101.63628 18.18306,99.00918 5.74416,101.50218 L5.39046,42.68448 L5.39046,40.24818 Z" id="Fill-15" fill="#FFFFFF"></path>
                    <path d="M5.39046,40.24818 C19.61136,36.38178 41.74416,41.78988 51.86736,51.38388 L51.86736,110.62098 C37.98846,101.63628 18.18306,99.00918 5.74416,101.50218 L5.39046,42.68448 L5.39046,40.24818 Z" id="Stroke-17" stroke="#173C6F" stroke-width="2.7594" stroke-linecap="round" stroke-linejoin="round"></path>
                    <path d="M14.04243,52.39863 L43.71993,59.03163" id="Fill-19" fill="#FFFFFF"></path>
                    <path d="M14.04243,52.39863 L43.71993,59.03163" id="Stroke-21" stroke="#173C6F" stroke-width="2.7594" stroke-linecap="round" stroke-linejoin="round"></path>
                    <path d="M14.04243,70.30899 L43.71993,76.94199" id="Fill-23" fill="#FFFFFF"></path>
                    <path d="M14.04243,70.30899 L43.71993,76.94199" id="Stroke-25" stroke="#173C6F" stroke-width="2.7594" stroke-linecap="round" stroke-linejoin="round"></path>
                    <path d="M14.04243,62.7759 L43.71993,69.4089" id="Fill-27" fill="#FFFFFF"></path>
                    <path d="M14.04243,62.7759 L43.71993,69.4089" id="Stroke-29" stroke="#173C6F" stroke-width="2.7594" stroke-linecap="round" stroke-linejoin="round"></path>
                    <path d="M88.86636,52.39863 L59.18976,59.03163" id="Fill-31" fill="#FFFFFF"></path>
                    <path d="M88.86636,52.39863 L59.18976,59.03163" id="Stroke-33" stroke="#173C6F" stroke-width="2.7594" stroke-linecap="round" stroke-linejoin="round"></path>
                    <path d="M88.86636,70.875 L59.18976,77.508" id="Fill-35" fill="#FFFFFF"></path>
                    <path d="M88.86636,70.875 L59.18976,77.508" id="Stroke-37" stroke="#173C6F" stroke-width="2.7594" stroke-linecap="round" stroke-linejoin="round"></path>
                    <path d="M88.86636,77.82273 L59.18976,84.45573" id="Fill-39" fill="#FFFFFF"></path>
                    <path d="M88.86636,77.82273 L59.18976,84.45573" id="Stroke-41" stroke="#173C6F" stroke-width="2.7594" stroke-linecap="round" stroke-linejoin="round"></path>
                    <path d="M88.86636,84.77046 L59.18976,91.40346" id="Fill-43" fill="#FFFFFF"></path>
                    <path d="M88.86636,84.77046 L59.18976,91.40346" id="Stroke-45" stroke="#173C6F" stroke-width="2.7594" stroke-linecap="round" stroke-linejoin="round"></path>
                    <path d="M88.86636,59.45931 L59.18976,66.09231" id="Fill-47" fill="#FFFFFF"></path>
                    <path d="M88.86636,59.45931 L59.18976,66.09231" id="Stroke-49" stroke="#173C6F" stroke-width="2.7594" stroke-linecap="round" stroke-linejoin="round"></path>
                    <path d="M94.66452,85.0697125 C102.89232,85.0977 109.53882,91.7901 109.511902,100.0188 C109.48392,108.2466 102.79062,114.894 94.56282,114.865293 C86.33502,114.8382 79.68672,108.1449 79.7154268,99.9171 C79.74342,91.6893 86.43582,85.0419 94.66452,85.0697125" id="Fill-51" fill="#FFFFFF"></path>
                    <path d="M94.66452,85.0697125 C102.89232,85.0977 109.53882,91.7901 109.511902,100.0188 C109.48392,108.2466 102.79062,114.894 94.56282,114.865293 C86.33502,114.8382 79.68672,108.1449 79.7154268,99.9171 C79.74342,91.6893 86.43582,85.0419 94.66452,85.0697125 Z" id="Stroke-53" stroke="#173C6F" stroke-width="3.6"></path>
                    <path d="M105.17274,110.47545 L116.77914,122.02605" id="Stroke-55" stroke="#173C6F" stroke-width="3.6"></path>
                </g>
            </g>
        </g>
    </g>
</svg>