
<svg xmlns="http://www.w3.org/2000/svg" viewBox="0 0 21 13">
  <path d="M7.004.233c.358-.31.982-.31 1.34 0a.77.77 0 01.276.582c0 .22-.098.427-.277.582l-4.8 4.172c.606 0 .755.002.904.003.268.001.539.003 3.48.005 8.243.053 12.436.099 12.577.138.266.077.496.13.496.948 0 .394-.374.591-1.122.591A8261.1 8261.1 0 004.27 7.212a20.67 20.67 0 01-.734-.01.816.816 0 01-.055.004V7.2h-.035l4.897 4.256c.18.155.278.362.278.582 0 .22-.099.427-.277.582-.172.15-.415.235-.668.236-.255 0-.5-.086-.672-.236L.546 7.01a.767.767 0 01-.278-.583c0-.22.099-.427.278-.582L7.004.233z" fill="#999" fill-rule="evenodd"/>
</svg>