<svg xmlns="http://www.w3.org/2000/svg" viewBox="0 0 127 167"><g fill="none" fill-rule="evenodd"><path d="M51.885 69.529c-9.554 0-17.299-7.745-17.299-17.299 0-9.553 7.745-17.298 17.299-17.298H72.94V.346H51.885C23.229.346 0 23.576 0 52.23c0 28.655 23.229 51.885 51.885 51.885H72.94V69.529H51.885" fill="#22355B" mask="url(#mask-2)"/><path fill="#79619B" mask="url(#mask-2)" d="M124.825 52.23L72.94.346h51.885V52.23"/><path fill="#E9846B" mask="url(#mask-2)" d="M72.94 104.115l51.885-51.885v51.885H72.94"/><path d="M42.813 148.677l8.2 1.676C48.964 161.038 40.515 167 30.514 167c-12.236 0-21.865-9.503-21.865-21.739 0-12.177 9.629-21.742 21.865-21.742 10.001 0 18.388 6.024 20.499 16.026l-8.2 2.298c-1.552-7.205-6.521-10.373-12.299-10.373-7.454 0-13.354 5.901-13.354 13.791 0 7.887 5.9 13.851 13.354 13.851 5.778 0 10.747-3.168 12.299-10.435m45.289 17.392h-29.94V124.45h8.447v33.978h21.493v7.641m37.77-30.561l-8.447 1.738c-.623-3.912-4.039-6.46-8.2-6.46-4.224 0-6.771 2.361-6.771 5.156 0 2.112.931 3.603 4.162 4.224l8.944 1.802c6.772 1.429 10.934 5.466 10.934 11.926 0 8.075-6.648 13.106-16.524 13.106-8.696 0-16.337-4.037-17.392-12.362l8.883-1.799c1.117 4.719 4.596 6.769 9.317 6.769 4.845 0 7.392-2.298 7.392-5.279 0-2.36-1.118-3.789-4.845-4.535l-8.821-1.677c-4.97-1.056-10.933-3.789-10.933-11.927 0-7.453 6.088-12.671 15.841-12.671 8.447 0 14.846 4.597 16.46 11.989" fill="#22355B" mask="url(#mask-2)"/></g></svg>