<svg xmlns="http://www.w3.org/2000/svg" xmlns:xlink="http://www.w3.org/1999/xlink" viewBox="0 0 237 69">
  <defs>
    <path id="a" d="M0 68.253h236.353V.26H0z"/>
  </defs>
  <g fill="none" fill-rule="evenodd">
    <path d="M68.382 58.79l-1.388 3.384h2.76l-1.372-3.383zm2.917 7.15l-.822-2.023h-4.19l-.834 2.023H63.37l4.107-9.487h1.8l4.105 9.487h-2.082z" fill="#8269B4"/>
    <g transform="translate(0 .379)">
      <path d="M79.538 62.037c0-1.303-1.008-2.125-2.01-2.125-1.134 0-1.983.822-1.983 2.125 0 1.302.85 2.11 1.982 2.11 1.003 0 2.01-.808 2.01-2.11zm1.867 3.524h-1.867v-.551c-.595.482-1.373.765-2.338.765-1.796 0-3.467-1.515-3.467-3.738 0-2.224 1.671-3.753 3.467-3.753.965 0 1.743.283 2.338.778v-3.694h1.867V65.56zM87.536 65.562h-1.983l-2.947-7.078h2.01l1.927 4.797 1.924-4.797h2.01zM96.708 62.037c0-1.303-1.008-2.125-2.01-2.125-1.134 0-1.98.822-1.98 2.125 0 1.302.846 2.11 1.98 2.11 1.002 0 2.01-.808 2.01-2.11zm1.867 3.524h-1.867v-.551c-.595.482-1.373.765-2.337.765-1.797 0-3.468-1.515-3.468-3.738 0-2.224 1.671-3.753 3.468-3.753.964 0 1.742.283 2.337.778v-.566h1.867v7.065zM107.552 61.258v4.304h-1.868v-3.906c0-.993-.57-1.659-1.431-1.659-1.062 0-1.756.71-1.756 2.437v3.128h-1.87v-7.065h1.87v.638c.551-.551 1.286-.85 2.222-.85 1.7 0 2.833 1.217 2.833 2.973M114.444 62.688l1.73.439c-.398 1.615-1.858 2.648-3.542 2.648-2.067 0-3.779-1.515-3.779-3.738 0-2.222 1.712-3.753 3.78-3.753 1.642 0 3.071 1.02 3.54 2.605l-1.798.51c-.255-.992-.921-1.4-1.743-1.4-1.174 0-1.967.834-1.967 2.038 0 1.217.793 2.026 1.967 2.026.822 0 1.488-.398 1.812-1.375" fill="#8269B4"/>
      <mask id="b" fill="#fff">
        <use xlink:href="#a"/>
      </mask>
      <path d="M117.754 65.56h1.868v-7.064h-1.868v7.065zm2.07-9.172c0 .623-.483 1.09-1.133 1.09-.666 0-1.133-.467-1.133-1.09 0-.594.467-1.12 1.133-1.12.65 0 1.133.526 1.133 1.12zM128.699 61.258v4.304h-1.868v-3.906c0-.993-.566-1.659-1.431-1.659-1.062 0-1.753.71-1.753 2.437v3.128h-1.87v-7.065h1.87v.638c.548-.551 1.286-.85 2.222-.85 1.7 0 2.83 1.217 2.83 2.973M135.65 61.697c0-1.104-.905-1.842-1.898-1.842-1.12 0-1.954.738-1.954 1.842 0 1.105.834 1.84 1.954 1.84.993 0 1.898-.735 1.898-1.84zm1.812 3.187c0 2.164-1.5 3.368-3.779 3.368-1.643 0-2.834-.582-3.442-1.559l1.516-1.145c.551.694 1.005 1.02 1.926 1.02 1.187 0 1.967-.737 1.967-1.97v-.112c-.525.426-1.245.65-2.222.65-1.77 0-3.427-1.5-3.427-3.439 0-1.926 1.656-3.411 3.427-3.411.977 0 1.697.24 2.222.65v-.438h1.797l.015 6.386zM149.564 62.207c0 2.067-1.472 3.567-3.679 3.567-2.039 0-3.342-1.273-3.638-3.1l1.827-.368c.125.99.734 1.74 1.811 1.74 1.046 0 1.756-.79 1.756-1.84v-6.13h1.923v6.13zM158.27 65.562h-1.867v-.638c-.552.554-1.289.85-2.225.85-1.7 0-2.83-1.217-2.83-2.973v-4.304h1.87v3.909c0 .99.564 1.656 1.43 1.656 1.06 0 1.755-.71 1.755-2.434v-3.131h1.867v7.065zM161.54 63.31c.099.723.721.963 1.459.963.694 0 1.105-.311 1.105-.707 0-.255-.171-.51-.781-.638l-1.442-.296c-1.276-.27-1.998-.992-1.998-2.01 0-1.36 1.105-2.338 2.889-2.338 1.67 0 2.832.865 3.072 2.098l-1.784.352c-.071-.567-.566-.977-1.344-.977-.75 0-.965.367-.965.694 0 .227.087.47.638.594l1.684.368c1.245.27 1.857 1.048 1.857 1.997 0 1.557-1.26 2.366-3.102 2.366-1.557 0-2.988-.61-3.172-2.082l1.883-.383zM172.582 65.25c-.737.396-1.245.526-1.842.526-1.668 0-2.776-.88-2.776-2.82v-2.928h-1.513v-1.531h1.513v-2.138h1.873v2.138h2.307v1.53h-2.307v2.79c0 .849.408 1.216 1.03 1.216.327 0 .81-.142 1.177-.339l.538 1.557zM173.757 65.56h1.868v-7.064h-1.868v7.065zm2.067-9.172c0 .623-.482 1.09-1.133 1.09-.666 0-1.135-.467-1.135-1.09 0-.594.47-1.12 1.135-1.12.65 0 1.133.526 1.133 1.12zM182.8 62.688l1.73.439c-.397 1.615-1.857 2.648-3.54 2.648-2.067 0-3.78-1.515-3.78-3.738 0-2.222 1.713-3.753 3.78-3.753 1.643 0 3.071 1.02 3.54 2.605l-1.798.51c-.255-.992-.921-1.4-1.743-1.4-1.173 0-1.967.834-1.967 2.038 0 1.217.794 2.026 1.967 2.026.822 0 1.488-.398 1.812-1.375M187.36 61.215h3.412c-.242-.905-.918-1.3-1.671-1.3-.71 0-1.516.423-1.74 1.3zm5.323 1.317h-5.378c.183 1.02.903 1.643 1.768 1.643.553 0 1.245-.071 1.755-.936l1.671.357c-.622 1.472-1.885 2.179-3.426 2.179-1.995 0-3.626-1.516-3.626-3.738s1.63-3.75 3.654-3.75c1.883 0 3.513 1.456 3.582 3.61v.635z" fill="#8269B4" mask="url(#b)"/>
      <path d="M20.813 29.193a6.939 6.939 0 110-13.877h8.448V1.443h-8.448C9.32 1.443.001 10.761.001 22.256c0 11.494 9.318 20.81 20.812 20.81h8.448V29.193h-8.448z" fill="#173C6F" mask="url(#b)"/>
      <path fill="#8269B4" mask="url(#b)" d="M50.07 22.255L29.26 1.442h20.81z"/>
      <path fill="#FF8C6E" mask="url(#b)" d="M29.26 43.067l20.81-20.813v20.813z"/>
      <path d="M75.955 11.158l3.217.659c-.804 4.192-4.12 6.534-8.047 6.534-4.8 0-8.581-3.73-8.581-8.535 0-4.776 3.781-8.532 8.58-8.532 3.927 0 7.221 2.365 8.048 6.29l-3.217.903c-.61-2.83-2.562-4.073-4.83-4.073-2.924 0-5.239 2.317-5.239 5.412 0 3.098 2.315 5.437 5.239 5.437 2.268 0 4.22-1.242 4.83-4.095M90.947 11.913c0-2.268-1.753-3.633-3.437-3.633-1.755 0-3.51 1.365-3.51 3.633s1.755 3.634 3.51 3.634c1.684 0 3.437-1.366 3.437-3.634m3.123 0c0 3.827-3 6.39-6.56 6.39-3.633 0-6.631-2.563-6.631-6.39 0-3.827 2.998-6.386 6.631-6.386 3.56 0 6.56 2.559 6.56 6.386M108.429 10.573v7.412h-3.22v-6.729c0-1.707-.975-2.855-2.462-2.855-1.827 0-3.021 1.22-3.021 4.195v5.389h-3.22V5.819h3.22v1.095c.949-.95 2.217-1.462 3.827-1.462 2.924 0 4.876 2.097 4.876 5.12M123.449 10.573v7.412h-3.22v-6.729c0-1.707-.978-2.855-2.462-2.855-1.827 0-3.024 1.22-3.024 4.195v5.389h-3.217V5.819h3.217v1.095c.952-.95 2.22-1.462 3.827-1.462 2.927 0 4.879 2.097 4.879 5.12M128.858 10.5h5.879c-.416-1.56-1.585-2.244-2.878-2.244-1.22 0-2.61.733-3 2.243zm9.17 2.267h-9.267c.32 1.756 1.562 2.83 3.05 2.83.948 0 2.145-.122 3.023-1.61l2.878.607c-1.074 2.54-3.246 3.756-5.902 3.756-3.437 0-6.243-2.608-6.243-6.437 0-3.828 2.806-6.46 6.292-6.46 3.243 0 6.047 2.51 6.17 6.217v1.097zM149.609 13.036l2.972.755c-.683 2.779-3.194 4.56-6.095 4.56-3.56 0-6.509-2.608-6.509-6.438 0-3.827 2.95-6.46 6.509-6.46 2.83 0 5.292 1.755 6.095 4.485l-3.094.878c-.442-1.707-1.585-2.414-3.001-2.414-2.023 0-3.388 1.44-3.388 3.511 0 2.098 1.365 3.488 3.388 3.488 1.416 0 2.56-.684 3.123-2.365M163.872 17.448c-1.268.684-2.146.904-3.17.904-2.877 0-4.778-1.513-4.778-4.853V8.452h-2.61V5.819h2.61V2.137h3.217v3.682h3.973v2.633h-3.973v4.802c0 1.464.707 2.097 1.781 2.097.559 0 1.388-.242 2.023-.584l.927 2.681zM165.774 17.983h3.217V5.817h-3.217v12.166zm3.556-15.796c0 1.071-.826 1.875-1.949 1.875-1.146 0-1.95-.804-1.95-1.875 0-1.026.804-1.927 1.95-1.927 1.123 0 1.95.9 1.95 1.927zM181.229 13.036l2.975.755c-.684 2.779-3.195 4.56-6.096 4.56-3.56 0-6.509-2.608-6.509-6.438 0-3.827 2.95-6.46 6.51-6.46 2.829 0 5.291 1.755 6.095 4.485l-3.098.878c-.439-1.707-1.584-2.414-2.998-2.414-2.023 0-3.388 1.44-3.388 3.511 0 2.098 1.365 3.488 3.388 3.488 1.414 0 2.56-.684 3.12-2.365M198.247 17.984h-3.22v-1.097c-.95.952-2.217 1.465-3.827 1.465-2.924 0-4.876-2.098-4.876-5.121V5.819h3.22v6.728c0 1.707.974 2.853 2.462 2.853 1.83 0 3.021-1.217 3.021-4.193V5.82h3.22v12.165zM210.511 17.448c-1.268.684-2.146.904-3.169.904-2.878 0-4.779-1.513-4.779-4.853V8.452h-2.61V5.819h2.61V2.137h3.218v3.682h3.972v2.633h-3.972v4.802c0 1.464.707 2.097 1.78 2.097.56 0 1.389-.242 2.024-.584l.926 2.681zM76.002 43.068h-11.75V26.734h3.315V40.07h8.435zM81 35.583h5.876c-.413-1.561-1.584-2.243-2.875-2.243-1.222 0-2.61.73-3 2.243zm9.168 2.269h-9.265c.317 1.755 1.56 2.827 3.047 2.827.951 0 2.146-.123 3.023-1.61l2.878.61c-1.074 2.536-3.243 3.755-5.901 3.755-3.437 0-6.241-2.61-6.241-6.437 0-3.828 2.804-6.46 6.292-6.46 3.24 0 6.044 2.51 6.167 6.215v1.1zM101.846 36.412c0-1.904-1.56-3.17-3.266-3.17-1.927 0-3.366 1.266-3.366 3.17 0 1.903 1.44 3.169 3.366 3.169 1.707 0 3.266-1.266 3.266-3.17zm3.123 5.485c0 3.73-2.588 5.803-6.512 5.803-2.83 0-4.876-.998-5.924-2.68l2.607-1.977c.952 1.194 1.733 1.755 3.317 1.755 2.05 0 3.389-1.265 3.389-3.388v-.196c-.904.732-2.146 1.122-3.828 1.122-3.046 0-5.901-2.584-5.901-5.924 0-3.317 2.855-5.876 5.901-5.876 1.682 0 2.924.413 3.828 1.122V30.9h3.097l.026 10.997zM117.401 36.997c0-2.243-1.732-3.659-3.462-3.659-1.95 0-3.414 1.416-3.414 3.66 0 2.242 1.465 3.633 3.414 3.633 1.73 0 3.462-1.391 3.462-3.634zm3.22 6.07h-3.22v-.951c-1.023.831-2.365 1.316-4.023 1.316-3.095 0-5.973-2.607-5.973-6.435 0-3.827 2.878-6.46 5.973-6.46 1.658 0 3 .487 4.023 1.34v-.975h3.22v12.165zM124.031 43.067h3.22V25.512h-3.22zM149.046 31.072l-3.315.684c-.244-1.536-1.584-2.536-3.22-2.536-1.655 0-2.658.926-2.658 2.023 0 .83.367 1.413 1.635 1.658l3.511.707c2.659.561 4.292 2.146 4.292 4.682 0 3.17-2.61 5.144-6.486 5.144-3.414 0-6.412-1.585-6.828-4.853l3.488-.707c.439 1.853 1.804 2.659 3.659 2.659 1.9 0 2.898-.903 2.898-2.072 0-.929-.436-1.487-1.9-1.78l-3.463-.66c-1.952-.415-4.292-1.487-4.292-4.681 0-2.927 2.391-4.973 6.218-4.973 3.317 0 5.828 1.804 6.46 4.705M154.533 35.583h5.876c-.414-1.561-1.585-2.243-2.878-2.243-1.22 0-2.61.73-2.998 2.243zm9.167 2.269h-9.264c.316 1.755 1.559 2.827 3.046 2.827.95 0 2.146-.123 3.024-1.61l2.878.61c-1.074 2.536-3.246 3.755-5.902 3.755-3.437 0-6.24-2.61-6.24-6.437 0-3.828 2.803-6.46 6.289-6.46 3.243 0 6.047 2.51 6.17 6.215v1.1zM174.573 30.828l-.17 3.097h-.707c-2.975 0-4.34 1.83-4.34 5.218v3.924h-3.22V30.902h3.22v2.217c.974-1.414 2.39-2.388 4.363-2.388.319 0 .561 0 .854.097M184.593 43.068h-3.414l-5.07-12.19h3.46l3.317 8.264 3.317-8.265h3.462zM191.786 43.07h3.217V30.9h-3.217V43.07zm3.56-15.802c0 1.074-.83 1.878-1.953 1.878-1.145 0-1.949-.804-1.949-1.878a1.92 1.92 0 011.95-1.927c1.122 0 1.951.904 1.951 1.927zM207.242 38.118l2.975.756c-.684 2.78-3.194 4.56-6.095 4.56-3.56 0-6.51-2.608-6.51-6.436 0-3.83 2.95-6.463 6.51-6.463 2.83 0 5.291 1.756 6.095 4.488l-3.097.876c-.44-1.707-1.585-2.412-2.998-2.412-2.024 0-3.389 1.437-3.389 3.511 0 2.095 1.365 3.486 3.389 3.486 1.413 0 2.559-.684 3.12-2.366M214.971 35.583h5.876c-.413-1.561-1.584-2.243-2.878-2.243-1.22 0-2.61.73-2.998 2.243zm9.168 2.269h-9.265c.317 1.755 1.56 2.827 3.047 2.827.949 0 2.146-.123 3.023-1.61l2.878.61c-1.074 2.536-3.245 3.755-5.901 3.755-3.437 0-6.241-2.61-6.241-6.437 0-3.828 2.804-6.46 6.29-6.46 3.242 0 6.046 2.51 6.169 6.215v1.1zM228.795 39.191c.169 1.243 1.243 1.659 2.511 1.659 1.194 0 1.9-.539 1.9-1.22 0-.439-.29-.878-1.339-1.097l-2.487-.51c-2.195-.465-3.437-1.708-3.437-3.463 0-2.342 1.9-4.024 4.973-4.024 2.878 0 4.876 1.485 5.291 3.608l-3.072.61c-.122-.977-.977-1.681-2.316-1.681-1.294 0-1.656.632-1.656 1.194 0 .39.143.803 1.094 1.023l2.901.635c2.149.462 3.195 1.804 3.195 3.437 0 2.682-2.171 4.072-5.34 4.072-2.682 0-5.142-1.048-5.46-3.585l3.242-.658z" fill="#173C6F" mask="url(#b)"/>
    </g>
  </g>
</svg>