<?xml version="1.0" encoding="UTF-8"?>
<svg width="160px" height="46px" viewBox="0 0 160 46" version="1.1" xmlns="http://www.w3.org/2000/svg" xmlns:xlink="http://www.w3.org/1999/xlink">
    <!-- Generator: Sketch 56.2 (81672) - https://sketch.com -->
    <title>cls-logo-full</title>
    <desc>Created with Sketch.</desc>
    <defs>
        <polygon id="path-1" points="0 44.851725 159.563274 44.851725 159.563274 0.1710234 0 0.1710234"></polygon>
    </defs>
    <g id="Design" stroke="none" stroke-width="1" fill="none" fill-rule="evenodd">
        <g id="Mobile---Header" transform="translate(-20.000000, -13.000000)">
            <g id="cls-logo-full" transform="translate(20.000000, 13.000000)">
                <g id="Group-51">
                    <path d="M46.1652261,38.6338507 L45.2281689,40.8571549 L47.0919482,40.8571549 L46.1652261,38.6338507 Z M48.1340798,43.3319641 L47.5794246,42.002341 L44.7510276,42.002341 L44.1877598,43.3319641 L42.7804514,43.3319641 L45.5537274,37.0979935 L46.7681122,37.0979935 L49.5396656,43.3319641 L48.1340798,43.3319641 Z" id="Fill-1" fill="#8269B4"></path>
                    <g id="Group-50" transform="translate(0.000000, 0.248822)">
                        <path d="M53.6963067,40.7674515 C53.6963067,39.9106578 53.0159067,39.3707604 52.3389518,39.3707604 C51.5741477,39.3707604 51.0005447,39.9106578 51.0005447,40.7674515 C51.0005447,41.6225685 51.5741477,42.1540824 52.3389518,42.1540824 C53.0159067,42.1540824 53.6963067,41.6225685 53.6963067,40.7674515 L53.6963067,40.7674515 Z M54.9571999,43.0829742 L53.6963067,43.0829742 L53.6963067,42.720807 C53.2949569,43.0377033 52.7695847,43.223817 52.1184677,43.223817 C50.9058055,43.223817 49.7775472,42.2278572 49.7775472,40.7674515 C49.7775472,39.3053691 50.9058055,38.3010258 52.1184677,38.3010258 C52.7695847,38.3010258 53.2949569,38.4871395 53.6963067,38.8124193 L53.6963067,36.3845577 L54.9571999,36.3845577 L54.9571999,43.0829742 Z" id="Fill-2" fill="#8269B4"></path>
                        <polygon id="Fill-4" fill="#8269B4" points="59.0959267 43.0836448 57.7575196 43.0836448 55.7679955 38.432479 57.1253505 38.432479 58.4258619 41.584675 59.7246507 38.432479 61.0820057 38.432479"></polygon>
                        <path d="M65.2879112,40.7674515 C65.2879112,39.9106578 64.6075112,39.3707604 63.9305563,39.3707604 C63.1657522,39.3707604 62.5938717,39.9106578 62.5938717,40.7674515 C62.5938717,41.6225685 63.1657522,42.1540824 63.9305563,42.1540824 C64.6075112,42.1540824 65.2879112,41.6225685 65.2879112,40.7674515 L65.2879112,40.7674515 Z M66.5488044,43.0829742 L65.2879112,43.0829742 L65.2879112,42.720807 C64.8865613,43.0377033 64.3611892,43.223817 63.7100722,43.223817 C62.4974099,43.223817 61.3691517,42.2278572 61.3691517,40.7674515 C61.3691517,39.3053691 62.4974099,38.3010258 63.7100722,38.3010258 C64.3611892,38.3010258 64.8865613,38.4871395 65.2879112,38.8124193 L65.2879112,38.4401919 L66.5488044,38.4401919 L66.5488044,43.0829742 Z" id="Fill-6" fill="#8269B4"></path>
                        <path d="M72.6086707,40.2550519 L72.6086707,43.0836448 L71.3477775,43.0836448 L71.3477775,40.5166171 C71.3477775,39.8643808 70.963653,39.4267621 70.3814373,39.4267621 C69.6648641,39.4267621 69.1963355,39.8928847 69.1963355,41.0280106 L69.1963355,43.0836448 L67.9337198,43.0836448 L67.9337198,38.4408625 L69.1963355,38.4408625 L69.1963355,38.8600375 C69.5684023,38.4978703 70.0644914,38.3016964 70.6966606,38.3016964 C71.8438666,38.3016964 72.6086707,39.1014823 72.6086707,40.2550519" id="Fill-8" fill="#8269B4"></path>
                        <path d="M77.2615732,41.1948423 L78.4294496,41.4832347 C78.1607347,42.5445858 77.1754466,43.2236493 76.0385757,43.2236493 C74.6433251,43.2236493 73.4875063,42.2276895 73.4875063,40.7672838 C73.4875063,39.3068781 74.6433251,38.3008581 76.0385757,38.3008581 C77.1478861,38.3008581 78.1125038,38.9715381 78.4294496,40.0127688 L77.2150648,40.3481088 C77.0428116,39.6958725 76.5932309,39.4276005 76.0385757,39.4276005 C75.2462111,39.4276005 74.7105038,39.9758814 74.7105038,40.7672838 C74.7105038,41.5670697 75.2462111,42.0985836 76.0385757,42.0985836 C76.5932309,42.0985836 77.0428116,41.8370184 77.2615732,41.1948423" id="Fill-10" fill="#8269B4"></path>
                        <mask id="mask-2" fill="white">
                            <use xlink:href="#path-1"></use>
                        </mask>
                        <g id="Clip-13"></g>
                        <path d="M79.496558,43.0828065 L80.7574511,43.0828065 L80.7574511,38.4400242 L79.496558,38.4400242 L79.496558,43.0828065 Z M80.8935311,37.05507 C80.8935311,37.4641848 80.5679727,37.7710209 80.1287271,37.7710209 C79.6791463,37.7710209 79.363923,37.4641848 79.363923,37.05507 C79.363923,36.6643989 79.6791463,36.3189987 80.1287271,36.3189987 C80.5679727,36.3189987 80.8935311,36.6643989 80.8935311,37.05507 L80.8935311,37.05507 Z" id="Fill-12" fill="#8269B4" mask="url(#mask-2)"></path>
                        <path d="M86.8851852,40.2550519 L86.8851852,43.0836448 L85.6242921,43.0836448 L85.6242921,40.5166171 C85.6242921,39.8643808 85.24189,39.4267621 84.6579518,39.4267621 C83.9413786,39.4267621 83.4745726,39.8928847 83.4745726,41.0280106 L83.4745726,43.0836448 L82.2119569,43.0836448 L82.2119569,38.4408625 L83.4745726,38.4408625 L83.4745726,38.8600375 C83.8449169,38.4978703 84.3427285,38.3016964 84.9748976,38.3016964 C86.1221037,38.3016964 86.8851852,39.1014823 86.8851852,40.2550519" id="Fill-14" fill="#8269B4" mask="url(#mask-2)"></path>
                        <path d="M91.5783949,40.5439474 C91.5783949,39.8179363 90.9668962,39.33337 90.2968314,39.33337 C89.54064,39.33337 88.9773722,39.8179363 88.9773722,40.5439474 C88.9773722,41.2699585 89.54064,41.7528481 90.2968314,41.7528481 C90.9668962,41.7528481 91.5783949,41.2699585 91.5783949,40.5439474 L91.5783949,40.5439474 Z M92.8013924,42.6381457 C92.8013924,44.0599873 91.7885438,44.8513897 90.250323,44.8513897 C89.1410127,44.8513897 88.3365904,44.4691021 87.9266278,43.826926 L88.9498116,43.0740877 C89.3218785,43.5301501 89.6284891,43.7447677 90.250323,43.7447677 C91.0513003,43.7447677 91.5783949,43.2602014 91.5783949,42.4503553 L91.5783949,42.3765805 C91.2235534,42.6565894 90.7377995,42.804139 90.0780699,42.804139 C88.8826329,42.804139 87.7647099,41.8182394 87.7647099,40.5439474 C87.7647099,39.2780389 88.8826329,38.3021995 90.0780699,38.3021995 C90.7377995,38.3021995 91.2235534,38.4598093 91.5783949,38.729758 L91.5783949,38.4413656 L92.7910572,38.4413656 L92.8013924,42.6381457 Z" id="Fill-15" fill="#8269B4" mask="url(#mask-2)"></path>
                        <path d="M100.971705,40.8787843 C100.971705,42.2369113 99.9778037,43.2228109 98.4878139,43.2228109 C97.1115111,43.2228109 96.2312974,42.3861376 96.0314837,41.1856204 L97.2648164,40.9441756 C97.3492205,41.5947352 97.7609055,42.087685 98.4878139,42.087685 C99.1940518,42.087685 99.6729156,41.567908 99.6729156,40.8787843 L99.6729156,36.8496742 L100.971705,36.8496742 L100.971705,40.8787843 Z" id="Fill-16" fill="#8269B4" mask="url(#mask-2)"></path>
                        <path d="M106.849155,43.0836449 L105.588262,43.0836449 L105.588262,42.6644699 C105.216195,43.0283138 104.718383,43.222811 104.086214,43.222811 C102.939008,43.222811 102.175926,42.4230251 102.175926,41.2694555 L102.175926,38.4408626 L103.438542,38.4408626 L103.438542,41.009567 C103.438542,41.6601266 103.819222,42.0977453 104.40316,42.0977453 C105.119733,42.0977453 105.588262,41.6316227 105.588262,40.4981735 L105.588262,38.4408626 L106.849155,38.4408626 L106.849155,43.0836449 Z" id="Fill-17" fill="#8269B4" mask="url(#mask-2)"></path>
                        <path d="M109.056062,41.6042924 C109.123241,42.0787985 109.543539,42.2364083 110.04135,42.2364083 C110.509879,42.2364083 110.787207,42.0318509 110.787207,41.7719624 C110.787207,41.6042924 110.671797,41.4366224 110.260112,41.3527874 L109.286882,41.1582902 C108.425616,40.98056 107.938139,40.5060539 107.938139,39.8370506 C107.938139,38.9433695 108.683995,38.3011934 109.888045,38.3011934 C111.016303,38.3011934 111.800055,38.8695947 111.961973,39.6794408 L110.757924,39.9108254 C110.709693,39.538598 110.375522,39.2686493 109.850149,39.2686493 C109.343725,39.2686493 109.199032,39.5100941 109.199032,39.7247117 C109.199032,39.873938 109.257598,40.0332245 109.629665,40.1153828 L110.766536,40.3568276 C111.607132,40.5345578 112.020539,41.0459513 112.020539,41.6696837 C112.020539,42.6924707 111.169609,43.2239846 109.925941,43.2239846 C108.875196,43.2239846 107.908856,42.8232533 107.784834,41.8557974 L109.056062,41.6042924 Z" id="Fill-18" fill="#8269B4" mask="url(#mask-2)"></path>
                        <path d="M116.511351,42.8789198 C116.01354,43.1388083 115.670756,43.22432 115.267684,43.22432 C114.141148,43.22432 113.393569,42.6458585 113.393569,41.3715665 L113.393569,39.4467149 L112.372108,39.4467149 L112.372108,38.4406949 L113.393569,38.4406949 L113.393569,37.0356203 L114.657907,37.0356203 L114.657907,38.4406949 L116.215076,38.4406949 L116.215076,39.4467149 L114.657907,39.4467149 L114.657907,41.279348 C114.657907,41.8376891 114.933513,42.0791339 115.35381,42.0791339 C115.574294,42.0791339 115.899853,41.9852387 116.147897,41.8561328 L116.511351,42.8789198 Z" id="Fill-19" fill="#8269B4" mask="url(#mask-2)"></path>
                        <path d="M117.304405,43.0828065 L118.565298,43.0828065 L118.565298,38.4400242 L117.304405,38.4400242 L117.304405,43.0828065 Z M118.699656,37.05507 C118.699656,37.4641848 118.374097,37.7710209 117.934852,37.7710209 C117.485271,37.7710209 117.168325,37.4641848 117.168325,37.05507 C117.168325,36.6643989 117.485271,36.3189987 117.934852,36.3189987 C118.374097,36.3189987 118.699656,36.6643989 118.699656,37.05507 L118.699656,37.05507 Z" id="Fill-20" fill="#8269B4" mask="url(#mask-2)"></path>
                        <path d="M123.409918,41.1948423 L124.577795,41.4832347 C124.30908,42.5445858 123.323792,43.2236493 122.186921,43.2236493 C120.79167,43.2236493 119.635852,42.2276895 119.635852,40.7672838 C119.635852,39.3068781 120.79167,38.3008581 122.186921,38.3008581 C123.296231,38.3008581 124.260849,38.9715381 124.577795,40.0127688 L123.36341,40.3481088 C123.191157,39.6958725 122.741576,39.4276005 122.186921,39.4276005 C121.394556,39.4276005 120.858849,39.9758814 120.858849,40.7672838 C120.858849,41.5670697 121.394556,42.0985836 122.186921,42.0985836 C122.741576,42.0985836 123.191157,41.8370184 123.409918,41.1948423" id="Fill-21" fill="#8269B4" mask="url(#mask-2)"></path>
                        <path d="M126.488255,40.2272187 L128.79128,40.2272187 C128.627639,39.6319902 128.171168,39.3721017 127.663021,39.3721017 C127.184158,39.3721017 126.639838,39.6504339 126.488255,40.2272187 L126.488255,40.2272187 Z M130.081456,41.0923959 L126.450359,41.0923959 C126.574381,41.7630759 127.060135,42.1721907 127.644074,42.1721907 C128.017863,42.1721907 128.484669,42.1252431 128.829175,41.5568418 L129.957434,41.7915798 C129.537136,42.7590357 128.684483,43.2234816 127.644074,43.2234816 C126.297054,43.2234816 125.196356,42.2275218 125.196356,40.7671161 C125.196356,39.3067104 126.297054,38.3023671 127.663021,38.3023671 C128.93425,38.3023671 130.034947,39.2597628 130.081456,40.6748976 L130.081456,41.0923959 Z" id="Fill-22" fill="#8269B4" mask="url(#mask-2)"></path>
                        <path d="M14.0510351,19.1841307 C11.4637926,19.1841307 9.36574906,17.1435868 9.36574906,14.6251834 C9.36574906,12.10678 11.4637926,10.0645594 14.0510351,10.0645594 L19.7543374,10.0645594 L19.7543374,0.94834152 L14.0510351,0.94834152 C6.29103008,0.94834152 0.000344506329,7.07164992 0.000344506329,14.6251834 C0.000344506329,22.1787169 6.29103008,28.3003486 14.0510351,28.3003486 L19.7543374,28.3003486 L19.7543374,19.1841307 L14.0510351,19.1841307 Z" id="Fill-23" fill="#173C6F" mask="url(#mask-2)"></path>
                        <polygon id="Fill-24" fill="#8269B4" mask="url(#mask-2)" points="33.802961 14.6246804 33.802961 14.6246804 19.7539929 0.94783851 33.802961 0.94783851"></polygon>
                        <polygon id="Fill-25" fill="#FF8C6E" mask="url(#mask-2)" points="19.7536484 28.301187 19.7536484 28.301187 33.8026165 14.6243451 33.8026165 28.301187"></polygon>
                        <path d="M51.2773555,7.33254444 L53.4494679,7.76513304 C52.9068705,10.5199511 50.6675793,12.0591617 48.0166031,12.0591617 C44.7765211,12.0591617 42.2237292,9.60782634 42.2237292,6.45060024 C42.2237292,3.31181784 44.7765211,0.84371544 48.0166031,0.84371544 C50.6675793,0.84371544 52.8913677,2.39801634 53.4494679,4.97678094 L51.2773555,5.57033274 C50.8656705,3.71087244 49.5479338,2.89431954 48.0166031,2.89431954 C46.0425819,2.89431954 44.4802457,4.41676314 44.4802457,6.45060024 C44.4802457,8.48611404 46.0425819,10.0236479 48.0166031,10.0236479 C49.5479338,10.0236479 50.8656705,9.20709504 51.2773555,7.33254444" id="Fill-26" fill="#173C6F" mask="url(#mask-2)"></path>
                        <path d="M61.3987792,7.82867997 C61.3987792,6.33809367 60.2154,5.44105917 59.0785291,5.44105917 C57.8934273,5.44105917 56.7083256,6.33809367 56.7083256,7.82867997 C56.7083256,9.31926627 57.8934273,10.2163008 59.0785291,10.2163008 C60.2154,10.2163008 61.3987792,9.31926627 61.3987792,7.82867997 M63.507158,7.82867997 C63.507158,10.34373 61.4814608,12.0271368 59.0785291,12.0271368 C56.6256441,12.0271368 54.6016694,10.34373 54.6016694,7.82867997 C54.6016694,5.31362997 56.6256441,3.63189987 59.0785291,3.63189987 C61.4814608,3.63189987 63.507158,5.31362997 63.507158,7.82867997" id="Fill-27" fill="#173C6F" mask="url(#mask-2)"></path>
                        <path d="M73.2008771,6.94774179 L73.2008771,11.8185553 L71.0270421,11.8185553 L71.0270421,7.39709739 C71.0270421,6.27538509 70.369035,5.52087009 69.3647991,5.52087009 C68.1314664,5.52087009 67.3253216,6.32233269 67.3253216,8.27736489 L67.3253216,11.8185553 L65.1514867,11.8185553 L65.1514867,3.82404969 L67.3253216,3.82404969 L67.3253216,4.54335399 C67.9661034,3.91962159 68.8222016,3.58260489 69.9091191,3.58260489 C71.8831404,3.58260489 73.2008771,4.96085229 73.2008771,6.94774179" id="Fill-28" fill="#173C6F" mask="url(#mask-2)"></path>
                        <path d="M83.3409041,6.94774179 L83.3409041,11.8185553 L81.1670692,11.8185553 L81.1670692,7.39709739 C81.1670692,6.27538509 80.5073395,5.52087009 79.5048261,5.52087009 C78.2714935,5.52087009 77.4636261,6.32233269 77.4636261,8.27736489 L77.4636261,11.8185553 L75.2915137,11.8185553 L75.2915137,3.82404969 L77.4636261,3.82404969 L77.4636261,4.54335399 C78.1061304,3.91962159 78.9622287,3.58260489 80.0474236,3.58260489 C82.0231674,3.58260489 83.3409041,4.96085229 83.3409041,6.94774179" id="Fill-29" fill="#173C6F" mask="url(#mask-2)"></path>
                        <path d="M86.9928434,6.89945283 L90.9615564,6.89945283 C90.6807837,5.87498913 89.8918642,5.42563353 89.0185407,5.42563353 C88.1951705,5.42563353 87.2563908,5.90684643 86.9928434,6.89945283 L86.9928434,6.89945283 Z M93.1836222,8.39003913 L86.9273872,8.39003913 C87.1427037,9.54360873 87.9815766,10.2494994 88.9858126,10.2494994 C89.6265943,10.2494994 90.4344617,10.1690178 91.0270126,9.19150173 L92.9700283,9.59055633 C92.2448424,11.2588728 90.778968,12.0586587 88.9858126,12.0586587 C86.6655624,12.0586587 84.7707776,10.3450713 84.7707776,7.82834463 C84.7707776,5.31329463 86.6655624,3.58294023 89.0185407,3.58294023 C91.2078784,3.58294023 93.1009407,5.23281303 93.1836222,7.66905813 L93.1836222,8.39003913 Z" id="Fill-30" fill="#173C6F" mask="url(#mask-2)"></path>
                        <path d="M101.001849,8.56642797 L103.008598,9.06273117 C102.54696,10.8886575 100.851989,12.0589941 98.8934701,12.0589941 C96.4905384,12.0589941 94.4992918,10.3454067 94.4992918,7.82867997 C94.4992918,5.31362997 96.4905384,3.58327557 98.8934701,3.58327557 C100.803758,3.58327557 102.466001,4.73684517 103.008598,6.53091417 L100.919167,7.10769897 C100.621169,5.98598667 99.8494751,5.52154077 98.8934701,5.52154077 C97.5275025,5.52154077 96.6059481,6.46719957 96.6059481,7.82867997 C96.6059481,9.20692737 97.5275025,10.1207289 98.8934701,10.1207289 C99.8494751,10.1207289 100.621169,9.67137327 101.001849,8.56642797" id="Fill-31" fill="#173C6F" mask="url(#mask-2)"></path>
                        <path d="M110.630628,11.466113 C109.77453,11.9154686 109.181979,12.0596648 108.491244,12.0596648 C106.548228,12.0596648 105.264942,11.0653817 105.264942,8.87058135 L105.264942,5.55406875 L103.502793,5.55406875 L103.502793,3.82371435 L105.264942,3.82371435 L105.264942,1.40423625 L107.437055,1.40423625 L107.437055,3.82371435 L110.119037,3.82371435 L110.119037,5.55406875 L107.437055,5.55406875 L107.437055,8.70961815 C107.437055,9.67204395 107.914196,10.0878656 108.639382,10.0878656 C109.016616,10.0878656 109.576439,9.92857905 110.005349,9.70390125 L110.630628,11.466113 Z" id="Fill-32" fill="#173C6F" mask="url(#mask-2)"></path>
                        <path d="M111.914604,11.8173816 L114.086716,11.8173816 L114.086716,3.822876 L111.914604,3.822876 L111.914604,11.8173816 Z M114.315813,1.4369319 C114.315813,2.1411459 113.757712,2.6693064 112.999798,2.6693064 C112.226382,2.6693064 111.683784,2.1411459 111.683784,1.4369319 C111.683784,0.7628985 112.226382,0.1710234 112.999798,0.1710234 C113.757712,0.1710234 114.315813,0.7628985 114.315813,1.4369319 L114.315813,1.4369319 Z" id="Fill-33" fill="#173C6F" mask="url(#mask-2)"></path>
                        <path d="M122.348494,8.56642797 L124.356966,9.06273117 C123.895328,10.8886575 122.200357,12.0589941 120.241838,12.0589941 C117.838907,12.0589941 115.84766,10.3454067 115.84766,7.82867997 C115.84766,5.31362997 117.838907,3.58327557 120.241838,3.58327557 C122.152126,3.58327557 123.814369,4.73684517 124.356966,6.53091417 L122.265813,7.10769897 C121.969538,5.98598667 121.196121,5.52154077 120.241838,5.52154077 C118.875871,5.52154077 117.954316,6.46719957 117.954316,7.82867997 C117.954316,9.20692737 118.875871,10.1207289 120.241838,10.1207289 C121.196121,10.1207289 121.969538,9.67137327 122.348494,8.56642797" id="Fill-34" fill="#173C6F" mask="url(#mask-2)"></path>
                        <path d="M133.837608,11.81822 L131.663773,11.81822 L131.663773,11.097239 C131.022992,11.7226481 130.166893,12.0596648 129.079976,12.0596648 C127.105955,12.0596648 125.788218,10.6814174 125.788218,8.69452785 L125.788218,3.82371435 L127.962053,3.82371435 L127.962053,8.24517225 C127.962053,9.36688455 128.62006,10.1197229 129.624296,10.1197229 C130.859351,10.1197229 131.663773,9.31993695 131.663773,7.36490475 L131.663773,3.82371435 L133.837608,3.82371435 L133.837608,11.81822 Z" id="Fill-35" fill="#173C6F" mask="url(#mask-2)"></path>
                        <path d="M142.117301,11.466113 C141.261203,11.9154686 140.668652,12.0596648 139.977917,12.0596648 C138.034901,12.0596648 136.751615,11.0653817 136.751615,8.87058135 L136.751615,5.55406875 L134.989465,5.55406875 L134.989465,3.82371435 L136.751615,3.82371435 L136.751615,1.40423625 L138.923727,1.40423625 L138.923727,3.82371435 L141.605709,3.82371435 L141.605709,5.55406875 L138.923727,5.55406875 L138.923727,8.70961815 C138.923727,9.67204395 139.400869,10.0878656 140.126055,10.0878656 C140.503289,10.0878656 141.063112,9.92857905 141.492022,9.70390125 L142.117301,11.466113 Z" id="Fill-36" fill="#173C6F" mask="url(#mask-2)"></path>
                        <polygon id="Fill-37" fill="#173C6F" mask="url(#mask-2)" points="51.3092224 28.3020253 43.3769642 28.3020253 43.3769642 17.5677919 45.6145328 17.5677919 45.6145328 26.3319028 51.3092224 26.3319028"></polygon>
                        <path d="M54.6836619,23.3832582 L58.6506523,23.3832582 C58.3716021,22.3571178 57.5809601,21.9094389 56.7093591,21.9094389 C55.8842664,21.9094389 54.9472092,22.3889751 54.6836619,23.3832582 L54.6836619,23.3832582 Z M60.8727181,24.8738445 L54.6182057,24.8738445 C54.8317996,26.0274141 55.6706725,26.7316281 56.6749085,26.7316281 C57.3174128,26.7316281 58.1235576,26.6511465 58.7161085,25.6736304 L60.6591242,26.0743617 C59.9339383,27.7410015 58.4697864,28.5424641 56.6749085,28.5424641 C54.3546583,28.5424641 52.4615961,26.8272 52.4615961,24.31215 C52.4615961,21.7971 54.3546583,20.0667456 56.7093591,20.0667456 C58.8969743,20.0667456 60.7900366,21.7166184 60.8727181,24.1511868 L60.8727181,24.8738445 Z" id="Fill-38" fill="#173C6F" mask="url(#mask-2)"></path>
                        <path d="M68.7565732,23.9276827 C68.7565732,22.6768645 67.7041063,21.8452213 66.5517327,21.8452213 C65.2512213,21.8452213 64.2797134,22.6768645 64.2797134,23.9276827 C64.2797134,25.1785009 65.2512213,26.0101441 66.5517327,26.0101441 C67.7041063,26.0101441 68.7565732,25.1785009 68.7565732,23.9276827 L68.7565732,23.9276827 Z M70.8649519,27.5325877 C70.8649519,29.9839231 69.1183048,31.3454035 66.4690511,31.3454035 C64.5587635,31.3454035 63.1772932,30.6898138 62.4693327,29.5848685 L64.22976,28.285426 C64.8722643,29.0701216 65.399359,29.4389956 66.4690511,29.4389956 C67.8522441,29.4389956 68.7565732,28.6073524 68.7565732,27.212338 L68.7565732,27.0832321 C68.146797,27.564445 67.3079241,27.8209801 66.1727757,27.8209801 C64.1160729,27.8209801 62.18856,26.122483 62.18856,23.9276827 C62.18856,21.7479727 64.1160729,20.0662426 66.1727757,20.0662426 C67.3079241,20.0662426 68.146797,20.337868 68.7565732,20.8039906 L68.7565732,20.3060107 L70.8477266,20.3060107 L70.8649519,27.5325877 Z" id="Fill-39" fill="#173C6F" mask="url(#mask-2)"></path>
                        <path d="M79.2583318,24.3124853 C79.2583318,22.838666 78.0887329,21.9080975 76.9208564,21.9080975 C75.6048422,21.9080975 74.6161091,22.838666 74.6161091,24.3124853 C74.6161091,25.7863046 75.6048422,26.7001061 76.9208564,26.7001061 C78.0887329,26.7001061 79.2583318,25.7863046 79.2583318,24.3124853 L79.2583318,24.3124853 Z M81.4321668,28.3013546 L79.2583318,28.3013546 L79.2583318,27.6759455 C78.5675967,28.2225497 77.661545,28.5411227 76.5418994,28.5411227 C74.4524686,28.5411227 72.5094529,26.8275353 72.5094529,24.3124853 C72.5094529,21.7974353 74.4524686,20.0670809 76.5418994,20.0670809 C77.661545,20.0670809 78.5675967,20.3873306 79.2583318,20.9473484 L79.2583318,20.306849 L81.4321668,20.306849 L81.4321668,28.3013546 Z" id="Fill-40" fill="#173C6F" mask="url(#mask-2)"></path>
                        <polygon id="Fill-41" fill="#173C6F" mask="url(#mask-2)" points="83.7339858 28.3010193 85.9078208 28.3010193 85.9078208 16.7653233 83.7339858 16.7653233"></polygon>
                        <path d="M100.621686,20.4186849 L98.3841175,20.8680405 C98.2187544,19.8586671 97.3144253,19.2014007 96.2102825,19.2014007 C95.0923595,19.2014007 94.4154046,19.8100428 94.4154046,20.5310238 C94.4154046,21.0759513 94.6634491,21.4599156 95.5195473,21.6208788 L97.8897509,22.0853247 C99.6846289,22.4541987 100.787049,23.4954294 100.787049,25.1620692 C100.787049,27.2445306 99.0248992,28.5422964 96.4083737,28.5422964 C94.1036263,28.5422964 92.0796516,27.5010657 91.798879,25.353213 L94.1535797,24.8887671 C94.4498552,26.1060513 95.3714096,26.6358885 96.6236901,26.6358885 C97.9069762,26.6358885 98.5804861,26.0423367 98.5804861,25.2744081 C98.5804861,24.6640893 98.2859332,24.296892 97.2972,24.1040715 L94.9597246,23.6714829 C93.6419878,23.3981808 92.0624263,22.6939668 92.0624263,20.5947384 C92.0624263,18.6715635 93.6764385,17.3268501 96.2602359,17.3268501 C98.4995271,17.3268501 100.194498,18.512277 100.621686,20.4186849" id="Fill-42" fill="#173C6F" mask="url(#mask-2)"></path>
                        <path d="M104.325818,23.3832582 L108.292809,23.3832582 C108.013758,22.3571178 107.223116,21.9094389 106.349793,21.9094389 C105.526423,21.9094389 104.587643,22.3889751 104.325818,23.3832582 L104.325818,23.3832582 Z M110.514874,24.8738445 L104.260362,24.8738445 C104.473956,26.0274141 105.312829,26.7316281 106.317065,26.7316281 C106.957846,26.7316281 107.765714,26.6511465 108.358265,25.6736304 L110.30128,26.0743617 C109.576095,27.7410015 108.11022,28.5424641 106.317065,28.5424641 C103.996815,28.5424641 102.103752,26.8272 102.103752,24.31215 C102.103752,21.7971 103.996815,20.0667456 106.349793,20.0667456 C108.539131,20.0667456 110.432193,21.7166184 110.514874,24.1511868 L110.514874,24.8738445 Z" id="Fill-43" fill="#173C6F" mask="url(#mask-2)"></path>
                        <path d="M117.855443,20.2582247 L117.740033,22.2937385 L117.262892,22.2937385 C115.25442,22.2937385 114.332866,23.4959324 114.332866,25.72259 L114.332866,28.3013546 L112.159031,28.3013546 L112.159031,20.306849 L114.332866,20.306849 L114.332866,21.7639013 C114.990873,20.8350095 115.946878,20.1945101 117.278395,20.1945101 C117.493711,20.1945101 117.657352,20.1945101 117.855443,20.2582247" id="Fill-44" fill="#173C6F" mask="url(#mask-2)"></path>
                        <polygon id="Fill-45" fill="#173C6F" mask="url(#mask-2)" points="124.61948 28.3020253 122.314733 28.3020253 118.892062 20.2907527 121.227815 20.2907527 123.467107 25.721584 125.706398 20.2907527 128.043873 20.2907527"></polygon>
                        <path d="M129.475814,28.302696 L131.647926,28.302696 L131.647926,20.3065137 L129.475814,20.3065137 L129.475814,28.302696 Z M131.878745,17.9188929 C131.878745,18.6247836 131.318923,19.1529441 130.561009,19.1529441 C129.787592,19.1529441 129.244994,18.6247836 129.244994,17.9188929 C129.244994,17.2465362 129.787592,16.6529844 130.561009,16.6529844 C131.318923,16.6529844 131.878745,17.2465362 131.878745,17.9188929 L131.878745,17.9188929 Z" id="Fill-46" fill="#173C6F" mask="url(#mask-2)"></path>
                        <path d="M139.910221,25.0492273 L141.918693,25.5455305 C141.457055,27.3731335 139.762084,28.5417934 137.803565,28.5417934 C135.400634,28.5417934 133.409387,26.828206 133.409387,24.313156 C133.409387,21.7964293 135.400634,20.0660749 137.803565,20.0660749 C139.713853,20.0660749 141.376096,21.2196445 141.918693,23.0153902 L139.82754,23.5904983 C139.531264,22.468786 138.757848,22.0060168 137.803565,22.0060168 C136.437598,22.0060168 135.516043,22.9499989 135.516043,24.313156 C135.516043,25.6897267 136.437598,26.6035282 137.803565,26.6035282 C138.757848,26.6035282 139.531264,26.1541726 139.910221,25.0492273" id="Fill-47" fill="#173C6F" mask="url(#mask-2)"></path>
                        <path d="M145.128286,23.3832582 L149.095277,23.3832582 C148.816227,22.3571178 148.025585,21.9094389 147.152261,21.9094389 C146.328891,21.9094389 145.390111,22.3889751 145.128286,23.3832582 L145.128286,23.3832582 Z M151.317343,24.8738445 L145.06283,24.8738445 C145.276424,26.0274141 146.115297,26.7316281 147.119533,26.7316281 C147.760315,26.7316281 148.568182,26.6511465 149.160733,25.6736304 L151.103749,26.0743617 C150.378563,27.7410015 148.912689,28.5424641 147.119533,28.5424641 C144.799283,28.5424641 142.906221,26.8272 142.906221,24.31215 C142.906221,21.7971 144.799283,20.0667456 147.152261,20.0667456 C149.341599,20.0667456 151.234661,21.7166184 151.317343,24.1511868 L151.317343,24.8738445 Z" id="Fill-48" fill="#173C6F" mask="url(#mask-2)"></path>
                        <path d="M154.460963,25.754112 C154.57465,26.5706649 155.299836,26.843967 156.155934,26.843967 C156.962079,26.843967 157.43922,26.4901833 157.43922,26.0425044 C157.43922,25.754112 157.242852,25.4657196 156.534891,25.3215234 L154.855423,24.9861834 C153.374045,24.681024 152.535173,23.8644711 152.535173,22.7109015 C152.535173,21.1716909 153.818459,20.0667456 155.892387,20.0667456 C157.835402,20.0667456 159.184145,21.042585 159.464917,22.4375994 L157.390989,22.8383307 C157.308308,22.1961546 156.73126,21.7333854 155.826931,21.7333854 C154.953607,21.7333854 154.709007,22.149207 154.709007,22.518081 C154.709007,22.7746161 154.805469,23.0462415 155.447974,23.1904377 L157.406492,23.607936 C158.856864,23.9114187 159.563102,24.7933629 159.563102,25.8664509 C159.563102,27.6286626 158.097227,28.5424641 155.957843,28.5424641 C154.147462,28.5424641 152.486942,27.8533404 152.271625,26.1867006 L154.460963,25.754112 Z" id="Fill-49" fill="#173C6F" mask="url(#mask-2)"></path>
                    </g>
                </g>
            </g>
        </g>
    </g>
</svg>