<?xml version="1.0" encoding="UTF-8"?>
<svg width="237px" height="69px" viewBox="0 0 237 69" version="1.1" xmlns="http://www.w3.org/2000/svg" xmlns:xlink="http://www.w3.org/1999/xlink">
    <!-- Generator: Sketch 56.2 (81672) - https://sketch.com -->
    <title>CLS_Logo_Tagline</title>
    <desc>Created with Sketch.</desc>
    <defs>
        <polygon id="path-1" points="0 68.252625 236.3531 68.252625 236.3531 0.260253 0 0.260253"></polygon>
    </defs>
    <g id="Design" stroke="none" stroke-width="1" fill="none" fill-rule="evenodd">
        <g id="Header-(Expanded,-default)" transform="translate(-130.000000, -22.000000)">
            <g id="CLS_Logo_Tagline" transform="translate(130.000000, 22.000000)">
                <g id="Group-51">
                    <path d="M68.3822412,58.7906424 L66.9942252,62.1739314 L69.7549482,62.1739314 L68.3822412,58.7906424 Z M71.2986057,65.9399454 L70.4770227,63.9166059 L66.2874597,63.9166059 L65.4531192,65.9399454 L63.3685437,65.9399454 L67.4764587,56.4534684 L69.2752662,56.4534684 L73.3806297,65.9399454 L71.2986057,65.9399454 Z" id="Fill-1" fill="#8269B4"></path>
                    <g id="Group-50" transform="translate(0.000000, 0.378643)">
                        <path d="M79.5376543,62.0374262 C79.5376543,60.7336097 78.5298118,59.9120267 77.5270723,59.9120267 C76.3942063,59.9120267 75.5445568,60.7336097 75.5445568,62.0374262 C75.5445568,63.3386912 76.3942063,64.1475167 77.5270723,64.1475167 C78.5298118,64.1475167 79.5376543,63.3386912 79.5376543,62.0374262 L79.5376543,62.0374262 Z M81.4053523,65.5610477 L79.5376543,65.5610477 L79.5376543,65.0099237 C78.9431548,65.4921572 78.1649473,65.7753737 77.2004803,65.7753737 C75.4042243,65.7753737 73.7329918,64.2597827 73.7329918,62.0374262 C73.7329918,59.8125182 75.4042243,58.2841697 77.2004803,58.2841697 C78.1649473,58.2841697 78.9431548,58.5673862 79.5376543,59.0623772 L79.5376543,55.3678052 L81.4053523,55.3678052 L81.4053523,65.5610477 Z" id="Fill-2" fill="#8269B4"></path>
                        <polygon id="Fill-4" fill="#8269B4" points="87.5358414 65.5620682 85.5533259 65.5620682 82.6063434 58.4842072 84.6169254 58.4842072 86.5433079 63.2810272 88.4671389 58.4842072 90.4777209 58.4842072"></polygon>
                        <path d="M96.7077185,62.0374262 C96.7077185,60.7336097 95.699876,59.9120267 94.6971365,59.9120267 C93.5642705,59.9120267 92.7171725,60.7336097 92.7171725,62.0374262 C92.7171725,63.3386912 93.5642705,64.1475167 94.6971365,64.1475167 C95.699876,64.1475167 96.7077185,63.3386912 96.7077185,62.0374262 L96.7077185,62.0374262 Z M98.5754165,65.5610477 L96.7077185,65.5610477 L96.7077185,65.0099237 C96.113219,65.4921572 95.3350115,65.7753737 94.3705445,65.7753737 C92.5742885,65.7753737 90.903056,64.2597827 90.903056,62.0374262 C90.903056,59.8125182 92.5742885,58.2841697 94.3705445,58.2841697 C95.3350115,58.2841697 96.113219,58.5673862 96.7077185,59.0623772 L96.7077185,58.4959442 L98.5754165,58.4959442 L98.5754165,65.5610477 Z" id="Fill-6" fill="#8269B4"></path>
                        <path d="M107.551593,61.2576877 L107.551593,65.5620682 L105.683895,65.5620682 L105.683895,61.6557217 C105.683895,60.6631882 105.114911,59.9972467 104.252504,59.9972467 C103.19108,59.9972467 102.497072,60.7065637 102.497072,62.4339292 L102.497072,65.5620682 L100.626822,65.5620682 L100.626822,58.4969647 L102.497072,58.4969647 L102.497072,59.1348397 C103.048196,58.5837157 103.783028,58.2851902 104.719428,58.2851902 C106.418727,58.2851902 107.551593,59.5022557 107.551593,61.2576877" id="Fill-8" fill="#8269B4"></path>
                        <path d="M114.443705,62.6878035 L116.173622,63.1266615 C115.775588,64.741761 114.31613,65.7751185 112.63214,65.7751185 C110.565425,65.7751185 108.853369,64.2595275 108.853369,62.037171 C108.853369,59.8148145 110.565425,58.2839145 112.63214,58.2839145 C114.275306,58.2839145 115.704146,59.3045145 116.173622,60.888996 L114.374815,61.399296 C114.119665,60.4067625 113.453723,59.9985225 112.63214,59.9985225 C111.45845,59.9985225 110.664934,60.832863 110.664934,62.037171 C110.664934,63.2542365 111.45845,64.063062 112.63214,64.063062 C113.453723,64.063062 114.119665,63.665028 114.443705,62.6878035" id="Fill-10" fill="#8269B4"></path>
                        <mask id="mask-2" fill="white">
                            <use xlink:href="#path-1"></use>
                        </mask>
                        <g id="Clip-13"></g>
                        <path d="M117.754277,65.5607925 L119.621975,65.5607925 L119.621975,58.495689 L117.754277,58.495689 L117.754277,65.5607925 Z M119.823543,56.38815 C119.823543,57.010716 119.34131,57.4776405 118.690677,57.4776405 C118.024736,57.4776405 117.557811,57.010716 117.557811,56.38815 C117.557811,55.7936505 118.024736,55.2680415 118.690677,55.2680415 C119.34131,55.2680415 119.823543,55.7936505 119.823543,56.38815 L119.823543,56.38815 Z" id="Fill-12" fill="#8269B4" mask="url(#mask-2)"></path>
                        <path d="M128.698681,61.2576877 L128.698681,65.5620682 L126.830983,65.5620682 L126.830983,61.6557217 C126.830983,60.6631882 126.26455,59.9972467 125.399591,59.9972467 C124.338167,59.9972467 123.646711,60.7065637 123.646711,62.4339292 L123.646711,65.5620682 L121.776461,65.5620682 L121.776461,58.4969647 L123.646711,58.4969647 L123.646711,59.1348397 C124.195283,58.5837157 124.932667,58.2851902 125.869067,58.2851902 C127.568366,58.2851902 128.698681,59.5022557 128.698681,61.2576877" id="Fill-14" fill="#8269B4" mask="url(#mask-2)"></path>
                        <path d="M135.650498,61.6973112 C135.650498,60.5925117 134.744715,59.8551282 133.752182,59.8551282 C132.632073,59.8551282 131.797733,60.5925117 131.797733,61.6973112 C131.797733,62.8021107 132.632073,63.5369427 133.752182,63.5369427 C134.744715,63.5369427 135.650498,62.8021107 135.650498,61.6973112 L135.650498,61.6973112 Z M137.462063,64.8841347 C137.462063,67.0478067 135.961781,68.2521147 133.683291,68.2521147 C132.040125,68.2521147 130.848575,67.6703727 130.241318,66.6931482 L131.756909,65.5475247 C132.308033,66.2415327 132.7622,66.5681247 133.683291,66.5681247 C134.869739,66.5681247 135.650498,65.8307412 135.650498,64.5983667 L135.650498,64.4861007 C135.124889,64.9122012 134.405366,65.1367332 133.428141,65.1367332 C131.6574,65.1367332 130.001477,63.6364512 130.001477,61.6973112 C130.001477,59.7709287 131.6574,58.2859557 133.428141,58.2859557 C134.405366,58.2859557 135.124889,58.5257967 135.650498,58.9365882 L135.650498,58.4977302 L137.446754,58.4977302 L137.462063,64.8841347 Z" id="Fill-15" fill="#8269B4" mask="url(#mask-2)"></path>
                        <path d="M149.564337,62.2068457 C149.564337,64.2735607 148.092122,65.7738427 145.885074,65.7738427 C143.846426,65.7738427 142.542609,64.5006442 142.246635,62.6737702 L144.073509,62.3063542 C144.198533,63.2963362 144.808341,64.0464772 145.885074,64.0464772 C146.931189,64.0464772 147.640506,63.2555122 147.640506,62.2068457 L147.640506,56.0755912 L149.564337,56.0755912 L149.564337,62.2068457 Z" id="Fill-16" fill="#8269B4" mask="url(#mask-2)"></path>
                        <path d="M158.27031,65.5620683 L156.402612,65.5620683 L156.402612,64.9241933 C155.851488,65.4778688 155.114105,65.7738428 154.177704,65.7738428 C152.478405,65.7738428 151.348091,64.5567773 151.348091,62.8013453 L151.348091,58.4969648 L153.21834,58.4969648 L153.21834,62.4058628 C153.21834,63.3958448 153.782222,64.0617863 154.64718,64.0617863 C155.708604,64.0617863 156.402612,63.3524693 156.402612,61.6276553 L156.402612,58.4969648 L158.27031,58.4969648 L158.27031,65.5620683 Z" id="Fill-17" fill="#8269B4" mask="url(#mask-2)"></path>
                        <path d="M161.539292,63.3108798 C161.638801,64.0329543 162.261367,64.2727953 162.99875,64.2727953 C163.692758,64.2727953 164.10355,63.9615123 164.10355,63.5660298 C164.10355,63.3108798 163.932599,63.0557298 163.322791,62.9281548 L161.881193,62.6321808 C160.605443,62.3617218 159.883369,61.6396473 159.883369,60.6215988 C159.883369,59.2616493 160.988168,58.2844248 162.771667,58.2844248 C164.442899,58.2844248 165.603832,59.1493833 165.843673,60.3817578 L164.060174,60.7338648 C163.988732,60.1674318 163.493741,59.7566403 162.715534,59.7566403 C161.965393,59.7566403 161.751067,60.1240563 161.751067,60.4506483 C161.751067,60.6777318 161.837818,60.9201243 162.388942,61.0451478 L164.072932,61.4125638 C165.318064,61.6830228 165.930424,62.4612303 165.930424,63.4103883 C165.930424,64.9668033 164.669983,65.7756288 162.8278,65.7756288 C161.271385,65.7756288 159.839993,65.1658203 159.656285,63.6936048 L161.539292,63.3108798 Z" id="Fill-18" fill="#8269B4" mask="url(#mask-2)"></path>
                        <path d="M172.582439,65.2505301 C171.845056,65.6460126 171.337307,65.7761391 170.740256,65.7761391 C169.071575,65.7761391 167.964224,64.8958716 167.964224,62.9567316 L167.964224,60.0276096 L166.451185,60.0276096 L166.451185,58.4967096 L167.964224,58.4967096 L167.964224,56.3585526 L169.837025,56.3585526 L169.837025,58.4967096 L172.143581,58.4967096 L172.143581,60.0276096 L169.837025,60.0276096 L169.837025,62.8163991 C169.837025,63.6660486 170.245265,64.0334646 170.867831,64.0334646 C171.194423,64.0334646 171.676657,63.8905806 172.044073,63.6941151 L172.582439,65.2505301 Z" id="Fill-19" fill="#8269B4" mask="url(#mask-2)"></path>
                        <path d="M173.75715,65.5607925 L175.624848,65.5607925 L175.624848,58.495689 L173.75715,58.495689 L173.75715,65.5607925 Z M175.823865,56.38815 C175.823865,57.010716 175.341631,57.4776405 174.690999,57.4776405 C174.025057,57.4776405 173.555581,57.010716 173.555581,56.38815 C173.555581,55.7936505 174.025057,55.2680415 174.690999,55.2680415 C175.341631,55.2680415 175.823865,55.7936505 175.823865,56.38815 L175.823865,56.38815 Z" id="Fill-20" fill="#8269B4" mask="url(#mask-2)"></path>
                        <path d="M182.800942,62.6878035 L184.530859,63.1266615 C184.132825,64.741761 182.673367,65.7751185 180.989377,65.7751185 C178.922662,65.7751185 177.210605,64.2595275 177.210605,62.037171 C177.210605,59.8148145 178.922662,58.2839145 180.989377,58.2839145 C182.632543,58.2839145 184.061383,59.3045145 184.530859,60.888996 L182.732051,61.399296 C182.476901,60.4067625 181.81096,59.9985225 180.989377,59.9985225 C179.815687,59.9985225 179.02217,60.832863 179.02217,62.037171 C179.02217,63.2542365 179.815687,64.063062 180.989377,64.063062 C181.81096,64.063062 182.476901,63.665028 182.800942,62.6878035" id="Fill-21" fill="#8269B4" mask="url(#mask-2)"></path>
                        <path d="M187.360727,61.2153329 L190.772083,61.2153329 C190.52969,60.3095504 189.853543,59.9140679 189.10085,59.9140679 C188.391533,59.9140679 187.585259,60.3376169 187.360727,61.2153329 L187.360727,61.2153329 Z M192.683156,62.5319069 L187.304594,62.5319069 C187.488302,63.5525069 188.207825,64.1750729 189.072784,64.1750729 C189.626459,64.1750729 190.317916,64.1036309 190.828216,63.2386724 L192.499448,63.5958824 C191.876882,65.0680979 190.61389,65.7748634 189.072784,65.7748634 C187.077511,65.7748634 185.447102,64.2592724 185.447102,62.0369159 C185.447102,59.8145594 187.077511,58.2862109 189.10085,58.2862109 C190.983857,58.2862109 192.614266,59.7431174 192.683156,61.8965834 L192.683156,62.5319069 Z" id="Fill-22" fill="#8269B4" mask="url(#mask-2)"></path>
                        <path d="M20.8130958,29.1932424 C16.9807428,29.1932424 13.8730158,26.0880669 13.8730158,22.2557139 C13.8730158,18.4233609 16.9807428,15.3156339 20.8130958,15.3156339 L29.2611123,15.3156339 L29.2611123,1.4431284 L20.8130958,1.4431284 C9.3185883,1.4431284 0.0005103,10.7612064 0.0005103,22.2557139 C0.0005103,33.7502214 9.3185883,43.0657479 20.8130958,43.0657479 L29.2611123,43.0657479 L29.2611123,29.1932424 L20.8130958,29.1932424 Z" id="Fill-23" fill="#173C6F" mask="url(#mask-2)"></path>
                        <polygon id="Fill-24" fill="#8269B4" mask="url(#mask-2)" points="50.070636 22.2549484 50.070636 22.2549484 29.260602 1.44236295 50.070636 1.44236295"></polygon>
                        <polygon id="Fill-25" fill="#FF8C6E" mask="url(#mask-2)" points="29.2600917 43.0670236 29.2600917 43.0670236 50.0701257 22.2544381 50.0701257 43.0670236"></polygon>
                        <path d="M75.9545829,11.1582198 L79.1720244,11.8165068 C78.3683019,16.0086213 75.0513519,18.3508983 71.1245934,18.3508983 C66.3252219,18.3508983 62.5438989,14.6206053 62.5438989,9.8161308 C62.5438989,5.0397228 66.3252219,1.2839148 71.1245934,1.2839148 C75.0513519,1.2839148 78.3453384,3.6491553 79.1720244,7.5733623 L75.9545829,8.4765933 C75.3447744,5.6469798 73.3928769,4.4043993 71.1245934,4.4043993 C68.2005744,4.4043993 65.8863639,6.7211613 65.8863639,9.8161308 C65.8863639,12.9136518 68.2005744,15.2533773 71.1245934,15.2533773 C73.3928769,15.2533773 75.3447744,14.0107968 75.9545829,11.1582198" id="Fill-26" fill="#173C6F" mask="url(#mask-2)"></path>
                        <path d="M90.9469417,11.9132086 C90.9469417,9.64492515 89.1940612,8.27987265 87.5100712,8.27987265 C85.7546392,8.27987265 83.9992072,9.64492515 83.9992072,11.9132086 C83.9992072,14.1814921 85.7546392,15.5465446 87.5100712,15.5465446 C89.1940612,15.5465446 90.9469417,14.1814921 90.9469417,11.9132086 M94.0699777,11.9132086 C94.0699777,15.7404586 91.0694137,18.3021646 87.5100712,18.3021646 C83.8767352,18.3021646 80.8787227,15.7404586 80.8787227,11.9132086 C80.8787227,8.08595865 83.8767352,5.52680415 87.5100712,5.52680415 C91.0694137,5.52680415 94.0699777,8.08595865 94.0699777,11.9132086" id="Fill-27" fill="#173C6F" mask="url(#mask-2)"></path>
                        <path d="M108.428799,10.5726506 L108.428799,17.9847581 L105.208806,17.9847581 L105.208806,11.2564526 C105.208806,9.54949905 104.234133,8.40132405 102.746609,8.40132405 C100.919735,8.40132405 99.7256327,9.62094105 99.7256327,12.5959901 L99.7256327,17.9847581 L96.5056397,17.9847581 L96.5056397,5.81920605 L99.7256327,5.81920605 L99.7256327,6.91379955 C100.674791,5.96464155 101.942886,5.45179005 103.552883,5.45179005 C106.476902,5.45179005 108.428799,7.54912305 108.428799,10.5726506" id="Fill-28" fill="#173C6F" mask="url(#mask-2)"></path>
                        <path d="M123.448714,10.5726506 L123.448714,17.9847581 L120.228721,17.9847581 L120.228721,11.2564526 C120.228721,9.54949905 119.251497,8.40132405 117.766524,8.40132405 C115.93965,8.40132405 114.742996,9.62094105 114.742996,12.5959901 L114.742996,17.9847581 L111.525555,17.9847581 L111.525555,5.81920605 L114.742996,5.81920605 L114.742996,6.91379955 C115.694706,5.96464155 116.962801,5.45179005 118.570246,5.45179005 C121.496817,5.45179005 123.448714,7.54912305 123.448714,10.5726506" id="Fill-29" fill="#173C6F" mask="url(#mask-2)"></path>
                        <path d="M128.858149,10.4991673 L134.736805,10.4991673 C134.320911,8.94020085 133.152324,8.25639885 131.858713,8.25639885 C130.639096,8.25639885 129.248529,8.98867935 128.858149,10.4991673 L128.858149,10.4991673 Z M138.02824,12.7674508 L128.761192,12.7674508 C129.08013,14.5228828 130.32271,15.5970643 131.810235,15.5970643 C132.759393,15.5970643 133.956046,15.4745923 134.833762,13.9870678 L137.711854,14.5943248 C136.637673,17.1330673 134.466346,18.3501328 131.810235,18.3501328 C128.373364,18.3501328 125.566714,15.7424998 125.566714,11.9126983 C125.566714,8.08544835 128.373364,5.45230035 131.858713,5.45230035 C135.10167,5.45230035 137.905768,7.96297635 138.02824,11.6703058 L138.02824,12.7674508 Z" id="Fill-30" fill="#173C6F" mask="url(#mask-2)"></path>
                        <path d="M149.608989,13.0358686 L152.581486,13.7911126 C151.897684,16.5696961 149.387008,18.3506431 146.485953,18.3506431 C142.92661,18.3506431 139.977076,15.7430101 139.977076,11.9132086 C139.977076,8.08595865 142.92661,5.45281065 146.485953,5.45281065 C149.315566,5.45281065 151.777764,7.20824265 152.581486,9.93834765 L149.486517,10.8160636 C149.045107,9.10911015 147.902035,8.40234465 146.485953,8.40234465 C144.462613,8.40234465 143.097561,9.84139065 143.097561,11.9132086 C143.097561,14.0105416 144.462613,15.4011091 146.485953,15.4011091 C147.902035,15.4011091 149.045107,14.7173071 149.608989,13.0358686" id="Fill-31" fill="#173C6F" mask="url(#mask-2)"></path>
                        <path d="M163.871618,17.4484328 C162.603523,18.1322348 161.725807,18.3516638 160.702655,18.3516638 C157.824563,18.3516638 155.923696,16.8386243 155.923696,13.4987108 L155.923696,8.45184375 L153.313511,8.45184375 L153.313511,5.81869575 L155.923696,5.81869575 L155.923696,2.13688125 L159.141137,2.13688125 L159.141137,5.81869575 L163.113823,5.81869575 L163.113823,8.45184375 L159.141137,8.45184375 L159.141137,13.2537668 C159.141137,14.7183278 159.847903,15.3510998 160.922084,15.3510998 C161.480863,15.3510998 162.3101,15.1087073 162.945424,14.7668063 L163.871618,17.4484328 Z" id="Fill-32" fill="#173C6F" mask="url(#mask-2)"></path>
                        <path d="M165.773506,17.982972 L168.990948,17.982972 L168.990948,5.81742 L165.773506,5.81742 L165.773506,17.982972 Z M169.330297,2.1866355 C169.330297,3.2582655 168.503611,4.061988 167.380951,4.061988 C166.235328,4.061988 165.431605,3.2582655 165.431605,2.1866355 C165.431605,1.1609325 166.235328,0.260253 167.380951,0.260253 C168.503611,0.260253 169.330297,1.1609325 169.330297,2.1866355 L169.330297,2.1866355 Z" id="Fill-33" fill="#173C6F" mask="url(#mask-2)"></path>
                        <path d="M181.228707,13.0358686 L184.203756,13.7911126 C183.519954,16.5696961 181.009278,18.3506431 178.108223,18.3506431 C174.54888,18.3506431 171.599346,15.7430101 171.599346,11.9132086 C171.599346,8.08595865 174.54888,5.45281065 178.108223,5.45281065 C180.937836,5.45281065 183.400034,7.20824265 184.203756,9.93834765 L181.106235,10.8160636 C180.667377,9.10911015 179.521754,8.40234465 178.108223,8.40234465 C176.084883,8.40234465 174.719831,9.84139065 174.719831,11.9132086 C174.719831,14.0105416 176.084883,15.4011091 178.108223,15.4011091 C179.521754,15.4011091 180.667377,14.7173071 181.228707,13.0358686" id="Fill-34" fill="#173C6F" mask="url(#mask-2)"></path>
                        <path d="M198.246957,17.9842478 L195.026964,17.9842478 L195.026964,16.8871028 C194.077806,17.8388123 192.809711,18.3516638 191.199714,18.3516638 C188.275695,18.3516638 186.323798,16.2543308 186.323798,13.2308033 L186.323798,5.81869575 L189.543791,5.81869575 L189.543791,12.5470013 C189.543791,14.2539548 190.518464,15.3995783 192.005988,15.3995783 C193.835414,15.3995783 195.026964,14.1825128 195.026964,11.2074638 L195.026964,5.81869575 L198.246957,5.81869575 L198.246957,17.9842478 Z" id="Fill-35" fill="#173C6F" mask="url(#mask-2)"></path>
                        <path d="M210.511252,17.4484328 C209.243157,18.1322348 208.365441,18.3516638 207.342289,18.3516638 C204.464197,18.3516638 202.56333,16.8386243 202.56333,13.4987108 L202.56333,8.45184375 L199.953145,8.45184375 L199.953145,5.81869575 L202.56333,5.81869575 L202.56333,2.13688125 L205.780771,2.13688125 L205.780771,5.81869575 L209.753457,5.81869575 L209.753457,8.45184375 L205.780771,8.45184375 L205.780771,13.2537668 C205.780771,14.7183278 206.487537,15.3510998 207.561718,15.3510998 C208.120497,15.3510998 208.949734,15.1087073 209.585058,14.7668063 L210.511252,17.4484328 Z" id="Fill-36" fill="#173C6F" mask="url(#mask-2)"></path>
                        <polygon id="Fill-37" fill="#173C6F" mask="url(#mask-2)" points="76.0017856 43.0682994 64.2521281 43.0682994 64.2521281 26.7335964 67.5665266 26.7335964 67.5665266 40.0702869 76.0017856 40.0702869"></polygon>
                        <path d="M81.0001741,35.583219 L86.8762786,35.583219 C86.4629356,34.021701 85.2917971,33.3404505 84.0007381,33.3404505 C82.7785696,33.3404505 81.3905536,34.0701795 81.0001741,35.583219 L81.0001741,35.583219 Z M90.1677136,37.8515025 L80.9032171,37.8515025 C81.2196031,39.6069345 82.4621836,40.6785645 83.9497081,40.6785645 C84.9014176,40.6785645 86.0955196,40.5560925 86.9732356,39.068568 L89.8513276,39.6783765 C88.7771461,42.2145675 86.6083711,43.4341845 83.9497081,43.4341845 C80.5128376,43.4341845 77.7087391,40.824 77.7087391,36.99675 C77.7087391,33.1695 80.5128376,30.536352 84.0007381,30.536352 C87.2411431,30.536352 90.0452416,33.047028 90.1677136,36.751806 L90.1677136,37.8515025 Z" id="Fill-38" fill="#173C6F" mask="url(#mask-2)"></path>
                        <path d="M101.845674,36.411691 C101.845674,34.508272 100.286708,33.242728 98.579754,33.242728 C96.6533715,33.242728 95.2143255,34.508272 95.2143255,36.411691 C95.2143255,38.31511 96.6533715,39.580654 98.579754,39.580654 C100.286708,39.580654 101.845674,38.31511 101.845674,36.411691 L101.845674,36.411691 Z M104.96871,41.897416 C104.96871,45.627709 102.381489,47.699527 98.457282,47.699527 C95.6276685,47.699527 93.5813655,46.7018905 92.532699,45.020452 L95.140332,43.0430395 C96.0920415,44.2371415 96.8728005,44.7984715 98.457282,44.7984715 C100.506137,44.7984715 101.845674,43.5329275 101.845674,41.4100795 L101.845674,41.213614 C100.942443,41.9458945 99.6998625,42.336274 98.018424,42.336274 C94.971933,42.336274 92.1168045,39.7516045 92.1168045,36.411691 C92.1168045,33.094741 94.971933,30.5355865 98.018424,30.5355865 C99.6998625,30.5355865 100.942443,30.9489295 101.845674,31.6582465 L101.845674,30.900451 L104.943195,30.900451 L104.96871,41.897416 Z" id="Fill-39" fill="#173C6F" mask="url(#mask-2)"></path>
                        <path d="M117.401404,36.9972603 C117.401404,34.7544918 115.668936,33.3384093 113.939019,33.3384093 C111.989673,33.3384093 110.525112,34.7544918 110.525112,36.9972603 C110.525112,39.2400288 111.989673,40.6305963 113.939019,40.6305963 C115.668936,40.6305963 117.401404,39.2400288 117.401404,36.9972603 L117.401404,36.9972603 Z M120.621397,43.0672788 L117.401404,43.0672788 L117.401404,42.1155693 C116.378253,42.9473583 115.036164,43.4321433 113.377689,43.4321433 C110.282719,43.4321433 107.404627,40.8245103 107.404627,36.9972603 C107.404627,33.1700103 110.282719,30.5368623 113.377689,30.5368623 C115.036164,30.5368623 116.378253,31.0241988 117.401404,31.8763998 L117.401404,30.9017268 L120.621397,30.9017268 L120.621397,43.0672788 Z" id="Fill-40" fill="#173C6F" mask="url(#mask-2)"></path>
                        <polygon id="Fill-41" fill="#173C6F" mask="url(#mask-2)" points="124.030966 43.0667685 127.250959 43.0667685 127.250959 25.5124485 124.030966 25.5124485"></polygon>
                        <path d="M149.045873,31.0719119 L145.731474,31.7557139 C145.48653,30.2197109 144.146993,29.2195229 142.511481,29.2195229 C140.855558,29.2195229 139.852818,30.1457174 139.852818,31.2428624 C139.852818,32.0720999 140.220234,32.6563934 141.48833,32.9013374 L144.999194,33.6081029 C147.657857,34.1694329 149.290817,35.7539144 149.290817,38.2901054 C149.290817,41.4590684 146.680632,43.4339294 142.804904,43.4339294 C139.390997,43.4339294 136.392984,41.8494479 135.97709,38.5809764 L139.46499,37.8742109 C139.903848,39.7265999 141.268901,40.5328739 143.123841,40.5328739 C145.024709,40.5328739 146.022345,39.6296429 146.022345,38.4610559 C146.022345,37.5323099 145.586039,36.9735314 144.121478,36.6801089 L140.659092,36.0218219 C138.707195,35.6059274 136.367469,34.5342974 136.367469,31.3398194 C136.367469,28.4132489 138.758225,26.3669459 142.585475,26.3669459 C145.902425,26.3669459 148.413101,28.1708564 149.045873,31.0719119" id="Fill-42" fill="#173C6F" mask="url(#mask-2)"></path>
                        <path d="M154.532618,35.583219 L160.408723,35.583219 C159.99538,34.021701 158.824241,33.3404505 157.530631,33.3404505 C156.311014,33.3404505 154.920446,34.0701795 154.532618,35.583219 L154.532618,35.583219 Z M163.700158,37.8515025 L154.435661,37.8515025 C154.752047,39.6069345 155.994628,40.6785645 157.482152,40.6785645 C158.43131,40.6785645 159.627964,40.5560925 160.50568,39.068568 L163.383772,39.6783765 C162.30959,42.2145675 160.138264,43.4341845 157.482152,43.4341845 C154.045282,43.4341845 151.241183,40.824 151.241183,36.99675 C151.241183,33.1695 154.045282,30.536352 157.530631,30.536352 C160.773587,30.536352 163.577686,33.047028 163.700158,36.751806 L163.700158,37.8515025 Z" id="Fill-43" fill="#173C6F" mask="url(#mask-2)"></path>
                        <path d="M174.573375,30.8277333 L174.402424,33.9252543 L173.695659,33.9252543 C170.72061,33.9252543 169.355557,35.7546798 169.355557,39.1430718 L169.355557,43.0672788 L166.135564,43.0672788 L166.135564,30.9017268 L169.355557,30.9017268 L169.355557,33.1189803 C170.33023,31.7054493 171.746313,30.7307763 173.718622,30.7307763 C174.03756,30.7307763 174.279952,30.7307763 174.573375,30.8277333" id="Fill-44" fill="#173C6F" mask="url(#mask-2)"></path>
                        <polygon id="Fill-45" fill="#173C6F" mask="url(#mask-2)" points="184.592605 43.0682994 181.178698 43.0682994 176.108868 30.8772324 179.568702 30.8772324 182.885652 39.1415409 186.202602 30.8772324 189.664987 30.8772324"></polygon>
                        <path d="M191.786049,43.06932 L195.00349,43.06932 L195.00349,30.9012165 L191.786049,30.9012165 L191.786049,43.06932 Z M195.345391,27.2678805 C195.345391,28.342062 194.516154,29.1457845 193.393494,29.1457845 C192.24787,29.1457845 191.444148,28.342062 191.444148,27.2678805 C191.444148,26.244729 192.24787,25.341498 193.393494,25.341498 C194.516154,25.341498 195.345391,26.244729 195.345391,27.2678805 L195.345391,27.2678805 Z" id="Fill-46" fill="#173C6F" mask="url(#mask-2)"></path>
                        <path d="M207.242015,38.1183894 L210.217064,38.8736334 C209.533262,41.6547684 207.022586,43.4331639 204.121531,43.4331639 C200.562188,43.4331639 197.612654,40.8255309 197.612654,36.9982809 C197.612654,33.1684794 200.562188,30.5353314 204.121531,30.5353314 C206.951144,30.5353314 209.413342,32.2907634 210.217064,35.0234199 L207.119543,35.8985844 C206.680685,34.1916309 205.535062,33.4874169 204.121531,33.4874169 C202.098191,33.4874169 200.733139,34.9239114 200.733139,36.9982809 C200.733139,39.0930624 202.098191,40.4836299 204.121531,40.4836299 C205.535062,40.4836299 206.680685,39.7998279 207.242015,38.1183894" id="Fill-47" fill="#173C6F" mask="url(#mask-2)"></path>
                        <path d="M214.971274,35.583219 L220.847379,35.583219 C220.434036,34.021701 219.262897,33.3404505 217.969287,33.3404505 C216.74967,33.3404505 215.359102,34.0701795 214.971274,35.583219 L214.971274,35.583219 Z M224.138814,37.8515025 L214.874317,37.8515025 C215.190703,39.6069345 216.433284,40.6785645 217.920808,40.6785645 C218.869966,40.6785645 220.06662,40.5560925 220.944336,39.068568 L223.822428,39.6783765 C222.748246,42.2145675 220.57692,43.4341845 217.920808,43.4341845 C214.483938,43.4341845 211.679839,40.824 211.679839,36.99675 C211.679839,33.1695 214.483938,30.536352 217.969287,30.536352 C221.212243,30.536352 224.016342,33.047028 224.138814,36.751806 L224.138814,37.8515025 Z" id="Fill-48" fill="#173C6F" mask="url(#mask-2)"></path>
                        <path d="M228.795301,39.19104 C228.9637,40.4336205 230.037882,40.849515 231.305977,40.849515 C232.500079,40.849515 233.206845,40.3111485 233.206845,39.629898 C233.206845,39.19104 232.915974,38.752182 231.867307,38.532753 L229.379595,38.022453 C227.185305,37.55808 225.942724,36.3154995 225.942724,34.5600675 C225.942724,32.2177905 227.843592,30.536352 230.915598,30.536352 C233.79369,30.536352 235.791514,32.021325 236.207409,34.144173 L233.135403,34.7539815 C233.012931,33.776757 232.158178,33.072543 230.818641,33.072543 C229.52503,33.072543 229.162717,33.705315 229.162717,34.266645 C229.162717,34.6570245 229.305601,35.0703675 230.257311,35.2897965 L233.158366,35.92512 C235.306729,36.3869415 236.352844,37.7290305 236.352844,39.3619905 C236.352844,42.043617 234.181518,43.4341845 231.012555,43.4341845 C228.330928,43.4341845 225.871282,42.385518 225.552345,39.849327 L228.795301,39.19104 Z" id="Fill-49" fill="#173C6F" mask="url(#mask-2)"></path>
                    </g>
                </g>
            </g>
        </g>
    </g>
</svg>