<?xml version="1.0" encoding="UTF-8"?>
<svg width="51px" height="43px" viewBox="0 0 51 43" version="1.1" xmlns="http://www.w3.org/2000/svg" xmlns:xlink="http://www.w3.org/1999/xlink">
    <!-- Generator: Sketch 56.2 (81672) - https://sketch.com -->
    <title>Group 2</title>
    <desc>Created with Sketch.</desc>
    <g id="Design" stroke="none" stroke-width="1" fill="none" fill-rule="evenodd">
        <g id="Header-(Expanded,-default)" transform="translate(-130.000000, -23.000000)">
            <g id="CLS_Logo_Tagline" transform="translate(130.000000, 22.000000)">
                <g id="Group-51">
                    <g id="Group-50" transform="translate(0.000000, 0.378643)">
                        <g id="Group-2" transform="translate(0.000510, 1.442363)">
                            <path d="M20.8125855,27.7508795 C16.9802325,27.7508795 13.8725055,24.645704 13.8725055,20.813351 C13.8725055,16.980998 16.9802325,13.873271 20.8125855,13.873271 L29.260602,13.873271 L29.260602,0.00076545 L20.8125855,0.00076545 C9.318078,0.00076545 1.05515596e-12,9.31884345 1.05515596e-12,20.813351 C1.05515596e-12,32.3078585 9.318078,41.623385 20.8125855,41.623385 L29.260602,41.623385 L29.260602,27.7508795 L20.8125855,27.7508795 Z" id="Fill-23" fill="#173C6F"></path>
                            <polygon id="Fill-24" fill="#8269B4" points="50.0701257 20.8125855 50.0701257 20.8125855 29.2600917 -7.99360578e-14 50.0701257 -7.99360578e-14"></polygon>
                            <polygon id="Fill-25" fill="#FF8C6E" points="29.2595814 41.6246607 29.2595814 41.6246607 50.0696154 20.8120752 50.0696154 41.6246607"></polygon>
                        </g>
                    </g>
                </g>
            </g>
        </g>
    </g>
</svg>