<?xml version="1.0" encoding="UTF-8"?>
<svg width="141px" height="130px" viewBox="0 0 141 130" version="1.1" xmlns="http://www.w3.org/2000/svg" xmlns:xlink="http://www.w3.org/1999/xlink">
    <!-- Generator: Sketch 56.2 (81672) - https://sketch.com -->
    <title>get-help-graphic03</title>
    <desc>Created with Sketch.</desc>
    <g id="Design" stroke="none" stroke-width="1" fill="none" fill-rule="evenodd">
        <g id="Template-#4A---Get-Help" transform="translate(-18.000000, -850.000000)">
            <g id="get-help-graphic03" transform="translate(20.000000, 850.000000)">
                <g id="Group-29">
                    <path d="M47.17962,4.54747351e-13 L77.75262,30.573 L49.49622,58.8285 C41.31882,67.0059 41.51682,80.4627 49.93902,88.8849 C58.36122,97.308 71.81802,97.506 79.99632,89.3277 L108.25092,61.0722 L138.74202,91.5624 L137.41452,1.4103 L47.17962,4.54747351e-13 Z" id="Fill-1" fill="#A1D5DD"></path>
                    <path d="M81.44208,112.2201 L5.93568,112.2201 C2.65788,112.2201 0.00018,109.5624 0.00018,106.2837 L0.00018,53.3592 C0.00018,50.0805 2.65788,47.4228 5.93568,47.4228 L81.44208,47.4228 C84.72078,47.4228 87.37848,50.0805 87.37848,53.3592 L87.37848,106.2837 C87.37848,109.5624 84.72078,112.2201 81.44208,112.2201" id="Fill-77" fill="#FFFFFF"></path>
                    <path d="M81.44208,112.2201 L5.93568,112.2201 C2.65788,112.2201 0.00018,109.5624 0.00018,106.2837 L0.00018,53.3592 C0.00018,50.0805 2.65788,47.4228 5.93568,47.4228 L81.44208,47.4228 C84.72078,47.4228 87.37848,50.0805 87.37848,53.3592 L87.37848,106.2837 C87.37848,109.5624 84.72078,112.2201 81.44208,112.2201 Z" id="Stroke-78" stroke="#173C6F" stroke-width="3.6" stroke-linecap="round" stroke-linejoin="round"></path>
                    <path d="M25.1613,51.5259 L25.1613,42.7842 C25.1613,40.0086 27.0459,37.7577 29.3706,37.7577 L56.8224,37.7577 C59.1471,37.7577 61.0308,40.0086 61.0308,42.7842 L61.0308,51.5259" id="Stroke-79" stroke="#173C6F" stroke-width="3.9339" stroke-linecap="round" stroke-linejoin="round"></path>
                    <path d="M2.20268248e-13,73.69857 C2.20268248e-13,73.69857 20.2428,79.82217 43.6887,79.82217 C67.1355,79.82217 87.3783,73.69857 87.3783,73.69857" id="Stroke-80" stroke="#173C6F" stroke-width="3.4479" stroke-linecap="round" stroke-linejoin="round"></path>
                    <path d="M81.71541,110.63502 L6.20901,110.63502 C3.92841,110.63502 2.07351,108.77922 2.07351,106.49952 L2.07351,76.19922 C8.07381,77.77872 25.07931,81.76122 43.96311,81.76122 C62.84511,81.76122 79.85151,77.77872 85.85181,76.19922 L85.85181,106.49952 C85.85181,108.77922 83.99601,110.63502 81.71541,110.63502" id="Fill-81" fill="#FFFFFF"></path>
                    <path d="M13.86027,47.42361 L13.86027,76.76001" id="Stroke-82" stroke="#173C6F" stroke-width="3.6" stroke-linecap="round" stroke-linejoin="round"></path>
                    <path d="M72.73296,47.66706 L72.73296,77.00346" id="Stroke-83" stroke="#173C6F" stroke-width="3.6" stroke-linecap="round" stroke-linejoin="round"></path>
                    <path d="M43.96284,88.70103 L43.96284,88.70103 C41.39424,88.70103 39.31164,86.61933 39.31164,84.04983 L39.31164,74.84553 L48.61404,74.84553 L48.61404,84.04983 C48.61404,86.61933 46.53144,88.70103 43.96284,88.70103" id="Fill-84" fill="#FFFFFF"></path>
                    <path d="M43.96284,88.70103 L43.96284,88.70103 C41.39424,88.70103 39.31164,86.61933 39.31164,84.04983 L39.31164,74.84553 L48.61404,74.84553 L48.61404,84.04983 C48.61404,86.61933 46.53144,88.70103 43.96284,88.70103 Z" id="Stroke-85" stroke="#173C6F" stroke-width="3.4362" stroke-linecap="round" stroke-linejoin="round"></path>
                    <path d="M75.16134,98.4411 C75.16134,98.4411 73.68714,102.2247 73.14714,104.3865 L70.99164,105.1839 C70.99164,105.1839 71.20314,100.9386 73.61064,97.2045 L75.16134,98.4411 Z" id="Fill-86" fill="#FFFFFF"></path>
                    <path d="M80.82333,96.38577 C76.95963,95.22207 72.91053,95.67477 69.42483,97.66287 C65.93103,99.65457 63.47763,102.90177 62.51733,106.80597 C61.59393,110.55987 62.22213,114.56037 64.23813,117.85257 L62.03223,122.83947 L61.98633,122.97267 C61.73523,123.98877 62.12853,125.03547 62.98623,125.63847 C63.24633,125.82027 63.53253,125.95077 63.83583,126.02457 C64.03293,126.07317 64.23273,126.09747 64.43253,126.09747 C64.82763,126.09747 65.21913,126.00297 65.57823,125.81937 L71.02593,123.65937 C71.72253,123.95187 72.43263,124.18947 73.14183,124.36317 C77.04513,125.32437 81.06093,124.65657 84.44583,122.48577 C87.82893,120.31407 90.10953,116.93727 90.86643,112.97637 C92.23983,105.79077 87.82803,98.50347 80.82333,96.38577" id="Fill-87" fill="#002161"></path>
                    <path d="M70.08219,120.43746 L65.91699,122.08896 L68.01759,117.38646 L67.59639,116.81316 C65.61819,114.11496 64.94049,110.70756 65.73879,107.46576 C66.48309,104.43816 68.38569,101.91996 71.09649,100.37466 C73.80459,98.83116 76.94199,98.48016 79.94259,99.38556 C85.37229,101.02716 88.79139,106.67646 87.72669,112.24926 C87.13989,115.32366 85.37139,117.94356 82.74699,119.62836 C80.12169,121.31316 77.00679,121.83066 73.97829,121.08546 C73.17639,120.88746 72.36909,120.58506 71.58069,120.18636 L71.26389,120.02616 L70.08219,120.43746 Z" id="Fill-88" fill="#FFFFFF"></path>
                    <path d="M108.55629,129.11931 C107.95959,129.11931 107.37729,128.89971 106.92099,128.48661 L99.63369,123.29811 C98.46549,123.51141 97.30359,123.61851 96.16599,123.61851 C90.72099,123.61851 85.65759,121.44231 81.90819,117.49131 C78.16149,113.54211 76.25529,108.36351 76.54239,102.90861 C77.06169,93.01581 85.21839,84.86001 95.11209,84.34251 C100.56879,84.06261 105.74469,85.96251 109.69209,89.70921 C113.64129,93.45861 115.81749,98.52201 115.81749,103.96611 C115.81749,109.44981 113.54409,114.63561 109.54719,118.35171 L111.01959,126.66051 C111.01959,127.68111 110.40489,128.58021 109.45269,128.95011 C109.16019,129.06351 108.85599,129.11931 108.55629,129.11931" id="Fill-89" fill="#002161"></path>
                    <path d="M101.77119,120.357 L107.00469,124.0839 L105.69159,116.8164 L106.47459,116.1612 C110.15289,113.0823 112.26339,108.5697 112.26339,103.7835 C112.26339,99.3123 110.47689,95.1534 107.23149,92.0736 C103.98969,88.9965 99.74169,87.4323 95.25339,87.6663 C87.12999,88.0911 80.43399,94.7871 80.00649,102.9105 C79.77159,107.3934 81.33669,111.6477 84.41379,114.8913 C87.49269,118.1367 91.65159,119.9241 96.12459,119.9241 C97.30989,119.9241 98.53659,119.7792 99.77049,119.4939 L100.26549,119.3787 L101.77119,120.357 Z" id="Fill-90" fill="#FFFFFF"></path>
                </g>
            </g>
        </g>
    </g>
</svg>