<svg xmlns="http://www.w3.org/2000/svg" viewBox="0 0 146 128"><g fill="none" fill-rule="evenodd"><path d="M53.708 0L84.28 30.572 56.025 58.828c-8.178 8.178-7.98 21.635.442 30.057 8.423 8.422 21.88 8.62 30.058.443l28.255-28.256 30.49 30.49-1.327-90.153L53.708 0z" fill="#FFB19E"/><path d="M52.659 44.32v22.578H39.27c-6.04 0-10.936 5.042-10.936 11.263 0 6.22 4.896 11.263 10.936 11.263h13.39v22.519l32.8-33.782-32.8-33.842z" fill="#FFF"/><path d="M85.6 83.247v10.207c1.107-.807 2.81-1.208 4-1.343V40.836H37.58C16.858 40.836 0 57.695 0 78.417 0 99.14 16.858 116 37.58 116h43.406c.024-.108-1.944-2.913-1.255-4.002h-22.88L85.6 83.247z" fill="#002161"/><path fill="#FFF" d="M85.6 44.837v28.75l-28.75-28.75zm-35.58 67.16H37.58C19.064 111.997 4 96.933 4 78.417c0-18.515 15.064-33.58 33.58-33.58h12.44v19.717H37.58c-7.643 0-13.863 6.219-13.863 13.863 0 7.645 6.22 13.864 13.863 13.864h12.44v19.716z"/><path d="M37.58 88.28c-5.438 0-9.862-4.425-9.862-9.863s4.424-9.861 9.862-9.861h16.44v-20.89l30.752 30.75-30.752 30.752V88.28H37.58zm48.02-5.033l-28.75 28.75h35.24l2.233-13.885-4.701.079z" fill="#FFF"/><path fill="#002161" d="M85.55 96.98h4.05V82.557h-4.05z"/><path d="M95.656 94.629c-3.864-1.164-7.913-.711-11.399 1.277a14.384 14.384 0 00-6.907 9.142 14.562 14.562 0 001.72 11.048l-2.206 4.986-.045.134a2.506 2.506 0 001 2.665 2.52 2.52 0 001.446.459c.395 0 .786-.094 1.145-.278l5.448-2.16c.697.293 1.407.53 2.116.704 3.903.96 7.92.294 11.304-1.877 3.383-2.172 5.664-5.549 6.42-9.51 1.374-7.185-3.038-14.473-10.042-16.59" fill="#002161"/><path d="M84.914 118.68l-4.165 1.652 2.1-4.703-.42-.573a11.231 11.231 0 01-1.858-9.347 11.154 11.154 0 015.358-7.091c2.708-1.544 5.845-1.896 8.846-.99 5.43 1.641 8.849 7.291 7.784 12.864a11.17 11.17 0 01-4.98 7.378 11.158 11.158 0 01-8.769 1.458c-.801-.198-1.609-.5-2.397-.899l-.317-.16-1.182.411z" fill="#FFF"/><path d="M123.388 127.362c-.596 0-1.179-.22-1.635-.632l-7.287-5.189a19.35 19.35 0 01-3.468.32c-5.445 0-10.508-2.176-14.258-6.127-3.746-3.949-5.653-9.127-5.365-14.582.519-9.893 8.676-18.049 18.57-18.566 5.456-.28 10.632 1.62 14.58 5.366 3.948 3.75 6.125 8.813 6.125 14.257 0 5.484-2.274 10.67-6.27 14.386l1.472 8.309c0 1.02-.615 1.92-1.567 2.29a2.48 2.48 0 01-.897.168" fill="#002161"/><path d="M116.603 118.6l5.234 3.727-1.313-7.268.783-.655a16.108 16.108 0 005.789-12.377c0-4.472-1.787-8.63-5.032-11.71-3.242-3.077-7.49-4.642-11.978-4.408-8.124.425-14.82 7.121-15.247 15.245-.235 4.482 1.33 8.737 4.407 11.98a15.995 15.995 0 0011.71 5.033c1.186 0 2.413-.145 3.647-.43l.495-.115 1.505.978z" fill="#FFF"/></g></svg>