<svg xmlns="http://www.w3.org/2000/svg" viewBox="0 0 141 130">
  <g fill="none" fill-rule="evenodd">
    <path d="M49.18 0l30.573 30.573-28.257 28.255c-8.177 8.178-7.98 21.635.443 30.057 8.422 8.423 21.879 8.621 30.057.443l28.255-28.256 30.491 30.49-1.327-90.152L49.18 0z" fill="#A1D5DD"/>
    <path d="M83.442 112.22H7.936A5.936 5.936 0 012 106.284V53.359a5.936 5.936 0 015.936-5.936h75.506a5.936 5.936 0 015.936 5.936v52.925a5.936 5.936 0 01-5.936 5.936" fill="#FFF"/>
    <path d="M83.442 112.22H7.936A5.936 5.936 0 012 106.284V53.359a5.936 5.936 0 015.936-5.936h75.506a5.936 5.936 0 015.936 5.936v52.925a5.936 5.936 0 01-5.936 5.936z" stroke="#173C6F" stroke-width="3.6" stroke-linecap="round" stroke-linejoin="round"/>
    <path d="M27.161 51.526v-8.742c0-2.775 1.885-5.026 4.21-5.026h27.451c2.325 0 4.209 2.25 4.209 5.026v8.742" stroke="#173C6F" stroke-width="3.934" stroke-linecap="round" stroke-linejoin="round"/>
    <path d="M2 73.699s20.243 6.123 43.689 6.123 43.69-6.123 43.69-6.123" stroke="#173C6F" stroke-width="3.448" stroke-linecap="round" stroke-linejoin="round"/>
    <path d="M83.715 110.635H8.21a4.14 4.14 0 01-4.135-4.135V76.2c6 1.579 23.005 5.561 41.89 5.561 18.881 0 35.888-3.982 41.888-5.562v30.3a4.141 4.141 0 01-4.137 4.136" fill="#FFF"/>
    <path d="M15.86 47.424V76.76M74.733 47.667v29.336" stroke="#173C6F" stroke-width="3.6" stroke-linecap="round" stroke-linejoin="round"/>
    <path d="M45.963 88.701a4.65 4.65 0 01-4.651-4.651v-9.204h9.302v9.204a4.65 4.65 0 01-4.651 4.651" fill="#FFF"/>
    <path d="M45.963 88.701h0a4.65 4.65 0 01-4.651-4.651v-9.204h9.302v9.204a4.65 4.65 0 01-4.651 4.651z" stroke="#173C6F" stroke-width="3.436" stroke-linecap="round" stroke-linejoin="round"/>
    <path d="M77.161 98.441s-1.474 3.784-2.014 5.945l-2.155.798s.211-4.245 2.619-7.98l1.55 1.237z" fill="#FFF"/>
    <path d="M82.823 96.386c-3.863-1.164-7.912-.711-11.398 1.277a14.384 14.384 0 00-6.908 9.143 14.56 14.56 0 001.721 11.047l-2.206 4.986-.046.134a2.505 2.505 0 001 2.665 2.52 2.52 0 001.447.46c.395 0 .786-.095 1.145-.279l5.448-2.16c.697.293 1.407.53 2.116.704 3.903.961 7.919.294 11.304-1.877 3.383-2.172 5.664-5.549 6.42-9.51 1.374-7.185-3.038-14.473-10.043-16.59" fill="#002161"/>
    <path d="M72.082 120.437l-4.165 1.652 2.1-4.703-.42-.573a11.231 11.231 0 01-1.858-9.347 11.154 11.154 0 015.357-7.091c2.709-1.544 5.846-1.895 8.847-.99 5.43 1.642 8.848 7.291 7.784 12.864a11.173 11.173 0 01-4.98 7.38 11.154 11.154 0 01-8.769 1.456c-.802-.198-1.609-.5-2.397-.899l-.317-.16-1.182.411z" fill="#FFF"/>
    <path d="M110.556 129.12c-.596 0-1.179-.22-1.635-.633l-7.287-5.189c-1.169.213-2.33.32-3.468.32-5.445 0-10.508-2.176-14.258-6.127-3.747-3.949-5.653-9.127-5.366-14.582.52-9.893 8.676-18.049 18.57-18.566 5.457-.28 10.633 1.62 14.58 5.366 3.95 3.75 6.125 8.813 6.125 14.257 0 5.484-2.273 10.67-6.27 14.386l1.473 8.309c0 1.02-.615 1.92-1.567 2.29a2.48 2.48 0 01-.897.168" fill="#002161"/>
    <path d="M103.771 120.357l5.234 3.727-1.313-7.268.783-.655a16.108 16.108 0 005.788-12.377c0-4.472-1.786-8.63-5.032-11.71-3.241-3.078-7.49-4.642-11.978-4.408-8.123.425-14.819 7.121-15.247 15.245-.234 4.482 1.33 8.737 4.408 11.98a15.995 15.995 0 0011.71 5.033c1.186 0 2.413-.145 3.646-.43l.495-.115 1.506.978z" fill="#FFF"/>
  </g>
</svg>