<svg xmlns="http://www.w3.org/2000/svg" viewBox="0 0 164 124">
  <g fill="none" fill-rule="evenodd">
    <path d="M71.735 0l30.573 30.573-28.256 28.255c-8.178 8.178-7.98 21.635.443 30.058 8.422 8.422 21.879 8.62 30.057.442l28.255-28.256 30.49 30.49L161.97 1.41 71.735 0z" fill="#FCC16B"/>
    <path d="M53.869 51.044L2.79 43.165a.657.657 0 00-.79.657v61.143c0 .327.175.656.526.656l51.343 7.796V51.044z" stroke="#173C6F" stroke-width="3.6" stroke-linecap="round" stroke-linejoin="round"/>
    <path d="M53.869 51.044l50.991-7.879c.526-.082.877.247.877.657v61.143c0 .327-.262.656-.614.656l-51.254 7.796V51.044z" fill="#FFF"/>
    <path d="M53.869 51.044l50.991-7.879c.526-.082.877.247.877.657v61.143c0 .327-.262.656-.614.656l-51.254 7.796V51.044z" stroke="#173C6F" stroke-width="3.6" stroke-linecap="round" stroke-linejoin="round"/>
    <path d="M100.344 40.248c-14.22-3.866-36.354 1.542-46.477 11.136v59.237c13.534-9.138 33.684-11.612 46.123-9.119l.354-58.818v-2.436z" fill="#FFF"/>
    <path d="M100.344 40.248c-14.22-3.866-36.354 1.542-46.477 11.136v59.237c13.534-9.138 33.684-11.612 46.123-9.119l.354-58.818v-2.436z" stroke="#173C6F" stroke-width="2.759" stroke-linecap="round" stroke-linejoin="round"/>
    <path d="M7.39 40.248c14.221-3.866 36.354 1.542 46.477 11.136v59.237c-13.879-8.985-33.684-11.612-46.123-9.119L7.39 42.684v-2.436z" fill="#FFF"/>
    <path d="M7.39 40.248c14.221-3.866 36.354 1.542 46.477 11.136v59.237c-13.879-8.985-33.684-11.612-46.123-9.119L7.39 42.684v-2.436z" stroke="#173C6F" stroke-width="2.759" stroke-linecap="round" stroke-linejoin="round"/>
    <path d="M16.042 52.399l29.678 6.633" fill="#FFF"/>
    <path d="M16.042 52.399l29.678 6.633" stroke="#173C6F" stroke-width="2.759" stroke-linecap="round" stroke-linejoin="round"/>
    <path d="M16.042 70.309l29.678 6.633" fill="#FFF"/>
    <path d="M16.042 70.309l29.678 6.633" stroke="#173C6F" stroke-width="2.759" stroke-linecap="round" stroke-linejoin="round"/>
    <path d="M16.042 62.776l29.678 6.633" fill="#FFF"/>
    <path d="M16.042 62.776l29.678 6.633" stroke="#173C6F" stroke-width="2.759" stroke-linecap="round" stroke-linejoin="round"/>
    <path d="M90.866 52.399L61.19 59.032" fill="#FFF"/>
    <path d="M90.866 52.399L61.19 59.032" stroke="#173C6F" stroke-width="2.759" stroke-linecap="round" stroke-linejoin="round"/>
    <path d="M90.866 70.875L61.19 77.508" fill="#FFF"/>
    <path d="M90.866 70.875L61.19 77.508" stroke="#173C6F" stroke-width="2.759" stroke-linecap="round" stroke-linejoin="round"/>
    <path d="M90.866 77.823L61.19 84.456" fill="#FFF"/>
    <path d="M90.866 77.823L61.19 84.456" stroke="#173C6F" stroke-width="2.759" stroke-linecap="round" stroke-linejoin="round"/>
    <path d="M90.866 84.77L61.19 91.403" fill="#FFF"/>
    <path d="M90.866 84.77L61.19 91.403" stroke="#173C6F" stroke-width="2.759" stroke-linecap="round" stroke-linejoin="round"/>
    <path d="M90.866 59.46L61.19 66.091" fill="#FFF"/>
    <path d="M90.866 59.46L61.19 66.091" stroke="#173C6F" stroke-width="2.759" stroke-linecap="round" stroke-linejoin="round"/>
    <path d="M96.665 85.07c8.227.028 14.874 6.72 14.847 14.949-.028 8.228-6.721 14.875-14.95 14.846-8.227-.027-14.875-6.72-14.847-14.948.028-8.228 6.72-14.875 14.95-14.847" fill="#FFF"/>
    <path d="M96.665 85.07c8.227.028 14.874 6.72 14.847 14.949-.028 8.228-6.721 14.875-14.95 14.846-8.227-.027-14.875-6.72-14.847-14.948.028-8.228 6.72-14.875 14.95-14.847zM107.173 110.475l11.606 11.551" stroke="#173C6F" stroke-width="3.6"/>
  </g>
</svg>