<?xml version="1.0" encoding="UTF-8"?>
<svg width="482px" height="247px" viewBox="0 0 482 247" version="1.1" xmlns="http://www.w3.org/2000/svg" xmlns:xlink="http://www.w3.org/1999/xlink">
    <!-- Generator: Sketch 56.2 (81672) - https://sketch.com -->
    <title>graphic-homes</title>
    <desc>Created with Sketch.</desc>
    <defs>
        <polygon id="path-1" points="0 247 481.048 247 481.048 0.651 0 0.651"></polygon>
    </defs>
    <g id="Design" stroke="none" stroke-width="1" fill="none" fill-rule="evenodd">
        <g id="Template-#3---Our-Clients" transform="translate(-129.000000, -1356.000000)">
            <g id="graphic-homes" transform="translate(129.000000, 1355.000000)">
                <g id="Group-130">
                    <polygon id="Fill-1" fill="#173C6F" points="133.004 56.391 147.436 56.391 147.436 40.656 133.004 40.656"></polygon>
                    <path d="M133.777,55.618 L146.663,55.618 L146.663,41.428 L133.777,41.428 L133.777,55.618 Z M132.231,57.164 L148.209,57.164 L148.209,39.883 L132.231,39.883 L132.231,57.164 Z" id="Fill-2" fill="#365682"></path>
                    <path d="M42.515,221.585 L154.452,221.585 L154.452,22.266 L42.515,22.266 L42.515,221.585 Z M40.277,223.823 L156.69,223.823 L156.69,20.028 L40.277,20.028 L40.277,223.823 Z" id="Fill-3" fill="#365682"></path>
                    <path d="M212.663,221.714 L312.352,221.714 L312.352,46.493 L212.663,46.493 L212.663,221.714 Z M210.683,223.694 L314.332,223.694 L314.332,44.512 L210.683,44.512 L210.683,223.694 Z" id="Fill-4" fill="#365682"></path>
                    <path d="M268.173,44.403 L294.741,44.403 L294.741,39.222 L268.173,39.222 L268.173,44.403 Z M265.974,46.602 L296.939,46.602 L296.939,37.024 L265.974,37.024 L265.974,46.602 Z" id="Fill-5" fill="#365682"></path>
                    <polygon id="Fill-6" fill="#173C6F" points="52.623 56.391 67.055 56.391 67.055 40.656 52.623 40.656"></polygon>
                    <path d="M53.396,55.618 L66.282,55.618 L66.282,41.428 L53.396,41.428 L53.396,55.618 Z M51.85,57.164 L67.828,57.164 L67.828,39.883 L51.85,39.883 L51.85,57.164 Z" id="Fill-7" fill="#365682"></path>
                    <polygon id="Fill-8" fill="#173C6F" points="52.623 83.037 67.055 83.037 67.055 67.302 52.623 67.302"></polygon>
                    <path d="M53.396,82.264 L66.282,82.264 L66.282,68.075 L53.396,68.075 L53.396,82.264 Z M51.85,83.81 L67.828,83.81 L67.828,66.529 L51.85,66.529 L51.85,83.81 Z" id="Fill-9" fill="#365682"></path>
                    <polygon id="Fill-10" fill="#173C6F" points="79.417 56.391 93.849 56.391 93.849 40.656 79.417 40.656"></polygon>
                    <path d="M80.19,55.618 L93.076,55.618 L93.076,41.428 L80.19,41.428 L80.19,55.618 Z M78.644,57.164 L94.622,57.164 L94.622,39.883 L78.644,39.883 L78.644,57.164 Z" id="Fill-11" fill="#365682"></path>
                    <polygon id="Fill-12" fill="#173C6F" points="55.715 21.147 90.148 21.147 90.148 9.971 55.715 9.971"></polygon>
                    <path d="M56.808,20.054 L89.055,20.054 L89.055,11.064 L56.808,11.064 L56.808,20.054 Z M54.621,22.24 L91.24,22.24 L91.24,8.877 L54.621,8.877 L54.621,22.24 Z" id="Fill-13" fill="#365682"></path>
                    <polygon id="Fill-14" fill="#173C6F" points="90.148 21.147 141.033 21.147 141.033 2.093 90.148 2.093"></polygon>
                    <path d="M89.054,22.24 L142.125,22.24 L142.125,1 L89.054,1 L89.054,22.24 Z M91.24,20.054 L139.94,20.054 L139.94,3.186 L91.24,3.186 L91.24,20.054 Z" id="Fill-15" fill="#365682"></path>
                    <polygon id="Fill-16" fill="#173C6F" points="106.21 56.391 120.642 56.391 120.642 40.656 106.21 40.656"></polygon>
                    <path d="M106.984,55.618 L119.87,55.618 L119.87,41.428 L106.984,41.428 L106.984,55.618 Z M105.438,57.164 L121.415,57.164 L121.415,39.883 L105.438,39.883 L105.438,57.164 Z" id="Fill-17" fill="#365682"></path>
                    <polygon id="Fill-18" fill="#173C6F" points="79.572 83.037 94.004 83.037 94.004 67.302 79.572 67.302"></polygon>
                    <path d="M80.345,82.264 L93.231,82.264 L93.231,68.075 L80.345,68.075 L80.345,82.264 Z M78.799,83.81 L94.777,83.81 L94.777,66.529 L78.799,66.529 L78.799,83.81 Z" id="Fill-19" fill="#365682"></path>
                    <polygon id="Fill-20" fill="#173C6F" points="106.21 83.037 120.642 83.037 120.642 67.302 106.21 67.302"></polygon>
                    <path d="M106.984,82.264 L119.87,82.264 L119.87,68.075 L106.984,68.075 L106.984,82.264 Z M105.438,83.81 L121.415,83.81 L121.415,66.529 L105.438,66.529 L105.438,83.81 Z" id="Fill-21" fill="#365682"></path>
                    <polygon id="Fill-22" fill="#173C6F" points="112.653 222.704 188.63 222.704 188.63 54.307 112.653 54.307"></polygon>
                    <path d="M113.746,221.611 L187.537,221.611 L187.537,55.4 L113.746,55.4 L113.746,221.611 Z M111.56,223.797 L189.723,223.797 L189.723,53.214 L111.56,53.214 L111.56,223.797 Z" id="Fill-23" fill="#365682"></path>
                    <polygon id="Fill-24" fill="#365682" points="122.441 69.607 178.843 69.607 178.843 67.635 122.441 67.635"></polygon>
                    <polygon id="Fill-25" fill="#365682" points="122.441 82.266 156.634 82.266 156.634 80.294 122.441 80.294"></polygon>
                    <polygon id="Fill-26" fill="#173C6F" points="52.623 108.753 67.055 108.753 67.055 93.017 52.623 93.017"></polygon>
                    <path d="M53.396,107.98 L66.282,107.98 L66.282,93.79 L53.396,93.79 L53.396,107.98 Z M51.85,109.526 L67.828,109.526 L67.828,92.245 L51.85,92.245 L51.85,109.526 Z" id="Fill-27" fill="#365682"></path>
                    <polygon id="Fill-28" fill="#173C6F" points="52.623 135.363 67.055 135.363 67.055 119.628 52.623 119.628"></polygon>
                    <path d="M53.396,134.591 L66.282,134.591 L66.282,120.401 L53.396,120.401 L53.396,134.591 Z M51.85,136.136 L67.828,136.136 L67.828,118.855 L51.85,118.855 L51.85,136.136 Z" id="Fill-29" fill="#365682"></path>
                    <polygon id="Fill-30" fill="#173C6F" points="52.623 161.974 67.055 161.974 67.055 146.239 52.623 146.239"></polygon>
                    <path d="M53.396,161.201 L66.282,161.201 L66.282,147.011 L53.396,147.011 L53.396,161.201 Z M51.85,162.747 L67.828,162.747 L67.828,145.466 L51.85,145.466 L51.85,162.747 Z" id="Fill-31" fill="#365682"></path>
                    <polygon id="Fill-32" fill="#173C6F" points="52.623 188.584 67.055 188.584 67.055 172.849 52.623 172.849"></polygon>
                    <path d="M53.396,187.811 L66.282,187.811 L66.282,173.622 L53.396,173.622 L53.396,187.811 Z M51.85,189.357 L67.828,189.357 L67.828,172.076 L51.85,172.076 L51.85,189.357 Z" id="Fill-33" fill="#365682"></path>
                    <polygon id="Fill-34" fill="#173C6F" points="79.572 108.548 94.004 108.548 94.004 92.813 79.572 92.813"></polygon>
                    <path d="M80.345,107.775 L93.231,107.775 L93.231,93.586 L80.345,93.586 L80.345,107.775 Z M78.799,109.32 L94.777,109.32 L94.777,92.039 L78.799,92.039 L78.799,109.32 Z" id="Fill-35" fill="#365682"></path>
                    <polygon id="Fill-36" fill="#173C6F" points="224.7053 65.4926 68.3193 101.7616 68.3193 222.7036 224.7053 222.7036"></polygon>
                    <path d="M69.5237,221.4992 L223.5007,221.4992 L223.5007,67.0082 L69.5237,102.7192 L69.5237,221.4992 Z M225.9097,223.9082 L67.1147,223.9082 L67.1147,100.8042 L225.9097,63.9762 L225.9097,223.9082 Z" id="Fill-37" fill="#6981A2"></path>
                    <polygon id="Fill-38" fill="#6981A2" points="68.319 104.035 143.485 104.035 143.485 102.063 68.319 102.063"></polygon>
                    <polygon id="Fill-39" fill="#6981A2" points="68.319 122.588 94.691 122.588 94.691 120.616 68.319 120.616"></polygon>
                    <polygon id="Fill-40" fill="#6981A2" points="68.319 141.142 94.691 141.142 94.691 139.17 68.319 139.17"></polygon>
                    <polygon id="Fill-41" fill="#6981A2" points="68.319 159.696 94.691 159.696 94.691 157.724 68.319 157.724"></polygon>
                    <polygon id="Fill-42" fill="#6981A2" points="68.319 179.343 94.691 179.343 94.691 177.371 68.319 177.371"></polygon>
                    <g id="Group-129" transform="translate(0.000000, 0.349000)">
                        <path d="M333.634,32.8328 L378.077,77.2768 L330.373,124.9808 C316.566,138.7878 316.901,161.5068 331.12,175.7268 C345.34,189.9458 368.059,190.2808 381.866,176.4738 L429.571,128.7698 L481.048,180.2468 L478.806,28.0408 L326.528,25.9478 L333.634,32.8328 Z" id="Fill-43" fill-opacity="0.25" fill="#6981A2"></path>
                        <mask id="mask-2" fill="white">
                            <use xlink:href="#path-1"></use>
                        </mask>
                        <g id="Clip-46"></g>
                        <polygon id="Fill-45" fill="#173C6F" mask="url(#mask-2)" points="231.277 222.355 345.452 222.355 345.452 53.958 231.277 53.958"></polygon>
                        <path d="M232.371,221.262 L344.36,221.262 L344.36,55.051 L232.371,55.051 L232.371,221.262 Z M230.185,223.448 L346.546,223.448 L346.546,52.865 L230.185,52.865 L230.185,223.448 Z" id="Fill-47" fill="#6981A2" mask="url(#mask-2)"></path>
                        <polygon id="Fill-48" fill="#173C6F" mask="url(#mask-2)" points="144.028 222.355 255.514 222.355 255.514 98.505 144.028 98.505"></polygon>
                        <path d="M145.12,221.262 L254.42,221.262 L254.42,99.598 L145.12,99.598 L145.12,221.262 Z M255.514,223.448 L144.028,223.448 C143.424,223.448 142.934,222.959 142.934,222.355 L142.934,98.505 C142.934,97.901 143.424,97.412 144.028,97.412 L255.514,97.412 C256.117,97.412 256.607,97.901 256.607,98.505 L256.607,222.355 C256.607,222.959 256.117,223.448 255.514,223.448 L255.514,223.448 Z" id="Fill-49" fill="#6981A2" mask="url(#mask-2)"></path>
                        <path d="M155.727,198.759 L176.089,198.759 L176.089,173.135 L155.727,173.135 L155.727,198.759 Z M153.542,200.945 L178.276,200.945 L178.276,170.949 L153.542,170.949 L153.542,200.945 Z" id="Fill-50" fill="#6981A2" mask="url(#mask-2)"></path>
                        <path d="M255.5139,131.5191 L144.0279,131.5191 C143.4239,131.5191 142.9339,131.0291 142.9339,130.4261 C142.9339,129.8221 143.4239,129.3331 144.0279,129.3331 L255.5139,129.3331 C256.1179,129.3331 256.6069,129.8221 256.6069,130.4261 C256.6069,131.0291 256.1179,131.5191 255.5139,131.5191" id="Fill-51" fill="#6981A2" mask="url(#mask-2)"></path>
                        <path d="M255.5139,160.6978 L144.0279,160.6978 C143.4239,160.6978 142.9339,160.2078 142.9339,159.6048 C142.9339,159.0008 143.4239,158.5118 144.0279,158.5118 L255.5139,158.5118 C256.1179,158.5118 256.6069,159.0008 256.6069,159.6048 C256.6069,160.2078 256.1179,160.6978 255.5139,160.6978" id="Fill-52" fill="#6981A2" mask="url(#mask-2)"></path>
                        <polygon id="Fill-53" fill="#6981A2" mask="url(#mask-2)" points="154.635 182.06 177.183 182.06 177.183 179.874 154.635 179.874"></polygon>
                        <path d="M224.723,198.759 L245.085,198.759 L245.085,173.135 L224.723,173.135 L224.723,198.759 Z M222.538,200.945 L247.272,200.945 L247.272,170.949 L222.538,170.949 L222.538,200.945 Z" id="Fill-54" fill="#6981A2" mask="url(#mask-2)"></path>
                        <polygon id="Fill-55" fill="#6981A2" mask="url(#mask-2)" points="223.63 182.06 246.178 182.06 246.178 179.874 223.63 179.874"></polygon>
                        <path d="M186.236,221.262 L214.577,221.262 L214.577,184.424 L186.236,184.424 L186.236,221.262 Z M184.049,223.448 L216.763,223.448 L216.763,182.237 L184.049,182.237 L184.049,223.448 Z" id="Fill-56" fill="#6981A2" mask="url(#mask-2)"></path>
                        <polygon id="Fill-57" fill="#6981A2" mask="url(#mask-2)" points="204.51 222.355 206.696 222.355 206.696 183.331 204.51 183.331"></polygon>
                        <path d="M159.387,129.333 L176.09,129.333 L176.09,107.374 L159.387,107.374 L159.387,129.333 Z M157.201,131.519 L178.276,131.519 L178.276,105.188 L157.201,105.188 L157.201,131.519 Z" id="Fill-58" fill="#6981A2" mask="url(#mask-2)"></path>
                        <path d="M191.419,129.333 L208.122,129.333 L208.122,107.374 L191.419,107.374 L191.419,129.333 Z M189.233,131.519 L210.308,131.519 L210.308,105.188 L189.233,105.188 L189.233,131.519 Z" id="Fill-59" fill="#6981A2" mask="url(#mask-2)"></path>
                        <path d="M224.723,129.333 L241.426,129.333 L241.426,107.374 L224.723,107.374 L224.723,129.333 Z M222.538,131.519 L243.613,131.519 L243.613,105.188 L222.538,105.188 L222.538,131.519 Z" id="Fill-60" fill="#6981A2" mask="url(#mask-2)"></path>
                        <polygon id="Fill-61" fill="#173C6F" mask="url(#mask-2)" points="389.2634 171.1075 344.3724 171.1075 344.3724 183.3305 394.1854 183.3305"></polygon>
                        <path d="M345.6106,182.0931 L392.3526,182.0931 L388.4276,172.3451 L345.6106,172.3451 L345.6106,182.0931 Z M394.1856,184.5681 L344.3726,184.5681 C343.6896,184.5681 343.1356,184.0141 343.1356,183.3311 L343.1356,171.1071 C343.1356,170.4241 343.6896,169.8701 344.3726,169.8701 L389.2636,169.8701 C389.7686,169.8701 390.2226,170.1761 390.4116,170.6451 L395.3336,182.8681 C395.4866,183.2491 395.4406,183.6821 395.2106,184.0231 C394.9806,184.3641 394.5966,184.5681 394.1856,184.5681 L394.1856,184.5681 Z" id="Fill-62" fill="#FFFFFF" mask="url(#mask-2)"></path>
                        <polygon id="Fill-63" fill="#173C6F" mask="url(#mask-2)" points="237.344 222.355 344.373 222.355 344.373 171.107 237.344 171.107"></polygon>
                        <path d="M238.42,221.279 L343.296,221.279 L343.296,172.184 L238.42,172.184 L238.42,221.279 Z M344.373,223.431 L237.344,223.431 C236.75,223.431 236.268,222.949 236.268,222.355 L236.268,171.107 C236.268,170.513 236.75,170.031 237.344,170.031 L344.373,170.031 C344.967,170.031 345.449,170.513 345.449,171.107 L345.449,222.355 C345.449,222.949 344.967,223.431 344.373,223.431 L344.373,223.431 Z" id="Fill-64" fill="#FFFFFF" mask="url(#mask-2)"></path>
                        <polygon id="Fill-65" fill="#173C6F" mask="url(#mask-2)" points="344.372 222.355 394.185 222.355 394.185 183.33 344.372 183.33"></polygon>
                        <path d="M345.466,221.262 L393.092,221.262 L393.092,184.424 L345.466,184.424 L345.466,221.262 Z M394.185,223.448 L344.373,223.448 C343.769,223.448 343.28,222.959 343.28,222.355 L343.28,183.331 C343.28,182.727 343.769,182.237 344.373,182.237 L394.185,182.237 C394.789,182.237 395.279,182.727 395.279,183.331 L395.279,222.355 C395.279,222.959 394.789,223.448 394.185,223.448 L394.185,223.448 Z" id="Fill-66" fill="#FFFFFF" mask="url(#mask-2)"></path>
                        <polygon id="Fill-67" fill="#FFFFFF" mask="url(#mask-2)" points="247.367 222.355 249.519 222.355 249.519 171.107 247.367 171.107"></polygon>
                        <polygon id="Fill-68" fill="#FFFFFF" mask="url(#mask-2)" points="332.882 222.355 335.034 222.355 335.034 171.107 332.882 171.107"></polygon>
                        <path d="M310.617,197.188 L320.988,197.188 L320.988,178.426 L310.617,178.426 L310.617,197.188 Z M308.465,199.34 L323.14,199.34 L323.14,176.273 L308.465,176.273 L308.465,199.34 Z" id="Fill-69" fill="#FFFFFF" mask="url(#mask-2)"></path>
                        <path d="M261.088,197.188 L271.459,197.188 L271.459,178.426 L261.088,178.426 L261.088,197.188 Z M258.936,199.34 L273.61,199.34 L273.61,176.273 L258.936,176.273 L258.936,199.34 Z" id="Fill-70" fill="#FFFFFF" mask="url(#mask-2)"></path>
                        <path d="M282.87,221.279 L298.847,221.279 L298.847,194.03 L282.87,194.03 L282.87,221.279 Z M280.717,223.431 L300.999,223.431 L300.999,191.878 L280.717,191.878 L280.717,223.431 Z" id="Fill-71" fill="#FFFFFF" mask="url(#mask-2)"></path>
                        <polygon id="Fill-72" fill="#FFFFFF" mask="url(#mask-2)" points="344.372 196.803 394.185 196.803 394.185 194.617 344.372 194.617"></polygon>
                        <polygon id="Fill-73" fill="#FFFFFF" mask="url(#mask-2)" points="344.372 209.758 394.185 209.758 394.185 207.572 344.372 207.572"></polygon>
                        <polygon id="Fill-74" fill="#FFFFFF" mask="url(#mask-2)" points="418.322 223.224 420.474 223.224 420.474 178.218 418.322 178.218"></polygon>
                        <path d="M419.3982,166.9263 C412.8712,166.9263 407.5612,172.2363 407.5612,178.7643 C407.5612,185.2913 412.8712,190.6013 419.3982,190.6013 C425.9252,190.6013 431.2362,185.2913 431.2362,178.7643 C431.2362,172.2363 425.9252,166.9263 419.3982,166.9263 M419.3982,192.7533 C411.6842,192.7533 405.4082,186.4783 405.4082,178.7643 C405.4082,171.0503 411.6842,164.7743 419.3982,164.7743 C427.1122,164.7743 433.3882,171.0503 433.3882,178.7643 C433.3882,186.4783 427.1122,192.7533 419.3982,192.7533" id="Fill-75" fill="#FFFFFF" mask="url(#mask-2)"></path>
                        <path d="M400.6404,176.4124 C400.6404,180.3584 403.8394,183.5564 407.7844,183.5564 C411.7304,183.5564 414.9284,180.3584 414.9284,176.4124 C414.9284,172.4664 411.7304,169.2684 407.7844,169.2684 C403.8394,169.2684 400.6404,172.4664 400.6404,176.4124" id="Fill-76" fill="#173C6F" mask="url(#mask-2)"></path>
                        <path d="M407.7844,170.3614 C404.4484,170.3614 401.7334,173.0764 401.7334,176.4124 C401.7334,179.7494 404.4484,182.4634 407.7844,182.4634 C411.1214,182.4634 413.8354,179.7494 413.8354,176.4124 C413.8354,173.0764 411.1214,170.3614 407.7844,170.3614 M407.7844,184.6494 C403.2424,184.6494 399.5474,180.9544 399.5474,176.4124 C399.5474,171.8704 403.2424,168.1754 407.7844,168.1754 C412.3264,168.1754 416.0214,171.8704 416.0214,176.4124 C416.0214,180.9544 412.3264,184.6494 407.7844,184.6494" id="Fill-77" fill="#FFFFFF" mask="url(#mask-2)"></path>
                        <polygon id="Fill-78" fill="#FFFFFF" mask="url(#mask-2)" points="420.887 204.5096 419.696 202.7176 428.741 196.7036 429.933 198.4966"></polygon>
                        <polygon id="Fill-79" fill="#FFFFFF" mask="url(#mask-2)" points="418.6882 187.4224 412.4402 181.9344 413.8602 180.3174 420.1082 185.8054"></polygon>
                        <polygon id="Fill-80" fill="#6981A2" mask="url(#mask-2)" points="158.294 123.278 177.183 123.278 177.183 121.092 158.294 121.092"></polygon>
                        <polygon id="Fill-81" fill="#6981A2" mask="url(#mask-2)" points="190.326 115.984 209.215 115.984 209.215 113.798 190.326 113.798"></polygon>
                        <polygon id="Fill-82" fill="#6981A2" mask="url(#mask-2)" points="223.63 125.645 242.519 125.645 242.519 123.459 223.63 123.459"></polygon>
                        <path d="M240.333,88.178 L251.097,88.178 L251.097,69.366 L240.333,69.366 L240.333,88.178 Z M238.147,90.364 L253.283,90.364 L253.283,67.179 L238.147,67.179 L238.147,90.364 Z" id="Fill-83" fill="#6981A2" mask="url(#mask-2)"></path>
                        <path d="M267.782,88.178 L278.546,88.178 L278.546,69.366 L267.782,69.366 L267.782,88.178 Z M265.596,90.364 L280.732,90.364 L280.732,67.179 L265.596,67.179 L265.596,90.364 Z" id="Fill-84" fill="#6981A2" mask="url(#mask-2)"></path>
                        <path d="M295.231,88.178 L305.995,88.178 L305.995,69.366 L295.231,69.366 L295.231,88.178 Z M293.044,90.364 L308.18,90.364 L308.18,67.179 L293.044,67.179 L293.044,90.364 Z" id="Fill-85" fill="#6981A2" mask="url(#mask-2)"></path>
                        <path d="M322.679,88.178 L333.443,88.178 L333.443,69.366 L322.679,69.366 L322.679,88.178 Z M320.493,90.364 L335.63,90.364 L335.63,67.179 L320.493,67.179 L320.493,90.364 Z" id="Fill-86" fill="#6981A2" mask="url(#mask-2)"></path>
                        <path d="M267.782,124.202 L278.546,124.202 L278.546,105.39 L267.782,105.39 L267.782,124.202 Z M265.596,126.388 L280.732,126.388 L280.732,103.203 L265.596,103.203 L265.596,126.388 Z" id="Fill-87" fill="#6981A2" mask="url(#mask-2)"></path>
                        <path d="M295.231,124.202 L305.995,124.202 L305.995,105.39 L295.231,105.39 L295.231,124.202 Z M293.044,126.388 L308.18,126.388 L308.18,103.203 L293.044,103.203 L293.044,126.388 Z" id="Fill-88" fill="#6981A2" mask="url(#mask-2)"></path>
                        <path d="M322.679,124.202 L333.443,124.202 L333.443,105.39 L322.679,105.39 L322.679,124.202 Z M320.493,126.388 L335.63,126.388 L335.63,103.203 L320.493,103.203 L320.493,126.388 Z" id="Fill-89" fill="#6981A2" mask="url(#mask-2)"></path>
                        <path d="M267.782,159.337 L278.546,159.337 L278.546,140.525 L267.782,140.525 L267.782,159.337 Z M265.596,161.523 L280.732,161.523 L280.732,138.338 L265.596,138.338 L265.596,161.523 Z" id="Fill-90" fill="#6981A2" mask="url(#mask-2)"></path>
                        <path d="M295.231,159.337 L305.995,159.337 L305.995,140.525 L295.231,140.525 L295.231,159.337 Z M293.044,161.523 L308.18,161.523 L308.18,138.338 L293.044,138.338 L293.044,161.523 Z" id="Fill-91" fill="#6981A2" mask="url(#mask-2)"></path>
                        <path d="M322.679,159.337 L333.443,159.337 L333.443,140.525 L322.679,140.525 L322.679,159.337 Z M320.493,161.523 L335.63,161.523 L335.63,138.338 L320.493,138.338 L320.493,161.523 Z" id="Fill-92" fill="#6981A2" mask="url(#mask-2)"></path>
                        <path d="M461.6101,237.5225 L1.0931,237.5225 C0.4891,237.5225 0.0001,237.0325 0.0001,236.4295 C0.0001,235.8255 0.4891,235.3365 1.0931,235.3365 L461.6101,235.3365 C462.2141,235.3365 462.7031,235.8255 462.7031,236.4295 C462.7031,237.0325 462.2141,237.5225 461.6101,237.5225" id="Fill-93" fill="#FFFFFF" mask="url(#mask-2)"></path>
                        <path d="M470.47,247.0001 L9.953,247.0001 C9.349,247.0001 8.86,246.5101 8.86,245.9071 C8.86,245.3031 9.349,244.8141 9.953,244.8141 L470.47,244.8141 C471.074,244.8141 471.563,245.3031 471.563,245.9071 C471.563,246.5101 471.074,247.0001 470.47,247.0001" id="Fill-94" fill="#FFFFFF" mask="url(#mask-2)"></path>
                        <polygon id="Fill-95" fill="#6981A2" mask="url(#mask-2)" points="93.705 178.778 95.677 178.778 95.677 102.699 93.705 102.699"></polygon>
                        <polygon id="Fill-96" fill="#173C6F" mask="url(#mask-2)" points="120.259 159.6151 120.522 159.6151 120.522 222.8791 195.94 222.8791 195.94 159.6151 195.976 159.6151 158.118 109.9141"></polygon>
                        <path d="M152.3201,221.4937 L165.6941,221.4937 L165.6941,194.0457 C165.6941,190.3597 162.6941,187.3597 159.0071,187.3597 C155.3201,187.3597 152.3201,190.3597 152.3201,194.0457 L152.3201,221.4937 Z M167.7481,223.5487 L150.2651,223.5487 L150.2651,194.0457 C150.2651,189.2257 154.1871,185.3047 159.0071,185.3047 C163.8271,185.3047 167.7481,189.2257 167.7481,194.0457 L167.7481,223.5487 Z" id="Fill-97" fill="#FFFFFF" mask="url(#mask-2)"></path>
                        <path d="M204.782,160.7086 L195.863,160.7086 C195.522,160.7086 195.2,160.5496 194.993,160.2776 L158.004,111.7186 L121.015,160.2776 C120.809,160.5496 120.487,160.7086 120.146,160.7086 L113.232,160.7086 C112.628,160.7086 112.139,160.2186 112.139,159.6156 C112.139,159.0116 112.628,158.5226 113.232,158.5226 L119.604,158.5226 L157.135,109.2516 C157.548,108.7086 158.46,108.7086 158.874,109.2516 L196.405,158.5226 L204.782,158.5226 C205.386,158.5226 205.875,159.0116 205.875,159.6156 C205.875,160.2186 205.386,160.7086 204.782,160.7086" id="Fill-98" fill="#FFFFFF" mask="url(#mask-2)"></path>
                        <path d="M159.0071,138.721 C157.4661,138.721 155.9261,139.307 154.7531,140.48 C152.4071,142.826 152.4071,146.642 154.7531,148.988 C157.0981,151.333 160.9151,151.333 163.2601,148.988 C165.6061,146.642 165.6061,142.826 163.2601,140.48 C162.0881,139.308 160.5471,138.721 159.0071,138.721 M159.0071,153.363 C156.7961,153.363 154.5851,152.522 152.9021,150.839 C149.5361,147.473 149.5361,141.995 152.9021,138.629 C156.2681,135.263 161.7461,135.263 165.1111,138.629 C168.4781,141.995 168.4781,147.473 165.1111,150.839 C163.4281,152.522 161.2171,153.363 159.0071,153.363" id="Fill-99" fill="#FFFFFF" mask="url(#mask-2)"></path>
                        <path d="M195.8264,223.9854 L120.4084,223.9854 C119.7974,223.9854 119.3024,223.4904 119.3024,222.8794 L119.3024,159.6154 C119.3024,159.0044 119.7974,158.5094 120.4084,158.5094 C121.0194,158.5094 121.5144,159.0044 121.5144,159.6154 L121.5144,221.7734 L194.7204,221.7734 L194.7204,159.6154 C194.7204,159.0044 195.2154,158.5094 195.8264,158.5094 C196.4374,158.5094 196.9324,159.0044 196.9324,159.6154 L196.9324,222.8794 C196.9324,223.4904 196.4374,223.9854 195.8264,223.9854" id="Fill-100" fill="#FFFFFF" mask="url(#mask-2)"></path>
                        <path d="M175.712,200.079 L185.608,200.079 L185.608,168.944 L175.712,168.944 L175.712,200.079 Z M173.526,202.265 L187.795,202.265 L187.795,166.758 L173.526,166.758 L173.526,202.265 Z" id="Fill-101" fill="#FFFFFF" mask="url(#mask-2)"></path>
                        <path d="M132.496,200.079 L142.392,200.079 L142.392,168.944 L132.496,168.944 L132.496,200.079 Z M130.309,202.265 L144.578,202.265 L144.578,166.758 L130.309,166.758 L130.309,202.265 Z" id="Fill-102" fill="#FFFFFF" mask="url(#mask-2)"></path>
                        <polygon id="Fill-103" fill="#FFFFFF" mask="url(#mask-2)" points="131.402 186.33 143.485 186.33 143.485 184.144 131.402 184.144"></polygon>
                        <polygon id="Fill-104" fill="#FFFFFF" mask="url(#mask-2)" points="174.618 186.33 186.701 186.33 186.701 184.144 174.618 184.144"></polygon>
                        <polygon id="Fill-105" fill="#FFFFFF" mask="url(#mask-2)" points="179.567 201.172 181.754 201.172 181.754 167.851 179.567 167.851"></polygon>
                        <polygon id="Fill-106" fill="#FFFFFF" mask="url(#mask-2)" points="136.351 201.172 138.537 201.172 138.537 167.851 136.351 167.851"></polygon>
                        <path d="M152.386,178.94 L165.628,178.94 L165.628,173.702 L152.386,173.702 L152.386,178.94 Z M150.199,181.126 L167.814,181.126 L167.814,171.515 L150.199,171.515 L150.199,181.126 Z" id="Fill-107" fill="#FFFFFF" mask="url(#mask-2)"></path>
                        <polygon id="Fill-108" fill="#173C6F" mask="url(#mask-2)" points="90.4905 148.3094 118.7075 175.9764 62.2735 175.9764"></polygon>
                        <path d="M64.95,174.8826 L116.031,174.8826 L90.491,149.8406 L64.95,174.8826 Z M118.707,177.0686 L62.274,177.0686 C61.83,177.0686 61.429,176.8006 61.262,176.3896 C61.094,175.9776 61.191,175.5066 61.508,175.1946 L89.725,147.5286 C90.151,147.1116 90.831,147.1116 91.256,147.5286 L119.473,175.1946 C119.79,175.5066 119.887,175.9776 119.72,176.3896 C119.552,176.8006 119.151,177.0686 118.707,177.0686 L118.707,177.0686 Z" id="Fill-109" fill="#FFFFFF" mask="url(#mask-2)"></path>
                        <polygon id="Fill-110" fill="#173C6F" mask="url(#mask-2)" points="62.274 222.316 118.708 222.316 118.708 175.976 62.274 175.976"></polygon>
                        <path d="M63.367,221.223 L117.614,221.223 L117.614,177.069 L63.367,177.069 L63.367,221.223 Z M118.707,223.409 L62.274,223.409 C61.67,223.409 61.18,222.919 61.18,222.316 L61.18,175.976 C61.18,175.372 61.67,174.883 62.274,174.883 L118.707,174.883 C119.311,174.883 119.801,175.372 119.801,175.976 L119.801,222.316 C119.801,222.919 119.311,223.409 118.707,223.409 L118.707,223.409 Z" id="Fill-111" fill="#FFFFFF" mask="url(#mask-2)"></path>
                        <path d="M99.257,197.048 L108.394,197.048 L108.394,186.667 L99.257,186.667 L99.257,197.048 Z M97.07,199.234 L110.58,199.234 L110.58,184.481 L97.07,184.481 L97.07,199.234 Z" id="Fill-112" fill="#FFFFFF" mask="url(#mask-2)"></path>
                        <path d="M77.874,221.223 L88.661,221.223 L88.661,196.824 L77.874,196.824 L77.874,221.223 Z M75.687,223.409 L90.846,223.409 L90.846,194.638 L75.687,194.638 L75.687,223.409 Z" id="Fill-113" fill="#FFFFFF" mask="url(#mask-2)"></path>
                        <path d="M67.6775,171.669 C67.0735,171.669 66.5845,171.179 66.5845,170.576 L66.5845,154.641 C66.5845,154.037 67.0735,153.548 67.6775,153.548 L77.1405,153.548 C77.7445,153.548 78.2345,154.037 78.2345,154.641 L78.2345,161.399 C78.2345,162.002 77.7445,162.492 77.1405,162.492 C76.5365,162.492 76.0475,162.002 76.0475,161.399 L76.0475,155.734 L68.7705,155.734 L68.7705,170.576 C68.7705,171.179 68.2815,171.669 67.6775,171.669" id="Fill-114" fill="#FFFFFF" mask="url(#mask-2)"></path>
                        <path d="M20.616,178.764 C20.616,185.896 26.398,191.678 33.53,191.678 C40.662,191.678 46.444,185.896 46.444,178.764 C46.444,171.632 40.662,165.85 33.53,165.85 C26.398,165.85 20.616,171.632 20.616,178.764" id="Fill-115" fill="#173C6F" mask="url(#mask-2)"></path>
                        <path d="M33.5295,166.9434 C27.0115,166.9434 21.7095,172.2454 21.7095,178.7644 C21.7095,185.2824 27.0115,190.5844 33.5295,190.5844 C40.0475,190.5844 45.3505,185.2824 45.3505,178.7644 C45.3505,172.2454 40.0475,166.9434 33.5295,166.9434 M33.5295,192.7704 C25.8065,192.7704 19.5225,186.4874 19.5225,178.7644 C19.5225,171.0404 25.8065,164.7574 33.5295,164.7574 C41.2535,164.7574 47.5365,171.0404 47.5365,178.7644 C47.5365,186.4874 41.2535,192.7704 33.5295,192.7704" id="Fill-116" fill="#FFFFFF" mask="url(#mask-2)"></path>
                        <polygon id="Fill-117" fill="#FFFFFF" mask="url(#mask-2)" points="32.437 223.224 34.623 223.224 34.623 175.062 32.437 175.062"></polygon>
                        <path d="M22.533,189.8751 C20.419,189.8751 18.699,191.5951 18.699,193.7101 C18.699,195.8241 20.419,197.5451 22.533,197.5451 C24.648,197.5451 26.368,195.8241 26.368,193.7101 C26.368,191.5951 24.648,189.8751 22.533,189.8751 M22.533,199.7311 C19.213,199.7311 16.512,197.0301 16.512,193.7101 C16.512,190.3901 19.213,187.6891 22.533,187.6891 C25.853,187.6891 28.554,190.3901 28.554,193.7101 C28.554,197.0301 25.853,199.7311 22.533,199.7311" id="Fill-118" fill="#FFFFFF" mask="url(#mask-2)"></path>
                        <polygon id="Fill-119" fill="#FFFFFF" mask="url(#mask-2)" points="34.2522 186.6065 32.8072 184.9655 40.0622 178.5765 41.5072 180.2175"></polygon>
                        <polygon id="Fill-120" fill="#FFFFFF" mask="url(#mask-2)" points="32.4431 203.452 24.8601 197.089 26.2651 195.414 33.8481 201.777"></polygon>
                        <polygon id="Fill-121" fill="#365682" mask="url(#mask-2)" points="274.019 44.67 276.218 44.67 276.218 37.773 274.019 37.773"></polygon>
                        <polygon id="Fill-122" fill="#365682" mask="url(#mask-2)" points="286.049 44.67 288.248 44.67 288.248 37.773 286.049 37.773"></polygon>
                        <path d="M281.4495,9.0611 C269.6345,9.0611 260.0555,14.1231 260.0555,14.1231 L260.0555,37.7731 L302.8435,37.7731 L302.8435,14.1231 C302.8435,14.1231 293.2645,9.0611 281.4495,9.0611" id="Fill-123" fill="#173C6F" mask="url(#mask-2)"></path>
                        <path d="M261.0959,36.733 L301.8029,36.733 L301.8029,14.77 C299.6209,13.733 291.2739,10.101 281.4499,10.101 C271.6249,10.101 263.2779,13.733 261.0959,14.77 L261.0959,36.733 Z M303.8829,38.813 L259.0159,38.813 L259.0159,13.497 L259.5699,13.204 C259.9699,12.992 269.5129,8.021 281.4499,8.021 C293.3859,8.021 302.9289,12.992 303.3289,13.204 L303.8829,13.497 L303.8829,38.813 Z" id="Fill-124" fill="#365682" mask="url(#mask-2)"></path>
                        <polygon id="Fill-125" fill="#365682" mask="url(#mask-2)" points="259.412 32.813 303.352 32.813 303.352 30.721 259.412 30.721"></polygon>
                        <polygon id="Fill-126" fill="#365682" mask="url(#mask-2)" points="259.412 14.806 303.352 14.806 303.352 12.714 259.412 12.714"></polygon>
                        <polygon id="Fill-127" fill="#173C6F" mask="url(#mask-2)" points="333.7971 147.1419 247.9201 147.1419 237.3441 171.1079 344.3731 171.1079"></polygon>
                        <path d="M239.0364,170.0042 L342.6804,170.0042 L333.0784,148.2452 L248.6384,148.2452 L239.0364,170.0042 Z M344.3724,172.2112 L237.3444,172.2112 C236.9714,172.2112 236.6234,172.0222 236.4194,171.7102 C236.2164,171.3972 236.1844,171.0032 236.3344,170.6622 L246.9104,146.6962 C247.0864,146.2962 247.4824,146.0382 247.9194,146.0382 L333.7974,146.0382 C334.2344,146.0382 334.6304,146.2962 334.8064,146.6962 L345.3824,170.6622 C345.5334,171.0032 345.5004,171.3972 345.2974,171.7102 C345.0934,172.0222 344.7454,172.2112 344.3724,172.2112 L344.3724,172.2112 Z" id="Fill-128" fill="#FFFFFF" mask="url(#mask-2)"></path>
                    </g>
                </g>
            </g>
        </g>
    </g>
</svg>