<svg xmlns="http://www.w3.org/2000/svg" xmlns:xlink="http://www.w3.org/1999/xlink" viewBox="0 0 482 247"><defs><path id="a" d="M0 247h481.048V.651H0z"/></defs><g fill="none" fill-rule="evenodd"><path fill="#173C6F" d="M133.004 55.391h14.432V39.656h-14.432z"/><path d="M133.777 54.618h12.886v-14.19h-12.886v14.19zm-1.546 1.546h15.978V38.883h-15.978v17.281z" fill="#365682"/><path d="M42.515 220.585h111.937V21.266H42.515v199.319zm-2.238 2.238H156.69V19.028H40.277v203.795zm172.386-2.109h99.689V45.493h-99.689v175.221zm-1.98 1.98h103.649V43.512H210.683v179.182z" fill="#365682"/><path d="M268.173 43.403h26.568v-5.181h-26.568v5.181zm-2.199 2.199h30.965v-9.578h-30.965v9.578z" fill="#365682"/><path fill="#173C6F" d="M52.623 55.391h14.432V39.656H52.623z"/><path d="M53.396 54.618h12.886v-14.19H53.396v14.19zm-1.546 1.546h15.978V38.883H51.85v17.281z" fill="#365682"/><path fill="#173C6F" d="M52.623 82.037h14.432V66.302H52.623z"/><path d="M53.396 81.264h12.886V67.075H53.396v14.189zM51.85 82.81h15.978V65.529H51.85V82.81z" fill="#365682"/><path fill="#173C6F" d="M79.417 55.391h14.432V39.656H79.417z"/><path d="M80.19 54.618h12.886v-14.19H80.19v14.19zm-1.546 1.546h15.978V38.883H78.644v17.281z" fill="#365682"/><path fill="#173C6F" d="M55.715 20.147h34.433V8.971H55.715z"/><path d="M56.808 19.054h32.247v-8.99H56.808v8.99zm-2.187 2.186H91.24V7.877H54.621V21.24z" fill="#365682"/><path fill="#173C6F" d="M90.148 20.147h50.885V1.093H90.148z"/><path d="M89.054 21.24h53.071V0H89.054v21.24zm2.186-2.186h48.7V2.186h-48.7v16.868z" fill="#365682"/><path fill="#173C6F" d="M106.21 55.391h14.432V39.656H106.21z"/><path d="M106.984 54.618h12.886v-14.19h-12.886v14.19zm-1.546 1.546h15.977V38.883h-15.977v17.281z" fill="#365682"/><path fill="#173C6F" d="M79.572 82.037h14.432V66.302H79.572z"/><path d="M80.345 81.264h12.886V67.075H80.345v14.189zm-1.546 1.546h15.978V65.529H78.799V82.81z" fill="#365682"/><path fill="#173C6F" d="M106.21 82.037h14.432V66.302H106.21z"/><path d="M106.984 81.264h12.886V67.075h-12.886v14.189zm-1.546 1.546h15.977V65.529h-15.977V82.81z" fill="#365682"/><path fill="#173C6F" d="M112.653 221.704h75.977V53.307h-75.977z"/><path d="M113.746 220.611h73.791V54.4h-73.791v166.211zm-2.186 2.186h78.163V52.214H111.56v170.583z" fill="#365682"/><path fill="#365682" d="M122.441 68.607h56.402v-1.972h-56.402zm0 12.659h34.193v-1.972h-34.193z"/><path fill="#173C6F" d="M52.623 107.753h14.432V92.017H52.623z"/><path d="M53.396 106.98h12.886V92.79H53.396v14.19zm-1.546 1.546h15.978V91.245H51.85v17.281z" fill="#365682"/><path fill="#173C6F" d="M52.623 134.363h14.432v-15.735H52.623z"/><path d="M53.396 133.591h12.886v-14.19H53.396v14.19zm-1.546 1.545h15.978v-17.281H51.85v17.281z" fill="#365682"/><path fill="#173C6F" d="M52.623 160.974h14.432v-15.735H52.623z"/><path d="M53.396 160.201h12.886v-14.19H53.396v14.19zm-1.546 1.546h15.978v-17.281H51.85v17.281z" fill="#365682"/><path fill="#173C6F" d="M52.623 187.584h14.432v-15.735H52.623z"/><path d="M53.396 186.811h12.886v-14.189H53.396v14.189zm-1.546 1.546h15.978v-17.281H51.85v17.281z" fill="#365682"/><path fill="#173C6F" d="M79.572 107.548h14.432V91.813H79.572z"/><path d="M80.345 106.775h12.886V92.586H80.345v14.189zm-1.546 1.545h15.978V91.039H78.799v17.281z" fill="#365682"/><path fill="#173C6F" d="M224.705 64.493L68.32 100.762v120.942h156.386z"/><path d="M69.524 220.5H223.5V66.007L69.524 101.72V220.5zm156.386 2.408H67.115V99.804L225.91 62.976v159.932z" fill="#6981A2"/><path fill="#6981A2" d="M68.319 103.035h75.166v-1.972H68.319zm0 18.553h26.372v-1.972H68.319zm0 18.554h26.372v-1.972H68.319zm0 18.554h26.372v-1.972H68.319zm0 19.647h26.372v-1.972H68.319z"/><g transform="translate(0 -.651)"><path d="M333.634 32.833l44.443 44.444-47.704 47.704c-13.807 13.807-13.472 36.526.747 50.746 14.22 14.219 36.939 14.554 50.746.747l47.705-47.704 51.477 51.477-2.242-152.206-152.278-2.093 7.106 6.885z" fill-opacity=".25" fill="#6981A2"/><mask id="b" fill="#fff"><use xlink:href="#a"/></mask><path fill="#173C6F" mask="url(#b)" d="M231.277 222.355h114.175V53.958H231.277z"/><path d="M232.371 221.262H344.36V55.051H232.371v166.211zm-2.186 2.186h116.361V52.865H230.185v170.583z" fill="#6981A2" mask="url(#b)"/><path fill="#173C6F" mask="url(#b)" d="M144.028 222.355h111.486V98.505H144.028z"/><path d="M145.12 221.262h109.3V99.598h-109.3v121.664zm110.394 2.186H144.028a1.093 1.093 0 01-1.094-1.093V98.505c0-.604.49-1.093 1.094-1.093h111.486c.603 0 1.093.489 1.093 1.093v123.85c0 .604-.49 1.093-1.093 1.093z" fill="#6981A2" mask="url(#b)"/><path d="M155.727 198.759h20.362v-25.624h-20.362v25.624zm-2.185 2.186h24.734v-29.996h-24.734v29.996zm101.972-69.425H144.028a1.094 1.094 0 010-2.187h111.486a1.093 1.093 0 110 2.186m0 29.179H144.028a1.094 1.094 0 010-2.186h111.486a1.093 1.093 0 110 2.186" fill="#6981A2" mask="url(#b)"/><path fill="#6981A2" mask="url(#b)" d="M154.635 182.06h22.548v-2.186h-22.548zm70.088 16.699h20.362v-25.624h-20.362v25.624zm-2.185 2.186h24.734v-29.996h-24.734v29.996z"/><path fill="#6981A2" mask="url(#b)" d="M223.63 182.06h22.548v-2.186H223.63zm-37.394 39.202h28.341v-36.838h-28.341v36.838zm-2.187 2.186h32.714v-41.211h-32.714v41.211z"/><path fill="#6981A2" mask="url(#b)" d="M204.51 222.355h2.186v-39.024h-2.186zm-45.123-93.022h16.703v-21.959h-16.703v21.959zm-2.186 2.186h21.075v-26.331h-21.075v26.331zm34.218-2.186h16.703v-21.959h-16.703v21.959zm-2.186 2.186h21.075v-26.331h-21.075v26.331zm35.49-2.186h16.703v-21.959h-16.703v21.959zm-2.185 2.186h21.075v-26.331h-21.075v26.331z"/><path fill="#173C6F" mask="url(#b)" d="M389.263 171.107h-44.89v12.224h49.812z"/><path d="M345.61 182.093h46.743l-3.925-9.748H345.61v9.748zm48.576 2.475h-49.813a1.237 1.237 0 01-1.237-1.237v-12.224c0-.683.554-1.237 1.237-1.237h44.89c.506 0 .96.306 1.149.775l4.922 12.223a1.24 1.24 0 01-1.148 1.7z" fill="#FFF" mask="url(#b)"/><path fill="#173C6F" mask="url(#b)" d="M237.344 222.355h107.029v-51.248H237.344z"/><path d="M238.42 221.279h104.876v-49.095H238.42v49.095zm105.953 2.152H237.344a1.076 1.076 0 01-1.076-1.076v-51.248c0-.594.482-1.076 1.076-1.076h107.029c.594 0 1.076.482 1.076 1.076v51.248c0 .594-.482 1.076-1.076 1.076z" fill="#FFF" mask="url(#b)"/><path fill="#173C6F" mask="url(#b)" d="M344.372 222.355h49.813V183.33h-49.813z"/><path d="M345.466 221.262h47.626v-36.838h-47.626v36.838zm48.719 2.186h-49.812a1.093 1.093 0 01-1.093-1.093v-39.024c0-.604.489-1.094 1.093-1.094h49.812c.604 0 1.094.49 1.094 1.094v39.024c0 .604-.49 1.093-1.094 1.093zm-146.818-1.093h2.152v-51.248h-2.152zm85.515 0h2.152v-51.248h-2.152zm-22.265-25.167h10.371v-18.762h-10.371v18.762zm-2.152 2.152h14.675v-23.067h-14.675v23.067zm-47.377-2.152h10.371v-18.762h-10.371v18.762zm-2.152 2.152h14.674v-23.067h-14.674v23.067zm23.934 21.939h15.977V194.03H282.87v27.249zm-2.153 2.152h20.282v-31.553h-20.282v31.553z" fill="#FFF" mask="url(#b)"/><path fill="#FFF" mask="url(#b)" d="M344.372 196.803h49.813v-2.186h-49.813zm0 12.955h49.813v-2.186h-49.813zm73.95 13.466h2.152v-45.006h-2.152z"/><path d="M419.398 166.926c-6.527 0-11.837 5.31-11.837 11.838 0 6.527 5.31 11.837 11.837 11.837s11.838-5.31 11.838-11.837c0-6.528-5.31-11.838-11.838-11.838m0 25.827c-7.714 0-13.99-6.275-13.99-13.989s6.276-13.99 13.99-13.99 13.99 6.276 13.99 13.99-6.276 13.99-13.99 13.99" fill="#FFF" mask="url(#b)"/><path d="M400.64 176.412a7.144 7.144 0 1014.288 0 7.144 7.144 0 00-14.288 0" fill="#173C6F" mask="url(#b)"/><path d="M407.784 170.361a6.059 6.059 0 00-6.05 6.051 6.058 6.058 0 006.05 6.051 6.057 6.057 0 006.051-6.05 6.058 6.058 0 00-6.05-6.052m0 14.288c-4.543 0-8.238-3.695-8.238-8.237s3.695-8.237 8.237-8.237 8.237 3.695 8.237 8.237-3.695 8.237-8.237 8.237m13.103 19.861l-1.191-1.792 9.045-6.014 1.192 1.793z" fill="#FFF" mask="url(#b)"/><path fill="#FFF" mask="url(#b)" d="M418.688 187.422l-6.248-5.488 1.42-1.617 6.248 5.488z"/><path fill="#6981A2" mask="url(#b)" d="M158.294 123.278h18.889v-2.186h-18.889zm32.032-7.294h18.889v-2.186h-18.889zm33.304 9.661h18.889v-2.186H223.63zm16.703-37.467h10.764V69.366h-10.764v18.812zm-2.186 2.186h15.136V67.179h-15.136v23.185zm29.635-2.186h10.764V69.366h-10.764v18.812zm-2.186 2.186h15.136V67.179h-15.136v23.185zm29.635-2.186h10.764V69.366h-10.764v18.812zm-2.187 2.186h15.136V67.179h-15.136v23.185zm29.635-2.186h10.764V69.366h-10.764v18.812zm-2.186 2.186h15.137V67.179h-15.137v23.185zm-52.711 33.838h10.764V105.39h-10.764v18.812zm-2.186 2.186h15.136v-23.185h-15.136v23.185zm29.635-2.186h10.764V105.39h-10.764v18.812zm-2.187 2.186h15.136v-23.185h-15.136v23.185zm29.635-2.186h10.764V105.39h-10.764v18.812zm-2.186 2.186h15.137v-23.185h-15.137v23.185zm-52.711 32.949h10.764v-18.812h-10.764v18.812zm-2.186 2.186h15.136v-23.185h-15.136v23.185zm29.635-2.186h10.764v-18.812h-10.764v18.812zm-2.187 2.186h15.136v-23.185h-15.136v23.185zm29.635-2.186h10.764v-18.812h-10.764v18.812zm-2.186 2.186h15.137v-23.185h-15.137v23.185z"/><path d="M461.61 237.523H1.093a1.093 1.093 0 010-2.186H461.61a1.093 1.093 0 110 2.186m8.86 9.477H9.953a1.093 1.093 0 010-2.186H470.47a1.093 1.093 0 110 2.186" fill="#FFF" mask="url(#b)"/><path fill="#6981A2" mask="url(#b)" d="M93.705 178.778h1.972v-76.079h-1.972z"/><path fill="#173C6F" mask="url(#b)" d="M120.259 159.615h.263v63.264h75.418v-63.264h.036l-37.858-49.7z"/><path d="M152.32 221.494h13.374v-27.448c0-3.686-3-6.686-6.687-6.686-3.687 0-6.687 3-6.687 6.686v27.448zm15.428 2.055h-17.483v-29.503c0-4.82 3.922-8.741 8.742-8.741s8.741 3.92 8.741 8.74v29.504zm37.034-62.84h-8.919c-.341 0-.663-.16-.87-.431l-36.989-48.56-36.989 48.56a1.09 1.09 0 01-.869.43h-6.914a1.093 1.093 0 010-2.185h6.372l37.531-49.271c.413-.543 1.325-.543 1.739 0l37.531 49.27h8.377a1.093 1.093 0 110 2.187" fill="#FFF" mask="url(#b)"/><path d="M159.007 138.721a5.996 5.996 0 00-4.254 1.759 6.022 6.022 0 000 8.508 6.023 6.023 0 008.507 0 6.022 6.022 0 000-8.508 5.998 5.998 0 00-4.253-1.759m0 14.642a8.606 8.606 0 01-6.105-2.524c-3.366-3.366-3.366-8.844 0-12.21 3.366-3.366 8.844-3.366 12.21 0 3.366 3.366 3.366 8.844 0 12.21a8.606 8.606 0 01-6.105 2.524m36.819 70.622h-75.418a1.106 1.106 0 01-1.106-1.106v-63.264a1.106 1.106 0 112.212 0v62.158h73.206v-62.158a1.106 1.106 0 112.212 0v63.264c0 .611-.495 1.106-1.106 1.106" fill="#FFF" mask="url(#b)"/><path d="M175.712 200.079h9.896v-31.135h-9.896v31.135zm-2.186 2.186h14.269v-35.507h-14.269v35.507zm-41.03-2.186h9.896v-31.135h-9.896v31.135zm-2.187 2.186h14.269v-35.507h-14.269v35.507z" fill="#FFF" mask="url(#b)"/><path fill="#FFF" mask="url(#b)" d="M131.402 186.33h12.083v-2.186h-12.083zm43.216 0h12.083v-2.186h-12.083z"/><path fill="#FFF" mask="url(#b)" d="M179.567 201.172h2.187v-33.321h-2.187zm-43.216 0h2.186v-33.321h-2.186zm16.035-22.232h13.242v-5.238h-13.242v5.238zm-2.187 2.186h17.615v-9.611h-17.615v9.611z"/><path fill="#173C6F" mask="url(#b)" d="M90.49 148.31l28.218 27.666H62.273z"/><path d="M64.95 174.883h51.081l-25.54-25.042-25.541 25.042zm53.757 2.186H62.274a1.092 1.092 0 01-.766-1.874l28.217-27.666a1.093 1.093 0 011.531 0l28.217 27.666a1.094 1.094 0 01-.766 1.874z" fill="#FFF" mask="url(#b)"/><path fill="#173C6F" mask="url(#b)" d="M62.274 222.316h56.434v-46.34H62.274z"/><path d="M63.367 221.223h54.247v-44.154H63.367v44.154zm55.34 2.186H62.274c-.604 0-1.094-.49-1.094-1.093v-46.34c0-.604.49-1.093 1.094-1.093h56.433c.604 0 1.094.489 1.094 1.093v46.34c0 .603-.49 1.093-1.094 1.093z" fill="#FFF" mask="url(#b)"/><path d="M99.257 197.048h9.137v-10.381h-9.137v10.381zm-2.187 2.186h13.51v-14.753H97.07v14.753zm-19.196 21.989h10.787v-24.399H77.874v24.399zm-2.187 2.186h15.159v-28.771H75.687v28.771zm-8.01-51.74c-.604 0-1.093-.49-1.093-1.093v-15.935c0-.604.49-1.093 1.093-1.093h9.463c.605 0 1.094.489 1.094 1.093v6.758a1.094 1.094 0 01-2.186 0v-5.665H68.77v14.842c0 .603-.489 1.093-1.093 1.093" fill="#FFF" mask="url(#b)"/><path d="M20.616 178.764c0 7.132 5.782 12.914 12.914 12.914s12.914-5.782 12.914-12.914-5.782-12.914-12.914-12.914-12.914 5.782-12.914 12.914" fill="#173C6F" mask="url(#b)"/><path d="M33.53 166.943c-6.518 0-11.82 5.302-11.82 11.821 0 6.518 5.302 11.82 11.82 11.82 6.517 0 11.82-5.302 11.82-11.82 0-6.519-5.303-11.82-11.82-11.82m0 25.826c-7.724 0-14.008-6.283-14.008-14.006 0-7.724 6.285-14.007 14.008-14.007 7.724 0 14.006 6.283 14.006 14.007 0 7.723-6.282 14.006-14.007 14.006" fill="#FFF" mask="url(#b)"/><path fill="#FFF" mask="url(#b)" d="M32.437 223.224h2.186v-48.162h-2.186zm-9.904-33.349a3.839 3.839 0 00-3.834 3.835 3.84 3.84 0 003.834 3.835 3.84 3.84 0 003.835-3.835 3.839 3.839 0 00-3.835-3.835m0 9.856a6.028 6.028 0 01-6.021-6.02 6.028 6.028 0 016.021-6.022 6.028 6.028 0 016.021 6.021 6.028 6.028 0 01-6.021 6.021"/><path fill="#FFF" mask="url(#b)" d="M34.252 186.607l-1.445-1.642 7.255-6.388 1.445 1.64zm-1.809 16.845l-7.583-6.363 1.405-1.675 7.583 6.363z"/><path fill="#365682" mask="url(#b)" d="M274.019 44.67h2.199v-6.897h-2.199zm12.03 0h2.199v-6.897h-2.199z"/><path d="M281.45 9.061c-11.815 0-21.394 5.062-21.394 5.062v23.65h42.788v-23.65s-9.58-5.062-21.394-5.062" fill="#173C6F" mask="url(#b)"/><path d="M261.096 36.733h40.707V14.77c-2.182-1.037-10.53-4.669-20.353-4.669-9.825 0-18.172 3.632-20.354 4.669v21.963zm42.787 2.08h-44.867V13.497l.554-.293c.4-.212 9.943-5.183 21.88-5.183 11.936 0 21.479 4.971 21.879 5.183l.554.293v25.316z" fill="#365682" mask="url(#b)"/><path fill="#365682" mask="url(#b)" d="M259.412 32.813h43.94v-2.092h-43.94zm0-18.007h43.94v-2.092h-43.94z"/><path fill="#173C6F" mask="url(#b)" d="M333.797 147.142H247.92l-10.576 23.966h107.03z"/><path d="M239.036 170.004H342.68l-9.602-21.759h-84.44l-9.602 21.76zm105.336 2.207H237.344a1.106 1.106 0 01-1.01-1.549l10.576-23.966c.176-.4.572-.658 1.01-.658h85.877c.437 0 .833.258 1.01.658l10.575 23.966a1.104 1.104 0 01-1.01 1.55z" fill="#FFF" mask="url(#b)"/></g></g></svg>