<?xml version="1.0" encoding="UTF-8"?>
<svg width="91px" height="64px" viewBox="0 0 91 64" version="1.1" xmlns="http://www.w3.org/2000/svg" xmlns:xlink="http://www.w3.org/1999/xlink">
    <!-- Generator: Sketch 59 (86127) - https://sketch.com -->
    <title>home-graphic-03</title>
    <desc>Created with Sketch.</desc>
    <defs>
        <polygon id="path-1" points="0.867805321 0.561599979 55.617118 0.561599979 55.617118 55.3114675 0.867805321 55.3114675"></polygon>
        <polygon id="path-3" points="0 64.3499976 90.7171167 64.3499976 90.7171167 0.561599979 0 0.561599979"></polygon>
    </defs>
    <g id="Design" stroke="none" stroke-width="1" fill="none" fill-rule="evenodd">
        <g id="Homepage---Mobile" transform="translate(-263.000000, -1013.000000)">
            <g id="home-graphic-03" transform="translate(263.000000, 1012.000000)">
                <polygon id="Fill-1" fill="#173C6F" points="16.2025104 63.4441837 18.4407203 64.9581636 27.85922 51.0293141 25.6221801 49.5153342"></polygon>
                <polygon id="Fill-2" fill="#173C6F" points="31.5326688 38.7457186 53.538028 38.7457186 53.538028 36.1284287 31.5326688 36.1284287"></polygon>
                <g id="Group-18" transform="translate(0.000000, 0.608400)">
                    <g id="Group-5" transform="translate(35.099999, 0.000000)">
                        <mask id="mask-2" fill="white">
                            <use xlink:href="#path-1"></use>
                        </mask>
                        <g id="Clip-4"></g>
                        <path d="M3.60371687,0.561599979 L20.9396062,17.8974893 L4.44143684,34.3956587 C-0.333332988,39.1715986 -0.321632988,46.9240183 4.46600684,51.7128281 C9.25481666,56.5016379 17.0072364,56.5121679 21.7820062,51.7373981 L38.2813456,35.2380587 L55.617235,52.5751181 L55.543525,0.635309977 L3.60371687,0.561599979 Z" id="Fill-3" fill="#B7A9D3" mask="url(#mask-2)"></path>
                    </g>
                    <mask id="mask-4" fill="white">
                        <use xlink:href="#path-3"></use>
                    </mask>
                    <g id="Clip-7"></g>
                    <path d="M4.57235983,48.2192082 L59.8981478,48.2192082 L59.8981478,11.2670996 L4.57235983,11.2670996 L4.57235983,48.2192082 Z M1.68362994,51.1079381 L62.7868777,51.1079381 L62.7868777,8.37953969 L1.68362994,8.37953969 L1.68362994,51.1079381 Z" id="Fill-6" fill="#173C6F" mask="url(#mask-4)"></path>
                    <polygon id="Fill-8" fill="#173C6F" mask="url(#mask-4)" points="31.5326688 22.6640692 61.3430977 22.6640692 61.3430977 20.0467793 31.5326688 20.0467793"></polygon>
                    <polygon id="Fill-9" fill="#173C6F" mask="url(#mask-4)" points="31.5326688 30.4001089 61.3430977 30.4001089 61.3430977 27.782819 31.5326688 27.782819"></polygon>
                    <polygon id="Fill-10" fill="#173C6F" mask="url(#mask-4)" points="30.1274989 9.82331964 32.9390088 9.82331964 32.9390088 5.98805978 30.1274989 5.98805978"></polygon>
                    <path d="M10.8646196,36.1962887 L23.7673791,36.1962887 L23.7673791,23.2923591 L10.8646196,23.2923591 L10.8646196,36.1962887 Z M8.35262969,38.7094486 L26.280539,38.7094486 L26.280539,20.7803692 L8.35262969,20.7803692 L8.35262969,38.7094486 Z" id="Fill-11" fill="#173C6F" mask="url(#mask-4)"></path>
                    <polygon id="Fill-12" fill="#7E6BAC" mask="url(#mask-4)" points="17.2917804 35.8135817 10.9258106 29.3130619 14.5153705 25.7960421 17.1420204 28.477682 25.6514301 19.0474823 29.3825599 22.4147422"></polygon>
                    <polygon id="Fill-13" fill="#173C6F" mask="url(#mask-4)" points="17.2541064 33.9200538 11.8522166 28.404674 13.5884965 26.704664 17.1803964 30.3714439 26.615276 19.9163243 28.418246 21.5449642"></polygon>
                    <polygon id="Fill-14" fill="#173C6F" mask="url(#mask-4)" points="0 11.0693696 65.0309376 11.0693696 65.0309376 8.2999797 0 8.2999797"></polygon>
                    <polygon id="Fill-15" fill="#173C6F" mask="url(#mask-4)" points="0 51.1079381 65.0309376 51.1079381 65.0309376 48.2203782 0 48.2203782"></polygon>
                    <polygon id="Fill-17" fill="#173C6F" mask="url(#mask-4)" points="45.3180763 64.3499976 35.8995767 50.4199782 38.1377866 48.9071682 47.5562863 62.8360177"></polygon>
                </g>
            </g>
        </g>
    </g>
</svg>