<svg width="80" height="64" xmlns="http://www.w3.org/2000/svg" xmlns:xlink="http://www.w3.org/1999/xlink"><defs><path id="a" d="M.132.128H54.43v54.297H.132z"/><path id="c" d="M0 .822h69.173V38.61H0z"/></defs><g fill="none" fill-rule="evenodd"><path fill="#173C6F" d="M.405 12.956V62.39h2.462V15.418h18.348l2.017 7.12H57.78l-1.178 2.69 2.254.988 2.692-6.142H25.094l-2.018-7.118z"/><path d="M.124 12.674V62.67H3.15V15.7h17.852l2.018 7.12h34.329l-1.12 2.552 2.772 1.214 2.978-6.793H25.306l-2.017-7.12H.124zm.564.564h22.175l2.017 7.118h36.235l-2.405 5.487-1.739-.76 1.24-2.828H23.444l-2.017-7.12H2.586v46.973H.688v-48.87z" fill="#173C6F"/><g transform="translate(25.57)"><mask id="b" fill="#fff"><use xlink:href="#a"/></mask><path d="M2.282.127l17.38 17.381L3.556 33.616c-4.662 4.661-4.549 12.332.253 17.133 4.8 4.8 12.47 4.914 17.133.253L37.05 34.895l17.38 17.381v-.001L53.673.884 2.282.127z" fill="#B7A9D3" mask="url(#b)"/></g><path d="M3.958 60.516h48.528l12.728-32.46H16.687L3.958 60.516zm50.209 2.388H.405l14.602-37.236h53.76l-14.6 37.236z" fill="#173C6F"/><g transform="translate(0 24.57)"><mask id="d" fill="#fff"><use xlink:href="#c"/></mask><path d="M4.364 35.67h47.934l12.51-31.908H16.876L4.364 35.67zm48.31.552H3.554L16.497 3.21H65.62L52.674 36.222zM.811 38.057h53.167L68.362 1.374H15.195L.81 38.057zm53.544.553H0l.148-.377L14.818.822h54.355l-.148.377-14.67 37.41z" fill="#173C6F" mask="url(#d)"/></g></g></svg>