<svg width="91" height="64" xmlns="http://www.w3.org/2000/svg" xmlns:xlink="http://www.w3.org/1999/xlink"><defs><path id="a" d="M.868.562h54.75v54.75H.867z"/><path id="c" d="M0 64.35h90.717V.562H0z"/></defs><g fill="none" fill-rule="evenodd"><path fill="#173C6F" d="M16.203 62.444l2.238 1.514 9.418-13.929-2.237-1.514zm15.33-24.698h22.005v-2.618H31.533z"/><g transform="translate(0 -.392)"><g transform="translate(35.1)"><mask id="b" fill="#fff"><use xlink:href="#a"/></mask><path d="M3.604.562L20.94 17.897 4.44 34.396c-4.774 4.776-4.763 12.528.025 17.317 4.789 4.789 12.541 4.8 17.316.024l16.5-16.499 17.335 17.337-.073-51.94L3.604.562z" fill="#B7A9D3" mask="url(#b)"/></g><mask id="d" fill="#fff"><use xlink:href="#c"/></mask><path d="M4.572 48.22h55.326V11.266H4.572V48.22zm-2.888 2.888h61.103V8.38H1.684v42.728z" fill="#173C6F" mask="url(#d)"/><path fill="#173C6F" mask="url(#d)" d="M31.533 22.664h29.81v-2.617h-29.81zm0 7.736h29.81v-2.617h-29.81zM30.127 9.823h2.812V5.988h-2.812zM10.865 36.196h12.902V23.292H10.865v12.904zM8.353 38.71H26.28V20.78H8.353v17.93z"/><path fill="#7E6BAC" mask="url(#d)" d="M17.292 35.814l-6.366-6.5 3.59-3.518 2.626 2.682 8.51-9.43 3.73 3.367z"/><path fill="#173C6F" mask="url(#d)" d="M17.254 33.92l-5.402-5.515 1.736-1.7 3.592 3.666 9.435-10.455 1.803 1.629zM0 11.07h65.03V8.3H0zm0 40.038h65.03V48.22H0z"/><path fill="#173C6F" mask="url(#d)" d="M45.318 64.35L35.9 50.42l2.238-1.513 9.418 13.929z"/></g></g></svg>