<?xml version="1.0" encoding="UTF-8"?>
<svg width="95px" height="58px" viewBox="0 0 95 58" version="1.1" xmlns="http://www.w3.org/2000/svg" xmlns:xlink="http://www.w3.org/1999/xlink">
    <!-- Generator: Sketch 59 (86127) - https://sketch.com -->
    <title>home-graphic-02</title>
    <desc>Created with Sketch.</desc>
    <g id="Design" stroke="none" stroke-width="1" fill="none" fill-rule="evenodd">
        <g id="Homepage---Mobile" transform="translate(-260.000000, -824.000000)">
            <g id="home-graphic-02" transform="translate(262.000000, 824.000000)">
                <path d="M42.1519395,2.33999991 L57.2578089,17.4458694 L41.0439495,33.6597288 C36.3510797,38.3514286 36.4645697,46.0734283 41.2978395,50.9066981 C46.1299393,55.739968 53.851939,55.853458 58.5448089,51.1605881 L74.7586683,34.9467287 L92.2548476,52.4429081 L91.4931776,0.711359974 L39.7370595,-4.8316906e-13 L42.1519395,2.33999991 Z" id="Fill-11" fill="#B7A9D3"></path>
                <path d="M-2.84217094e-14,55.866679 L-2.84217094e-14,46.0117693 C-2.84217094e-14,44.0169194 1.61810994,42.3999794 3.61295987,42.3999794 L16.2349194,42.3999794 C18.2297693,42.3999794 19.8478793,44.0169194 19.8478793,46.0117693 L19.8478793,49.3123392" id="Stroke-13" stroke="#173C6F" stroke-width="2.6324999"></path>
                <path d="M52.0272071,51.5565161 L49.3947072,51.5565161 L49.3947072,46.0118863 C49.3947072,43.2939764 51.6060071,41.0838465 54.322747,41.0838465 L68.6283365,41.0838465 L65.9899866,43.7163464 L54.322747,43.7163464 C53.0568071,43.7163464 52.0272071,44.7459464 52.0272071,46.0118863 L52.0272071,51.5565161 Z" id="Fill-15" fill="#173C6F"></path>
                <path d="M9.92323764,22.3861942 C13.8088075,22.3861942 16.9584474,25.5358341 16.9584474,29.4202339 C16.9584474,33.3058038 13.8088075,36.4554437 9.92323764,36.4554437 C6.03883778,36.4554437 2.88919789,33.3058038 2.88919789,29.4202339 C2.88919789,25.5358341 6.03883778,22.3861942 9.92323764,22.3861942" id="Fill-17" fill="#7E6BAC"></path>
                <path d="M9.92323764,22.3861942 C13.8088075,22.3861942 16.9584474,25.5358341 16.9584474,29.4202339 C16.9584474,33.3058038 13.8088075,36.4554437 9.92323764,36.4554437 C6.03883778,36.4554437 2.88919789,33.3058038 2.88919789,29.4202339 C2.88919789,25.5358341 6.03883778,22.3861942 9.92323764,22.3861942 Z" id="Stroke-19" stroke="#173C6F" stroke-width="2.6324999"></path>
                <path d="M17.1854274,20.8598122 C17.1854274,17.7686723 19.6997573,15.2543424 22.7908972,15.2543424 C25.8808671,15.2543424 28.395197,17.7686723 28.395197,20.8598122 L31.2535069,20.8598122 C31.2535069,16.1926824 27.456857,12.3960325 22.7908972,12.3960325 C18.1237673,12.3960325 14.3271175,16.1926824 14.3271175,20.8598122 L17.1854274,20.8598122 Z" id="Fill-21" fill="#173C6F"></path>
                <path d="M56.3439219,18.3454823 C55.271032,14.9021725 52.0535321,12.3960325 48.2615622,12.3960325 C43.5956024,12.3960325 39.7966125,16.1926824 39.7966125,20.8598122 L42.6572624,20.8598122 C42.6572624,17.7686723 45.1704223,15.2543424 48.2615622,15.2543424 C51.3515321,15.2543424 53.865862,17.7686723 53.867032,20.8598122" id="Fill-23" fill="#173C6F"></path>
                <path d="M25.3652481,48.9608712 L25.3652481,53.1073511 C25.3652481,54.631861 24.1297281,55.866211 22.6063882,55.866211 C21.0830482,55.866211 19.8475283,54.631861 19.8475283,53.1073511 L19.8475283,48.9608712" id="Stroke-25" stroke="#173C6F" stroke-width="2.6324999"></path>
                <path d="M35.2884857,22.3861942 C39.1728856,22.3861942 42.3236954,25.5358341 42.3236954,29.4202339 C42.3236954,33.3058038 39.1728856,36.4554437 35.2884857,36.4554437 C31.4040858,36.4554437 28.253276,33.3058038 28.253276,29.4202339 C28.253276,25.5358341 31.4040858,22.3861942 35.2884857,22.3861942" id="Fill-27" fill="#7E6BAC"></path>
                <path d="M35.2884857,22.3861942 C39.1728856,22.3861942 42.3236954,25.5358341 42.3236954,29.4202339 C42.3236954,33.3058038 39.1728856,36.4554437 35.2884857,36.4554437 C31.4040858,36.4554437 28.253276,33.3058038 28.253276,29.4202339 C28.253276,25.5358341 31.4040858,22.3861942 35.2884857,22.3861942 Z" id="Stroke-29" stroke="#173C6F" stroke-width="2.6324999"></path>
                <path d="M60.6343118,22.3861942 C64.5187116,22.3861942 67.6695215,25.5358341 67.6695215,29.4202339 C67.6695215,33.3058038 64.5187116,36.4554437 60.6343118,36.4554437 C56.7499119,36.4554437 53.600272,33.3058038 53.600272,29.4202339 C53.600272,25.5358341 56.7499119,22.3861942 60.6343118,22.3861942" id="Fill-31" fill="#B7A9D3"></path>
                <path d="M60.6343118,22.3861942 C64.5187116,22.3861942 67.6695215,25.5358341 67.6695215,29.4202339 C67.6695215,33.3058038 64.5187116,36.4554437 60.6343118,36.4554437 C56.7499119,36.4554437 53.600272,33.3058038 53.600272,29.4202339 C53.600272,25.5358341 56.7499119,22.3861942 60.6343118,22.3861942 Z" id="Stroke-33" stroke="#173C6F" stroke-width="2.6324999"></path>
                <path d="M25.3652481,49.3119882 L25.3652481,46.0114183 C25.3652481,44.0165684 26.982188,42.3996284 28.9770379,42.3996284 L41.6001675,42.3996284 C43.5950174,42.3996284 45.2119573,44.0165684 45.2119573,46.0114183 L45.2119573,49.3119882" id="Stroke-35" stroke="#173C6F" stroke-width="2.6324999"></path>
                <path d="M50.7293261,46.1050183 L50.7293261,53.1074681 C50.7293261,54.631978 49.4938062,55.866328 47.9716362,55.866328 C46.4471263,55.866328 45.2116063,54.631978 45.2116063,53.1074681 L45.2116063,48.9609882" id="Stroke-37" stroke="#173C6F" stroke-width="2.6324999"></path>
            </g>
        </g>
    </g>
</svg>