<svg width="95" height="58" xmlns="http://www.w3.org/2000/svg"><g fill="none" fill-rule="evenodd"><path d="M44.152 2.34l15.106 15.106L43.044 33.66c-4.693 4.691-4.58 12.413.254 17.247 4.832 4.833 12.554 4.946 17.247.254l16.214-16.214 17.496 17.496L93.493.71 41.737 0l2.415 2.34z" fill="#B7A9D3"/><path d="M2 55.867v-9.855A3.613 3.613 0 015.613 42.4h12.622a3.613 3.613 0 013.613 3.612v3.3" stroke="#173C6F" stroke-width="2.632"/><path d="M54.027 51.557h-2.632v-5.545a4.934 4.934 0 014.928-4.928h14.305l-2.638 2.632H56.323a2.298 2.298 0 00-2.296 2.296v5.545z" fill="#173C6F"/><path d="M11.923 22.386a7.035 7.035 0 11.001 14.07 7.035 7.035 0 010-14.07" fill="#7E6BAC"/><path d="M11.923 22.386a7.035 7.035 0 11.001 14.07 7.035 7.035 0 010-14.07z" stroke="#173C6F" stroke-width="2.632"/><path d="M19.185 20.86a5.611 5.611 0 015.606-5.606 5.611 5.611 0 015.604 5.606h2.859c0-4.667-3.797-8.464-8.463-8.464-4.667 0-8.464 3.797-8.464 8.464h2.858zm39.159-2.515c-1.073-3.443-4.29-5.949-8.082-5.949-4.666 0-8.465 3.797-8.465 8.464h2.86a5.61 5.61 0 015.605-5.606 5.613 5.613 0 015.605 5.606" fill="#173C6F"/><path d="M27.365 48.96v4.147a2.759 2.759 0 11-5.517 0v-4.146" stroke="#173C6F" stroke-width="2.632"/><path d="M37.288 22.386a7.036 7.036 0 110 14.071 7.036 7.036 0 010-14.07" fill="#7E6BAC"/><path d="M37.288 22.386a7.036 7.036 0 110 14.071 7.036 7.036 0 010-14.07z" stroke="#173C6F" stroke-width="2.632"/><path d="M62.634 22.386a7.036 7.036 0 110 14.071 7.036 7.036 0 010-14.07" fill="#B7A9D3"/><path d="M62.634 22.386a7.036 7.036 0 110 14.071 7.036 7.036 0 010-14.07zM27.365 49.312v-3.3a3.612 3.612 0 013.612-3.612H43.6a3.612 3.612 0 013.612 3.611v3.301" stroke="#173C6F" stroke-width="2.632"/><path d="M52.73 46.105v7.002a2.758 2.758 0 11-5.518 0v-4.146" stroke="#173C6F" stroke-width="2.632"/></g></svg>