<?xml version="1.0" encoding="UTF-8"?>
<svg width="69px" height="54px" viewBox="0 0 69 54" version="1.1" xmlns="http://www.w3.org/2000/svg" xmlns:xlink="http://www.w3.org/1999/xlink">
    <!-- Generator: Sketch 59 (86127) - https://sketch.com -->
    <title>home-graphic-01</title>
    <desc>Created with Sketch.</desc>
    <defs>
        <polygon id="path-1" points="0.967589625 0.109 47.3761 0.109 47.3761 46.5171607 0.967589625 46.5171607"></polygon>
        <polygon id="path-3" points="0 0.7026 59.1219 0.7026 59.1219 32.9996 0 32.9996"></polygon>
    </defs>
    <g id="Design" stroke="none" stroke-width="1" fill="none" fill-rule="evenodd">
        <g id="Homepage" transform="translate(-298.000000, -626.000000)">
            <g id="home-graphic-01" transform="translate(298.000000, 626.000000)">
                <polygon id="Fill-1" fill="#173C6F" points="0.3465 11.0736 0.3465 53.3236 2.4505 53.3236 2.4505 13.1776 18.1325 13.1776 19.8565 19.2626 49.3835 19.2626 48.3765 21.5626 50.3035 22.4066 52.6045 17.1576 21.4475 17.1576 19.7235 11.0736"></polygon>
                <path d="M0.1062,10.8324 L0.1062,53.5644 L2.6922,53.5644 L2.6922,13.4194 L17.9502,13.4194 L19.6752,19.5044 L49.0162,19.5044 L48.0592,21.6854 L50.4282,22.7234 L52.9732,16.9174 L21.6292,16.9174 L19.9052,10.8324 L0.1062,10.8324 Z M0.5882,11.3144 L19.5412,11.3144 L21.2652,17.3984 L52.2352,17.3984 L50.1792,22.0884 L48.6932,21.4384 L49.7522,19.0214 L20.0382,19.0214 L18.3142,12.9364 L2.2102,12.9364 L2.2102,53.0834 L0.5882,53.0834 L0.5882,11.3144 Z" id="Fill-2" fill="#173C6F"></path>
                <g id="Group-5" transform="translate(21.000000, 0.000000)">
                    <mask id="mask-2" fill="white">
                        <use xlink:href="#path-1"></use>
                    </mask>
                    <g id="Clip-4"></g>
                    <path d="M2.8051,0.1084 L17.6601,14.9644 L3.8941,28.7314 C-0.0909,32.7154 0.0061,39.2714 4.1101,43.3754 C8.2131,47.4784 14.7691,47.5754 18.7541,43.5914 L32.5211,29.8244 L47.3761,44.6804 L47.3761,44.6794 L46.7291,0.7554 L2.8051,0.1084 Z" id="Fill-3" fill="#B7A9D3" mask="url(#mask-2)"></path>
                </g>
                <path d="M3.3832,51.7227 L44.8602,51.7227 L55.7382,23.9797 L14.2622,23.9797 L3.3832,51.7227 Z M46.2962,53.7637 L0.3462,53.7637 L12.8262,21.9387 L58.7752,21.9387 L46.2962,53.7637 Z" id="Fill-6" fill="#173C6F"></path>
                <g id="Group-10" transform="translate(0.000000, 21.000000)">
                    <mask id="mask-4" fill="white">
                        <use xlink:href="#path-3"></use>
                    </mask>
                    <g id="Clip-9"></g>
                    <path d="M3.7299,30.4866 L44.6989,30.4866 L55.3919,3.2156 L14.4229,3.2156 L3.7299,30.4866 Z M45.0209,30.9586 L3.0369,30.9586 L14.1009,2.7436 L56.0849,2.7436 L45.0209,30.9586 Z M0.6929,32.5276 L46.1349,32.5276 L58.4289,1.1746 L12.9869,1.1746 L0.6929,32.5276 Z M46.4569,32.9996 L-0.0001,32.9996 L0.1269,32.6776 L12.6649,0.7026 L59.1219,0.7026 L58.9959,1.0246 L46.4569,32.9996 Z" id="Fill-8" fill="#173C6F" mask="url(#mask-4)"></path>
                </g>
            </g>
        </g>
    </g>
</svg>