<svg width="30" height="30" xmlns="http://www.w3.org/2000/svg"><path d="M15.001 0C23.284 0 30 6.716 30 15c0 8.284-6.716 15-14.999 15C6.716 30 0 23.284 0 15 0 6.716 6.716 0 15.001 0zm2.528 8.189c-1.807.635-2.948 2.273-2.818 4.067l.043.692-.722-.084c-2.63-.326-4.928-1.427-6.88-3.277L6.2 8.669l-.246.678c-.519 1.51-.187 3.107.897 4.18.578.594.448.679-.55.326-.347-.114-.65-.198-.678-.156-.102.098.245 1.384.519 1.892.377.707 1.142 1.399 1.98 1.808l.709.324-.839.016c-.808 0-.839.014-.751.31.29.918 1.43 1.892 2.702 2.317l.897.296-.78.452a8.33 8.33 0 01-3.875 1.045c-.65.013-1.185.071-1.185.113 0 .142 1.764.933 2.788 1.243 3.079.917 6.735.522 9.48-1.045 1.952-1.116 3.902-3.334 4.812-5.48.493-1.145.984-3.235.984-4.238 0-.65.043-.734.853-1.51.477-.452.925-.947 1.011-1.088.145-.269.13-.269-.607-.028-1.228.424-1.402.366-.794-.269.447-.452.981-1.27.981-1.51 0-.038-.165.011-.37.11l-.09.045c-.262.14-.84.352-1.273.48l-.78.24-.708-.466c-.39-.254-.94-.537-1.228-.622-.738-.197-1.866-.17-2.53.057z" fill="#FFF" fill-rule="evenodd"/></svg>