<svg width="32" height="43" xmlns="http://www.w3.org/2000/svg" xmlns:xlink="http://www.w3.org/1999/xlink"><defs><path d="M15.767 0A15.746 15.746 0 000 15.767c0 10.51 15.767 26.277 15.767 26.277s15.766-15.766 15.766-26.277A15.746 15.746 0 0015.767 0zm0 5.256c5.833 0 10.51 4.73 10.51 10.51a10.475 10.475 0 01-10.51 10.512c-5.781 0-10.511-4.678-10.511-10.511 0-5.781 4.73-10.511 10.51-10.511z" id="a"/><path id="c" d="M5.544 0v5.775H0v3.85h5.544V15.4H9.24V9.625h5.544v-3.85H9.24V0z"/></defs><g fill="none" fill-rule="evenodd"><g transform="translate(.183 .428)"><mask id="b" fill="#fff"><use xlink:href="#a"/></mask><use fill="#212B36" fill-rule="nonzero" xlink:href="#a"/><g mask="url(#b)" fill="#FF8A6E"><rect width="47.3" height="47.3" rx="4.4" transform="translate(-7.7 -2.2)"/></g></g><use fill="#FF8A6E" fill-rule="nonzero" xlink:href="#c" transform="translate(9 9)"/></g></svg>

