<svg xmlns="http://www.w3.org/2000/svg" xmlns:xlink="http://www.w3.org/1999/xlink" viewBox="0 0 17 17"><defs><path d="M7.16.603C3.212.603 0 3.746 0 7.611c0 3.864 3.212 7.007 7.16 7.007 1.207 0 2.393-.28 3.395-.82.08.094.169.181.267.26l2.045 2.002a2.116 2.116 0 002.06.626 2.061 2.061 0 001.525-1.493 2.013 2.013 0 00-.64-2.017l-2.045-2.001a1.99 1.99 0 00-.326-.26c.551-.981.899-2.123.899-3.324 0-3.864-3.212-7.008-7.16-7.008l-.02.02zM2.025 7.631c0-2.783 2.271-5.005 5.115-5.005l.02-.021c2.843 0 5.114 2.222 5.114 5.006 0 1.321-.491 2.542-1.351 3.443l-.061.061a1.973 1.973 0 00-.265.26c-.9.801-2.128 1.262-3.457 1.262-2.844 0-5.115-2.223-5.115-5.006z" id="a"/><path d="M3.16.603a7.27 7.27 0 00-2.59.474v2.216a5.21 5.21 0 012.57-.667l.02-.021c2.843 0 5.114 2.222 5.114 5.006 0 1.321-.491 2.542-1.351 3.443l-.061.061a1.973 1.973 0 00-.265.26c-.9.801-2.128 1.262-3.457 1.262-.94 0-1.817-.243-2.57-.668v2.175a7.27 7.27 0 002.59.474c1.207 0 2.393-.28 3.395-.82.08.094.169.181.267.26l2.045 2.002a2.116 2.116 0 002.06.626 2.061 2.061 0 001.525-1.493 2.013 2.013 0 00-.64-2.017l-2.045-2.001a1.99 1.99 0 00-.326-.26c.551-.981.899-2.123.899-3.324 0-3.864-3.212-7.008-7.16-7.008l-.02.02z" id="c"/><path d="M.972 3.259a4.936 4.936 0 011.302 3.352c0 1.296-.473 2.496-1.302 3.392v3.202l1.895 1.855a2.116 2.116 0 002.06.626 2.061 2.061 0 001.525-1.493 2.013 2.013 0 00-.64-2.017l-2.045-2.001a1.99 1.99 0 00-.326-.26c.551-.981.899-2.123.899-3.324C4.34 4.089 2.993 1.888.972.648v2.611z" id="e"/></defs><g fill="none" fill-rule="evenodd"><path d="M7.16.534C3.212.534 0 3.678 0 7.542s3.212 7.008 7.16 7.008c1.207 0 2.394-.28 3.396-.822.08.095.168.182.265.261l2.046 2.002a2.115 2.115 0 002.061.626 2.064 2.064 0 001.524-1.493 2.011 2.011 0 00-.64-2.016l-2.045-2.002a1.997 1.997 0 00-.327-.26c.552-.98.9-2.123.9-3.324 0-3.864-3.21-7.008-7.159-7.008l-.02.02zm0 2.002c2.843 0 5.114 2.223 5.114 5.006 0 1.321-.49 2.543-1.35 3.444l-.062.06a1.916 1.916 0 00-.265.26c-.9.801-2.128 1.261-3.458 1.261-2.843 0-5.114-2.222-5.114-5.005S4.296 2.556 7.14 2.556l.021-.02z" fill="#8169B1"/><g transform="translate(0 -.069)"><mask id="b" fill="#fff"><use xlink:href="#a"/></mask><path fill="#8169B1" mask="url(#b)" d="M0 16.973h16.877V.097H0z"/><path fill="#8169B1" mask="url(#b)" d="M4.57 23h30.728V-5.931H4.57z"/></g><g transform="translate(4 -.069)"><mask id="d" fill="#fff"><use xlink:href="#c"/></mask><path fill="#8169B1" mask="url(#d)" d="M6.972 16.973h17.925V.097H6.972z"/></g><g transform="translate(10 .931)"><mask id="f" fill="#fff"><use xlink:href="#e"/></mask><path fill="#8169B1" mask="url(#f)" d="M-5.43 21.773h30.342V-6.444H-5.43z"/></g></g></svg>