<?xml version="1.0" encoding="UTF-8"?>
<svg width="32px" height="43px" viewBox="0 0 32 43" version="1.1" xmlns="http://www.w3.org/2000/svg" xmlns:xlink="http://www.w3.org/1999/xlink">
    <!-- Generator: Sketch 59 (86127) - https://sketch.com -->
    <title>icons-map-marker</title>
    <desc>Created with Sketch.</desc>
    <defs>
        <path d="M15.7666667,0 C7.04244444,0 0,7.04244444 0,15.7666667 C0,26.2777778 15.7666667,42.0444444 15.7666667,42.0444444 C15.7666667,42.0444444 31.5333333,26.2777778 31.5333333,15.7666667 C31.5333333,7.04244444 24.4908889,0 15.7666667,0 Z M15.7666667,5.25555556 C21.6003333,5.25555556 26.2777778,9.98555556 26.2777778,15.7666667 C26.2777778,21.6003333 21.6003333,26.2777778 15.7666667,26.2777778 C9.98555556,26.2777778 5.25555556,21.6003333 5.25555556,15.7666667 C5.25555556,9.98555556 9.98555556,5.25555556 15.7666667,5.25555556 Z" id="path-1"></path>
    </defs>
    <g id="Design" stroke="none" stroke-width="1" fill="none" fill-rule="evenodd">
        <g id="Template-#5---Locations" transform="translate(-666.000000, -509.000000)">
            <g id="Group" transform="translate(-50.000000, 345.000000)">
                <g id="icons/map-marker-copy-2" transform="translate(716.000000, 164.000000)">
                    <g id="icons-map-marker" transform="translate(0.183333, 0.427778)">
                        <mask id="mask-2" fill="white">
                            <use xlink:href="#path-1"></use>
                        </mask>
                        <use id="Mask" fill="#212B36" fill-rule="nonzero" xlink:href="#path-1"></use>
                        <g id="Color" mask="url(#mask-2)" fill="#173C6F">
                            <g transform="translate(-7.700000, -2.200000)" id="color/main">
                                <rect x="0" y="0" width="47.3" height="47.3" rx="4.4"></rect>
                            </g>
                        </g>
                    </g>
                </g>
            </g>
        </g>
    </g>
</svg>