<?xml version="1.0" encoding="UTF-8"?>
<svg width="30px" height="30px" viewBox="0 0 30 30" version="1.1" xmlns="http://www.w3.org/2000/svg" xmlns:xlink="http://www.w3.org/1999/xlink">
    <!-- Generator: Sketch 59 (86127) - https://sketch.com -->
    <title>icon-twitter</title>
    <desc>Created with Sketch.</desc>
    <g id="Symbols" stroke="none" stroke-width="1" fill="none" fill-rule="evenodd">
        <g id="Mobile---Footer" transform="translate(-319.000000, -396.000000)" fill="#FFFFFF">
            <g id="Group-14">
                <path d="M334.001156,396 C342.284031,396 349,402.715969 349,411 C349,419.284031 342.284031,426 334.001156,426 C325.715969,426 319,419.284031 319,411 C319,402.715969 325.715969,396 334.001156,396 Z M336.529436,404.188515 C334.722351,404.823962 333.581402,406.462315 333.710896,408.256312 L333.754061,408.947931 L333.031927,408.863673 C330.402378,408.538343 328.104149,407.437135 326.152403,405.586967 L325.199279,404.669489 L324.953124,405.347065 C324.43398,406.85786 324.766465,408.454084 325.85025,409.527206 C326.427724,410.120523 326.29823,410.205952 325.300775,409.852536 C324.953124,409.739021 324.649804,409.654763 324.621805,409.696892 C324.52031,409.795193 324.866794,411.0813 325.140949,411.58919 C325.517765,412.296022 326.283064,412.987641 327.121859,413.397229 L327.829994,413.721389 L326.991199,413.736602 C326.182735,413.736602 326.152403,413.750645 326.239899,414.046719 C326.529219,414.965367 327.670168,415.939017 328.941778,416.363818 L329.838904,416.659892 L329.058439,417.111609 C327.902324,417.76227 326.543219,418.128559 325.184113,418.156645 C324.535476,418.170688 324,418.22803 324,418.270159 C324,418.41176 325.763921,419.20285 326.788208,419.512967 C329.866903,420.430444 333.523071,420.034899 336.268114,418.467932 C338.21986,417.351511 340.170439,415.133883 341.080398,412.987641 C341.572709,411.843134 342.063853,409.753064 342.063853,408.750158 C342.063853,408.100668 342.107018,408.01641 342.916648,407.239363 C343.393794,406.787645 343.841773,406.292629 343.928103,406.152198 C344.072763,405.88304 344.057597,405.88304 343.321463,406.124112 C342.093019,406.547744 341.919193,406.490401 342.526999,405.854954 C342.973812,405.403237 343.508122,404.584061 343.508122,404.344159 C343.508122,404.307296 343.342882,404.356447 343.137448,404.454764 L343.047309,404.499803 C342.785988,404.640233 342.208514,404.852048 341.774533,404.979606 L340.994068,405.219508 L340.2871,404.753747 C339.896284,404.499803 339.346809,404.216602 339.058655,404.132343 C338.321355,403.934571 337.193239,403.962657 336.529436,404.188515 Z" id="icon-twitter"></path>
            </g>
        </g>
    </g>
</svg>