<svg xmlns="http://www.w3.org/2000/svg" viewBox="0 0 153 147">
  <g fill="none" fill-rule="evenodd">
    <path fill="#1DA1F2" d="M0 0v146.25L152.1 0z"/>
    <path d="M39.657 69.61c18.102 0 28.002-14.853 28.002-27.733 0-.421-.01-.842-.028-1.26a19.922 19.922 0 004.909-5.046 19.795 19.795 0 01-5.652 1.534 9.796 9.796 0 004.328-5.391 19.846 19.846 0 01-6.25 2.365A9.877 9.877 0 0057.784 31c-5.435 0-9.844 4.364-9.844 9.746 0 .765.087 1.509.256 2.222a28.036 28.036 0 01-20.287-10.183 9.646 9.646 0 00-1.332 4.899c0 3.381 1.737 6.366 4.38 8.113a9.849 9.849 0 01-4.458-1.219c-.002.04-.002.081-.002.124 0 4.721 3.392 8.662 7.896 9.556a9.956 9.956 0 01-4.444.167c1.253 3.873 4.886 6.69 9.193 6.77a19.869 19.869 0 01-12.222 4.172c-.795 0-1.579-.045-2.349-.134a28.063 28.063 0 0015.087 4.377" fill="#FFF"/>
  </g>
</svg>